<svg xmlns="http://www.w3.org/2000/svg" width="410" height="279" fill="none"><path fill="#FDFCFC" d="m168.745 281.155 23.017-58.872c8.911-22.805 29.931-38.624 54.303-40.887l58.716-5.45 57.905 13.96a59.17 59.17 0 0 1 38.758 30.477l6.173 60.772c-.014 0-238.872-.475-238.872 0z"/><path fill="#483D89" d="M168.95 281.686a1.41 1.41 0 0 1-1.299-1.914l23.018-58.872c9.162-23.448 30.419-39.449 55.475-41.768l58.716-5.45c.154-.014.307 0 .461.028l57.906 13.96a60.551 60.551 0 0 1 39.679 31.204c.084.153.126.321.154.503l6.173 60.772a1.396 1.396 0 0 1-1.243 1.537 1.414 1.414 0 0 1-1.536-1.243l-6.146-60.507a57.736 57.736 0 0 0-37.724-29.527l-57.668-13.904-58.493 5.436c-23.994 2.221-44.344 17.551-53.129 40.007l-23.017 58.872a1.465 1.465 0 0 1-1.327.866z"/><path fill="#FDFCFC" d="m335.563 183.883 8.45-30.603-50.908-14.072-10.81 39.127c-5.028.056-9.987.28-14.903.657 2.151 27.137 17.039 48.364 36.523 49.705 18.953 1.3 36.174-16.643 42.487-42.103-3.562-1.006-7.179-1.887-10.839-2.711z"/><path fill="#483D89" d="M305.842 230.151c-.67 0-1.34-.028-2.025-.07-19.679-1.356-35.587-22.792-37.822-50.991a1.37 1.37 0 0 1 .336-1.02c.237-.28.586-.461.949-.489 4.637-.35 9.33-.559 13.939-.643l10.531-38.107c.098-.363.335-.657.656-.838a1.34 1.34 0 0 1 1.062-.126l50.908 14.072c.741.209 1.174.978.978 1.718l-8.059 29.192c3.52.81 6.634 1.593 9.47 2.389.726.21 1.159.951.977 1.677-6.382 25.81-23.422 43.236-41.9 43.236zM268.9 180.278c2.528 26.103 17.138 45.778 35.113 47.022 17.57 1.216 34.148-15.064 40.685-39.728-2.822-.769-5.936-1.523-9.442-2.32a1.407 1.407 0 0 1-.894-.642 1.42 1.42 0 0 1-.153-1.09l8.072-29.248-48.227-13.331-10.433 37.772c-.167.6-.712 1.02-1.326 1.02a240.14 240.14 0 0 0-13.395.545z"/><path fill="#483D89" d="m334.209 188.802 9.804-35.522-32.332-8.943-13.688 9.292c4.288 15.833 16.942 28.633 36.216 35.173z"/><path fill="#483D89" d="M336.024 156.41c29.875 0 54.093-24.231 54.093-54.121V99.41c0-29.89-24.218-54.12-54.093-54.12-29.875 0-54.093 24.23-54.093 54.12v2.879c0 29.89 24.218 54.121 54.093 54.121z"/><path fill="#483D89" d="M322.784 140.033c24.93 0 45.14-20.221 45.14-45.164v-9.237c0-24.943-20.21-45.164-45.14-45.164-24.931 0-45.14 20.22-45.14 45.164v9.237c0 24.943 20.209 45.164 45.14 45.164z"/><path fill="#483D89" d="M273.607 80.56c-.098 0-.195-.014-.293-.028a1.4 1.4 0 0 1-1.075-1.663c2.946-13.876 9.65-24.273 19.93-30.897 10.782-6.944 25.517-9.25 39.4-6.162a1.392 1.392 0 0 1 1.061 1.663 1.39 1.39 0 0 1-1.662 1.062c-13.17-2.92-27.123-.769-37.291 5.785-9.637 6.205-15.936 16-18.715 29.122a1.387 1.387 0 0 1-1.355 1.118z"/><path fill="#FDFCFC" d="m379.503 107.837-6.383.112v-.322c0-25.195-20.419-45.625-45.601-45.625h-2.57c-17.053 0-31.928 9.377-39.735 23.267l-2.933-.867c-5.964-1.774-12.235 1.621-14.009 7.588-1.773 5.967 1.621 12.242 7.584 14.016l3.52 1.048c0 .196-.014.392-.014.573v17.468c0 25.195 20.419 45.624 45.601 45.624h2.57c23.352 0 42.598-17.565 45.266-40.216l7.123-.126c6.215-.112 11.173-5.254 11.062-11.473-.126-6.232-5.266-11.179-11.481-11.067z"/><path fill="#483D89" d="M327.533 172.117h-2.57c-25.908 0-46.998-21.087-46.998-47.022v-17.007l-2.5-.74a12.607 12.607 0 0 1-7.528-6.107 12.613 12.613 0 0 1-1.006-9.642 12.614 12.614 0 0 1 6.104-7.532 12.592 12.592 0 0 1 9.637-1.006l1.885.559c8.464-14.225 23.841-23.001 40.392-23.001h2.57c25.545 0 46.397 20.5 46.984 45.918l4.972-.098c3.394-.041 6.592 1.202 9.022 3.55a12.575 12.575 0 0 1 3.869 8.887 12.645 12.645 0 0 1-3.547 9.027 12.566 12.566 0 0 1-8.883 3.871l-5.922.112c-3.31 23.015-23.087 40.231-46.481 40.231zm-48.479-86.792c-1.62 0-3.226.405-4.692 1.202a9.822 9.822 0 0 0-4.763 5.869 9.798 9.798 0 0 0 .782 7.518 9.824 9.824 0 0 0 5.866 4.765l3.52 1.048c.6.181 1.005.74.991 1.355l-.014.559v17.468c0 24.384 19.833 44.227 44.205 44.227h2.57c22.388 0 41.257-16.755 43.883-38.987a1.386 1.386 0 0 1 1.355-1.23l7.123-.126a9.767 9.767 0 0 0 6.927-3.018 9.847 9.847 0 0 0 2.766-7.029 9.781 9.781 0 0 0-3.017-6.931c-1.9-1.831-4.386-2.823-7.025-2.767l-6.383.112c-.419 0-.74-.14-1.006-.405a1.424 1.424 0 0 1-.419-.992v-.322c0-24.384-19.832-44.227-44.204-44.227h-2.57c-15.922 0-30.685 8.636-38.52 22.554a1.403 1.403 0 0 1-1.62.656l-2.933-.866a9.289 9.289 0 0 0-2.822-.433z"/><path fill="#483D89" d="M375.438 107.46v.083c-8.072-5.463-14.036-24.496-14.036-47.134v-.084c8.073 5.464 14.036 24.497 14.036 47.135zm-95.043-6.708c-.07 0-.153 0-.237-.014a1.403 1.403 0 0 1-1.145-1.607c.893-5.394-3.45-8.119-3.646-8.23a1.39 1.39 0 0 1-.461-1.915 1.405 1.405 0 0 1 1.914-.475c.251.154 6.159 3.787 4.944 11.095a1.393 1.393 0 0 1-1.369 1.146zm94.275 23.197c-.056 0-.098 0-.154-.014a1.398 1.398 0 0 1-1.243-1.537c.783-7.351 7.445-9.279 7.738-9.363a1.413 1.413 0 0 1 1.718.978 1.395 1.395 0 0 1-.964 1.719c-.223.07-5.126 1.537-5.698 6.959a1.407 1.407 0 0 1-1.397 1.258zm-34.33-26.132c-.67 1.747 2.71 4.682 7.556 6.554 4.847 1.873 9.33 1.957 10 .21.671-1.747-2.709-4.681-7.556-6.554-4.846-1.858-9.329-1.956-10-.21zm-34.833-2.501c.126 1.873 4.442 3.102 9.623 2.74 5.182-.364 9.274-2.167 9.148-4.04-.125-1.872-4.441-3.102-9.623-2.738-5.181.35-9.273 2.166-9.148 4.038zm20.894 31.483a1.381 1.381 0 0 1-1.382-1.257 1.395 1.395 0 0 1 1.243-1.537 4.64 4.64 0 0 0 3.324-1.915 4.683 4.683 0 0 0 .81-3.759L327.91 106.3a1.4 1.4 0 0 1 1.089-1.649 1.399 1.399 0 0 1 1.648 1.09l2.486 12.031a7.504 7.504 0 0 1-1.299 5.967 7.479 7.479 0 0 1-5.293 3.032c-.056.028-.098.028-.14.028zm-7.178 21.786a8.539 8.539 0 0 1-4.079-1.02c-5.237-2.767-7.011-10.271-7.081-10.593a1.403 1.403 0 0 1 1.048-1.676c.754-.182 1.494.293 1.676 1.048.014.069 1.564 6.595 5.67 8.747 1.69.895 3.576.923 5.768.07a1.387 1.387 0 0 1 1.802.797 1.387 1.387 0 0 1-.796 1.802c-1.383.559-2.724.825-4.008.825zm-8.115-96.155c-9.204 3.089-17.235 7.183-23.157 11.473.21 1.677.573 3.354 1.131 4.988 2.612 7.798 8.758 13.64 16.719 16.923 4.818-.797 9.958-2.082 15.223-3.843 21.23-7.14 36.216-19.536 33.478-27.682-2.737-8.161-22.165-8.986-43.394-1.859z"/><path fill="#483D89" d="M376.989 77.276c5.74 7.84 7.248 16.475 5.489 23.588a26.346 26.346 0 0 1-5.042.824c-8.199.489-15.908-3.032-21.942-9.195 2.165-5.282-.978-15.734-8.296-23.587-15.28-16.378 12.542-15.162 29.791 8.37zm-63.186 31.665c-.139 3.172 1.383 5.813 3.408 5.911 2.025.084 3.771-2.418 3.911-5.59.14-3.172-1.383-5.813-3.408-5.911-2.025-.084-3.785 2.418-3.911 5.59zm29.652 7.14c-.14 3.173 1.382 5.814 3.408 5.911 2.025.084 3.771-2.417 3.91-5.589.14-3.172-1.382-5.813-3.408-5.911-2.025-.084-3.771 2.417-3.91 5.589zm2.863-64.111h-.084a1.404 1.404 0 0 1-1.313-1.482c.391-6.358-7.36-10.075-7.43-10.103a1.388 1.388 0 0 1-.67-1.859 1.403 1.403 0 0 1 1.857-.67c.391.181 9.553 4.54 9.037 12.813a1.393 1.393 0 0 1-1.397 1.3z"/><path fill="#483D89" d="M346.918 48.322c-.069 0-.153 0-.223-.014a1.416 1.416 0 0 1-1.159-1.607c.712-4.36 4.106-5.618 5.81-5.688.796-.055 1.424.573 1.452 1.342a1.387 1.387 0 0 1-1.326 1.44c-.28.013-2.668.25-3.171 3.34-.126.698-.712 1.187-1.383 1.187zm-28.715 39.616a1.415 1.415 0 0 1-1.369-1.09 1.392 1.392 0 0 1 1.061-1.663c12.612-2.809 22.11-8.873 28.255-18.012a1.395 1.395 0 0 1 1.941-.378c.643.434.81 1.3.377 1.943-6.55 9.754-16.634 16.21-29.958 19.186-.098 0-.196.014-.307.014zM285.2 73.265l-1.229 30.408 4.93 1.313 12.319-35.032-16.02 3.311zm-69.68 208.254c-.238 0-.475-.056-.685-.182a1.397 1.397 0 0 1-.53-1.9l10.991-19.452a1.396 1.396 0 0 1 1.9-.531c.67.377.908 1.23.531 1.9l-10.992 19.452a1.375 1.375 0 0 1-1.215.713zm155.239.433a1.4 1.4 0 0 1-1.396-1.397V258.21a1.4 1.4 0 0 1 1.396-1.397 1.4 1.4 0 0 1 1.397 1.397v22.345c0 .768-.614 1.397-1.397 1.397zm-174.052-.042c3.086-14.044 4.902-33.202 4.832-59.347l-.684-5.618c-1.956-16.042-13.632-29.191-29.316-33.02l-83.088-20.304c-14.037-3.438-28.827 1.229-38.366 12.087L0 281.91h196.707z"/><path fill="#FDFCFC" d="m120.602 170.51 20.489 32.461c5.433 8.608 18.464 6.848 21.425-2.878l23.227-76.214-45.741-14.519-19.4 61.15z"/><path fill="#483D89" d="M151.077 209.902c-4.525 0-8.701-2.277-11.173-6.204l-20.489-32.447a1.392 1.392 0 0 1-.154-1.174l19.4-61.164c.112-.35.363-.643.684-.811a1.41 1.41 0 0 1 1.062-.097l45.741 14.518a1.404 1.404 0 0 1 .907 1.747l-23.212 76.214c-1.537 5.031-5.727 8.594-10.936 9.293a13.56 13.56 0 0 1-1.83.125zM122.124 170.3l20.14 31.903c2.221 3.521 6.16 5.366 10.266 4.793 4.12-.559 7.43-3.368 8.631-7.336l22.822-74.887-43.087-13.68-18.772 59.207z"/><path fill="#483D89" d="m131.273 145.511 11.467-36.165 43.003 13.653-12.277 38.707c-15.307 1.23-30.95-4.29-42.193-16.195z"/><path fill="#483D89" d="m149.625 36.346 11.55 1.412c26.914 3.297 47.99 23.448 51.132 48.866l3.785 30.701c1.411 11.473-7.192 21.911-19.343 23.42l-46.593 5.8-.531-110.199z"/><path fill="#483D89" d="m171.259 37.408-13.436-.95c-31.299-2.208-59.148 14.267-67.542 39.951l-10.14 31.009c-3.785 11.598 4.05 24.188 17.612 28.283l52.026 15.721 21.48-114.014z"/><path fill="#483D89" d="M166.608 50.362a1.29 1.29 0 0 1-.503-.098 1.39 1.39 0 0 1-.81-1.802l10.755-28.284c1.452-3.815.796-7.867-1.858-11.402a1.402 1.402 0 0 1 .279-1.957 1.401 1.401 0 0 1 1.956.28c3.198 4.262 4.008 9.39 2.234 14.072l-10.754 28.283c-.209.573-.74.908-1.299.908z"/><path fill="#483D89" d="m166.078 49.37 7.346-28.996c2.305-9.083-4.33-18.026-14.162-19.088L148.368.112c-10.838-1.174-19.875 7.727-18.171 17.9l5.615 33.356 30.266-1.998z"/><path fill="#FDFCFC" d="M91.384 86.904c2.235-7.532 10.154-11.808 17.668-9.572l.237.07c6.23-21.646 22.501-37.087 41.579-37.087 21.118 0 38.758 18.893 43.213 44.185 6.564.294 12.263 5.129 13.38 11.864 1.285 7.742-3.938 15.064-11.69 16.364l-2.444.405c-5.433 23.434-22.389 40.538-42.473 40.538-21.955 0-40.168-20.43-43.688-47.232l-6.243-1.858c-7.486-2.236-11.773-10.16-9.539-17.677z"/><path fill="#483D89" d="M150.896 155.069c-22.193 0-40.978-19.941-44.945-47.54l-5.391-1.607a15.469 15.469 0 0 1-9.274-7.532 15.545 15.545 0 0 1-1.243-11.89 15.479 15.479 0 0 1 7.528-9.28 15.488 15.488 0 0 1 10.783-1.522c6.843-22.065 23.785-36.794 42.528-36.794 21.271 0 39.4 18.153 44.4 44.27 6.816.796 12.444 6.078 13.576 12.954.684 4.108-.28 8.244-2.696 11.64-2.43 3.396-6.02 5.645-10.14 6.33l-1.522.252c-5.908 24.021-23.729 40.72-43.604 40.72zm-45.908-76.94c-2.109 0-4.19.53-6.09 1.55-3.003 1.635-5.21 4.332-6.173 7.616a12.698 12.698 0 0 0 1.02 9.754c1.633 3.018 4.33 5.212 7.611 6.176l6.243 1.859c.531.154.908.615.992 1.16 3.506 26.662 21.285 46.016 42.291 46.016 18.813 0 35.727-16.224 41.118-39.462a1.406 1.406 0 0 1 1.131-1.062l2.444-.406c3.38-.559 6.327-2.403 8.325-5.184 1.997-2.781 2.779-6.177 2.22-9.558-.991-5.94-6.061-10.439-12.067-10.704a1.386 1.386 0 0 1-1.313-1.16c-4.385-24.93-21.983-43.026-41.844-43.026-17.849 0-34.023 14.505-40.238 36.08a1.389 1.389 0 0 1-.67.84 1.345 1.345 0 0 1-1.062.111l-.237-.07a13.54 13.54 0 0 0-3.701-.53z"/><path fill="#483D89" d="M131.398 43.57c6.062-4.01 12.864-6.274 20.071-6.274 21.732 0 39.902 20.528 44.483 48 1.439.07 2.822.364 4.148.853-25.559 1.286-51.62-15.161-68.702-42.578z"/><path fill="#483D89" d="M183.145 91.417h-.14c-20.601-2.026-39.931-18.361-50.434-42.634a1.4 1.4 0 0 1 .727-1.845 1.378 1.378 0 0 1 1.829.727c10.098 23.336 28.548 39.043 48.143 40.972.769.07 1.327.754 1.257 1.523-.055.712-.67 1.257-1.382 1.257z"/><path fill="#483D89" d="M140.183 70.554c-.447 0-.88-.21-1.145-.6-5.042-7.225-8.017-15.805-8.841-25.517a1.394 1.394 0 0 1 1.271-1.51c.768-.083 1.439.504 1.509 1.273.782 9.222 3.589 17.341 8.352 24.16a1.38 1.38 0 0 1-.35 1.943 1.376 1.376 0 0 1-.796.251zm-32.374 26.16c-.07 0-.154 0-.238-.014a1.403 1.403 0 0 1-1.145-1.607c.796-4.807-3.087-7.253-3.24-7.35a1.389 1.389 0 0 1-.461-1.915 1.398 1.398 0 0 1 1.913-.475c.238.14 5.671 3.493 4.553 10.2a1.418 1.418 0 0 1-1.382 1.16zm87.892 6.33a1.397 1.397 0 0 1-1.382-1.216c-.028-.265-.797-6.624 5.153-9.907a1.4 1.4 0 0 1 1.9.544 1.403 1.403 0 0 1-.545 1.901c-4.26 2.362-3.757 6.917-3.743 7.113a1.38 1.38 0 0 1-1.215 1.551c-.042.014-.112.014-.168.014z"/><path fill="#B1E0EF" d="M165.743 112.784c-9.414 0-17.068-7.658-17.068-17.077 0-9.418 7.654-17.076 17.068-17.076 9.413 0 17.067 7.658 17.067 17.076 0 9.419-7.654 17.077-17.067 17.077zm0-31.344c-7.864 0-14.274 6.4-14.274 14.281 0 7.868 6.396 14.282 14.274 14.282 7.877 0 14.274-6.4 14.274-14.282 0-7.88-6.411-14.28-14.274-14.28zm-36.747 31.344c-9.414 0-17.067-7.658-17.067-17.077 0-9.418 7.653-17.076 17.067-17.076 9.414 0 17.067 7.658 17.067 17.076 0 9.419-7.653 17.077-17.067 17.077zm0-31.344c-7.863 0-14.274 6.4-14.274 14.281 0 7.868 6.397 14.282 14.274 14.282 7.877 0 14.274-6.4 14.274-14.282 0-7.88-6.411-14.28-14.274-14.28z"/><path fill="#B1E0EF" d="M149.066 98.656h-3.198a1.402 1.402 0 0 1-1.397-1.398c0-.768.629-1.397 1.397-1.397h3.198c.768 0 1.397.629 1.397 1.397 0 .783-.629 1.398-1.397 1.398z"/><path fill="#483D89" d="M166.343 96.811c-.195 2.879-1.843 5.115-3.673 4.975-1.83-.126-3.157-2.571-2.947-5.45.195-2.878 1.844-5.114 3.673-4.974 1.83.14 3.143 2.57 2.947 5.45zm-29.386-.363c0 2.879-1.494 5.226-3.324 5.226-1.829 0-3.324-2.333-3.324-5.226 0-2.879 1.495-5.226 3.324-5.226 1.83 0 3.324 2.347 3.324 5.226zm14.721 39.616a1.39 1.39 0 0 1-.293-2.753c8.296-1.746 12.36-7.881 12.402-7.937a1.398 1.398 0 0 1 1.927-.419c.643.419.838 1.285.419 1.928-.181.294-4.692 7.169-14.176 9.153a1.71 1.71 0 0 1-.279.028zm-5.237-16.783c-.098 0-.21-.014-.308-.041a7.024 7.024 0 0 1-4.525-3.396 6.975 6.975 0 0 1-.517-5.632l3.576-10.578a1.417 1.417 0 0 1 1.774-.88 1.419 1.419 0 0 1 .88 1.774l-3.576 10.579c-.377 1.132-.279 2.333.307 3.367a4.186 4.186 0 0 0 2.71 2.041 1.396 1.396 0 0 1 1.047 1.676 1.41 1.41 0 0 1-1.368 1.09z"/><path fill="#B1E0EF" d="M170.896 39.98c-.153 0-.307-.028-.461-.084-21.885-7.784-37.095-1.118-37.249-1.049a1.39 1.39 0 0 1-1.843-.698c-.321-.699 0-1.523.698-1.845.657-.293 16.397-7.196 39.33.965a1.413 1.413 0 0 1 .852 1.788 1.43 1.43 0 0 1-1.327.922z"/><path fill="#FDFCFC" d="M73.325 171.32 65.783 178l.433-9.321a14.99 14.99 0 0 1 4.106-9.642c2.207-2.319 4.204-2.557 8.506-1.201l22.026 7.769-3.003 3.829a9.897 9.897 0 0 1-8.995 3.731l-15.53-1.845z"/><path fill="#483D89" d="M65.783 179.397a1.31 1.31 0 0 1-.6-.139 1.405 1.405 0 0 1-.797-1.328l.433-9.321a16.337 16.337 0 0 1 4.498-10.536c2.89-3.032 5.712-2.893 9.93-1.579l22.067 7.783c.419.154.755.49.88.923.126.433.042.894-.237 1.257l-3.003 3.829c-2.43 3.102-6.355 4.723-10.265 4.262L73.8 172.76l-7.081 6.26c-.265.265-.6.377-.936.377zm8.841-20.989c-1.425 0-2.29.559-3.282 1.607a13.656 13.656 0 0 0-3.73 8.734l-.279 6.023 5.07-4.486a1.353 1.353 0 0 1 1.09-.335l15.517 1.858a8.594 8.594 0 0 0 7.737-3.214l1.802-2.305-20.182-7.127c-1.62-.517-2.807-.755-3.743-.755z"/><path fill="#FDFCFC" d="m64.344 182.08-8.966 7.937.517-11.067a17.75 17.75 0 0 1 4.888-11.445 8.219 8.219 0 0 1 10.098-1.425l28.408 16.056-5.628 5.534a10.337 10.337 0 0 1-11.034 2.25l-18.282-7.84z"/><path fill="#483D89" d="M86.384 192.016c-1.439 0-2.891-.266-4.288-.811l-17.486-7.49-8.296 7.351a1.36 1.36 0 0 1-1.523.209 1.402 1.402 0 0 1-.796-1.327l.517-11.068a19.151 19.151 0 0 1 5.266-12.339 9.582 9.582 0 0 1 11.801-1.677l28.395 16.042c.377.224.642.601.698 1.035.056.433-.098.866-.405 1.173l-5.643 5.534a11.764 11.764 0 0 1-8.24 3.368zm-22.04-11.333c.182 0 .378.042.545.112l18.269 7.811c3.24 1.272 6.997.517 9.511-1.956l4.302-4.22-26.788-15.134c-2.766-1.607-6.202-1.118-8.394 1.174a16.332 16.332 0 0 0-4.498 10.536l-.363 7.77 6.495-5.744a1.43 1.43 0 0 1 .922-.349z"/><path fill="#FDFCFC" d="m52.556 192.519-8.966 7.937.517-11.067a17.748 17.748 0 0 1 4.888-11.445 8.216 8.216 0 0 1 10.098-1.425L85 191.289l-5.629 5.534a10.339 10.339 0 0 1-11.033 2.25l-15.783-6.554z"/><path fill="#483D89" d="M43.604 201.853a1.31 1.31 0 0 1-.6-.139 1.405 1.405 0 0 1-.797-1.328l.517-11.067a19.149 19.149 0 0 1 5.266-12.339 9.58 9.58 0 0 1 11.815-1.677L85.7 190.059c.377.224.642.601.698 1.034.056.434-.098.867-.405 1.174l-5.629 5.534a11.801 11.801 0 0 1-12.528 2.557l-14.972-6.204-8.31 7.35c-.294.224-.615.349-.95.349zm8.953-10.732c.181 0 .363.042.53.112l15.755 6.526c3.254 1.286 7.011.517 9.525-1.956l4.316-4.234L58.38 177.72a6.82 6.82 0 0 0-8.394 1.174 16.338 16.338 0 0 0-4.498 10.537l-.363 7.769 6.495-5.743c.28-.21.6-.336.936-.336z"/><path fill="#FDFCFC" d="m41.355 202.426-8.966 7.938.516-11.068a17.746 17.746 0 0 1 4.889-11.444 8.218 8.218 0 0 1 10.098-1.426l22.262 12.996-5.628 5.534a10.337 10.337 0 0 1-11.034 2.249l-12.137-4.779z"/><path fill="#483D89" d="M32.403 211.761c-.21 0-.405-.042-.6-.14a1.402 1.402 0 0 1-.797-1.327l.517-11.068a19.151 19.151 0 0 1 5.265-12.339 9.582 9.582 0 0 1 11.802-1.677l22.263 12.996c.377.224.629.601.684 1.034a1.41 1.41 0 0 1-.405 1.174l-5.628 5.534a11.732 11.732 0 0 1-12.528 2.543l-11.327-4.444-8.325 7.365a1.36 1.36 0 0 1-.921.349zm11.327-25.069a6.778 6.778 0 0 0-4.93 2.124 16.333 16.333 0 0 0-4.498 10.536l-.363 7.77 6.495-5.744c.39-.349.95-.447 1.438-.251l12.123 4.765c3.282 1.285 7.04.531 9.553-1.943l4.33-4.248-20.684-12.073a6.9 6.9 0 0 0-3.464-.936z"/><path fill="#FDFCFC" d="M68.563 283a1.59 1.59 0 0 1-.56-.112 1.388 1.388 0 0 1-.725-1.83l11.76-27.264a1.387 1.387 0 0 1 1.83-.726 1.388 1.388 0 0 1 .725 1.83l-11.76 27.264a1.384 1.384 0 0 1-1.27.838z"/></svg>