<svg xmlns="http://www.w3.org/2000/svg" width="590" height="448" fill="none"><path fill="#483D89" d="M73.04 410.838c40.339 0 73.04-32.695 73.04-73.026 0-40.332-32.701-73.027-73.04-73.027C32.701 264.785 0 297.48 0 337.812c0 40.331 32.701 73.026 73.04 73.026z"/><path fill="#483D89" d="M279.185 331.47c6.462-39.811-20.579-77.322-60.397-83.783-39.819-6.462-77.337 20.574-83.799 60.385-6.463 39.811 20.578 77.322 60.397 83.783 39.818 6.461 77.336-20.574 83.799-60.385zM86.774 266.371c5.305-22.463-8.608-44.973-31.075-50.277-22.467-5.304-44.981 8.606-50.286 31.069-5.306 22.463 8.607 44.973 31.074 50.277 22.468 5.304 44.982-8.606 50.287-31.069z"/><path fill="#483D89" d="M119.066 64.579c52.595-5.193 99.454 33.229 104.648 85.814l11.298 114.315c1.705 17.186-1.299 33.752-7.888 48.458-25.735 18.504-57.265 29.451-91.392 29.451-28.972 0-56.084-7.886-79.358-21.604a95.56 95.56 0 0 1-11.84-37.511l-11.3-114.315c-5.193-52.566 33.236-99.416 85.831-104.609z"/><path fill="#FFA6DE" d="m102.884 293.345 64.165-26.525c20.038-8.273 43.138-1.996 56.219 15.287l122.147 161.379H123.736l-20.852-150.141z"/><path fill="#B1E0EF" d="M336.869 181.665c50.175 0 90.85-40.667 90.85-90.833C427.719 40.667 387.044 0 336.869 0s-90.85 40.667-90.85 90.832c0 50.166 40.675 90.833 90.85 90.833z"/><path fill="#B1E0EF" d="m245.573 182.11 45.968-12.303 45.967-12.323-33.642-33.636-33.662-33.655-12.325 45.959-12.306 45.958z"/><path fill="#FDFCFC" d="m444.385 218.943 36.278-9.707.232-.058c27.364 15.636 62.847 11.799 86.199-11.567 27.983-27.979 27.983-73.356 0-101.334-27.984-27.978-73.37-27.978-101.353 0-23.372 23.367-27.209 58.824-11.57 86.182l-.058.232-9.728 36.252z"/><path fill="#483D89" d="M444.385 220.881a1.952 1.952 0 0 1-1.376-.562 1.968 1.968 0 0 1-.504-1.88l9.573-35.748c-15.929-28.598-10.949-64.617 12.287-87.829 28.7-28.695 75.404-28.695 104.105 0 28.7 28.695 28.7 75.39 0 104.086-23.217 23.211-59.223 28.21-87.846 12.284l-35.755 9.571c-.135.058-.31.078-.484.078zm36.53-13.66c.329 0 .658.077.968.252 27.209 15.539 61.704 10.908 83.874-11.257 27.189-27.184 27.189-71.418 0-98.602-27.189-27.184-71.432-27.184-98.621 0-22.17 22.165-26.802 56.654-11.259 83.857.252.445.329.969.193 1.472l-8.914 33.268 33.274-8.913c.136-.058.31-.077.485-.077zm-122.477 41.831c29.936 0 54.204-24.263 54.204-54.193 0-29.93-24.268-54.193-54.204-54.193s-54.204 24.263-54.204 54.193c0 29.93 24.268 54.193 54.204 54.193z"/><path fill="#483D89" d="m303.963 249.324 7.345-27.436 7.364-27.416 20.077 20.073 20.076 20.073-27.421 7.362-27.441 7.344zm53.254-144.522c-5.949 0-11.957-4.243-16.395-9.494-6.86 4.883-14.399 6.006-21.259 3.12-3.934-1.647-7.015-4.282-9.282-7.305a18.59 18.59 0 0 1-2.365 1.705c-8.313 4.96-11.647.562-11.782.388l3.139-2.267-1.569 1.143 1.511-1.221c.543.6 2.674 1.066 6.725-1.356.775-.465 1.531-1.046 2.267-1.705-1.453-2.81-2.306-5.755-2.539-8.429-.368-4.262.776-7.595 3.179-9.126 1.414-.91 3.856-1.569 7.441.446 1.628.91 2.539 2.635 2.578 4.863.038 3.76-2.423 8.855-5.795 12.808 1.899 2.693 4.554 5.057 8.023 6.51 7.074 2.984 13.333.252 17.403-2.635-.194-.29-.388-.582-.562-.872-4.651-7.285-5.736-14.241-2.907-18.6 2.364-3.663 5.736-5.251 9.244-4.36 4.108 1.046 7.364 5.367 7.732 10.25.291 3.739-3.256 9.707-8.139 14.221 4.031 4.767 9.554 8.68 14.515 8.002 5.329-.736 8.682-2.848 10.174-6.413-7.519-3.275-8.353-7.847-8.372-9.591-.039-3.507 2.558-6.549 5.911-6.917.794-.078 2.015.039 3.314 1.143 2.073 1.744 3.662 5.522 3.856 9.165a20.123 20.123 0 0 1-.116 3.778c2.771.833 6.259 1.472 10.581 1.86l-.33 3.856c-4.573-.388-8.236-1.085-11.201-1.957-1.957 4.882-6.492 7.982-13.275 8.932-.6.019-1.143.058-1.705.058zm9.244-23.018c-1.182.136-2.461 1.317-2.442 3.022.02 1.86 1.57 4.011 5.349 5.794.039-.678.039-1.395 0-2.15-.213-3.644-2.171-6.589-2.907-6.666zm-24.088-9.785c-1.861 0-3.237 1.492-4.109 2.83-1.918 2.964-.756 8.621 2.926 14.415.097.154.214.329.311.484 4.302-4.03 6.763-8.777 6.608-10.831-.233-3.178-2.364-6.161-4.826-6.781a3.786 3.786 0 0 0-.91-.117zm-30.465 1.24c-.348 0-.678.078-.949.252-1.085.698-1.647 2.868-1.415 5.522.155 1.802.64 3.76 1.473 5.677 2.384-3.139 3.992-6.82 3.953-9.106-.019-1.202-.445-1.453-.6-1.53-.582-.35-1.57-.815-2.462-.815zM449.495 19.63l-19.324 11.595 1.995 3.323 19.324-11.596-1.995-3.322zm12.068 28.733-21.256 5.798 1.02 3.738 21.256-5.798-1.02-3.738z"/><path fill="#FDFCFC" d="m362.624 206.891-14.67 8.468c-3.333 1.918-7.5-.485-7.5-4.321v-33.869c0-3.836 4.167-6.238 7.5-4.32l14.67 8.467 14.67 8.467c3.333 1.918 3.333 6.723 0 8.641l-14.67 8.467z"/><path fill="#483D89" d="M504.654 171.26a1.944 1.944 0 0 1-1.938-1.938v-44.447c0-1.066.872-1.938 1.938-1.938 1.066 0 1.938.872 1.938 1.938v44.467c0 1.046-.872 1.918-1.938 1.918zm23.197 0a1.944 1.944 0 0 1-1.938-1.938v-44.447c0-1.066.872-1.938 1.938-1.938 1.066 0 1.938.872 1.938 1.938v44.467c0 1.046-.872 1.918-1.938 1.918z"/><path fill="#483D89" d="M538.49 137.43h-44.475a1.943 1.943 0 0 1-1.938-1.937c0-1.066.872-1.938 1.938-1.938h44.475c1.066 0 1.938.872 1.938 1.938a1.93 1.93 0 0 1-1.938 1.937zm0 23.212h-44.475a1.943 1.943 0 0 1-1.938-1.937c0-1.066.872-1.938 1.938-1.938h44.475c1.066 0 1.938.872 1.938 1.938a1.943 1.943 0 0 1-1.938 1.937z"/><path fill="#FDFCFC" d="M69.397 189.628c2.132-10.715 10.833-18.426 21.084-19.841-8.856-24.684-1.027-53.243 21.104-69.654 27.112-20.112 66.452-13.195 86.432 14.008l26.181 35.612c19.98 27.184 14.147 65.412-13.042 85.388-13.333 9.804-29.321 13.369-44.514 11.276l7.926 31.544c4.767 18.949-6.744 38.169-25.697 42.916-20.29 5.096-40.89-7.227-45.987-27.513l-19.108-76.068c-10.445-4.631-16.685-15.985-14.38-27.668z"/><path fill="#483D89" d="M139.646 323.958c-17.828 0-34.107-12.071-38.642-30.129l-18.875-75.177c-10.872-5.27-16.996-17.476-14.631-29.392 2.073-10.463 10.154-18.639 20.425-20.965-8.061-25.381.989-53.767 22.5-69.712 13.177-9.766 29.63-13.757 46.355-11.238 17.092 2.577 32.692 11.935 42.789 25.653l26.181 35.612c20.581 27.998 14.535 67.504-13.468 88.081-12.519 9.184-27.713 13.388-43.1 11.955l7.248 28.83c2.423 9.669.95 19.705-4.166 28.25-5.116 8.544-13.256 14.59-22.926 17.031a39.715 39.715 0 0 1-9.69 1.201zm-68.35-133.943c-2.074 10.463 3.508 21.197 13.275 25.499.542.232.95.716 1.104 1.298l19.108 76.068c4.826 19.22 24.399 30.942 43.623 26.118 8.662-2.17 15.968-7.595 20.561-15.249 4.593-7.672 5.911-16.662 3.74-25.323l-7.926-31.544c-.155-.62 0-1.278.446-1.763a1.889 1.889 0 0 1 1.705-.62c15.349 2.112 30.639-1.763 43.1-10.908 26.278-19.318 31.937-56.402 12.635-82.675l-26.201-35.632c-9.496-12.904-24.166-21.7-40.25-24.122-15.697-2.364-31.143 1.375-43.487 10.521-20.755 15.403-29.166 43.129-20.445 67.446a1.947 1.947 0 0 1-1.57 2.577c-9.69 1.336-17.5 8.699-19.418 18.309zm29.96-106.991a1.86 1.86 0 0 1-1.162-.388c-11.143-8.35-8.605-23.599-8.488-24.258.193-1.046 1.201-1.763 2.248-1.57a1.937 1.937 0 0 1 1.57 2.248c-.02.136-2.23 13.563 6.995 20.48.853.64 1.027 1.86.388 2.713-.369.523-.95.775-1.551.775z"/><path fill="#483D89" d="M99.784 84.167c-.911 0-1.706-.64-1.9-1.55-2.267-11.354-15.329-15.093-15.464-15.132a1.96 1.96 0 0 1-1.357-2.383 1.96 1.96 0 0 1 2.384-1.357c.64.175 15.484 4.457 18.236 18.116a1.941 1.941 0 0 1-1.512 2.287c-.136.02-.252.02-.388.02zm69.455 164.052c-.097 0-.175 0-.272-.019-14.224-1.976-31.181-15.094-31.898-15.655a1.921 1.921 0 0 1-.329-2.713 1.905 1.905 0 0 1 2.713-.329c.174.135 16.86 13.039 30.057 14.88a1.928 1.928 0 0 1 1.647 2.189c-.135.95-.969 1.647-1.918 1.647zm36.995-86.918c-.233 0-.465-.039-.679-.116-.213-.078-22.092-8.506-19.301-27.048 2.597-17.283 13.856-21.914 22.848-22.747a1.936 1.936 0 0 1 2.112 1.743 1.935 1.935 0 0 1-1.744 2.112c-11.066 1.027-17.577 7.576-19.36 19.453-2.325 15.481 16.647 22.767 16.841 22.844 1.007.368 1.511 1.492 1.143 2.5-.349.794-1.085 1.259-1.86 1.259zm-58.022-7.537a1.64 1.64 0 0 1-.523-.078 1.958 1.958 0 0 1-1.356-2.383c3.081-11.16 8.74-15.694 12.926-17.515 4.689-2.035 8.643-1.279 8.817-1.24a1.941 1.941 0 0 1 1.512 2.286 1.922 1.922 0 0 1-2.268 1.511c-.484-.097-12.247-2.092-17.247 16.004-.213.853-1.008 1.415-1.861 1.415zm39.747 48.206c-5.891 0-13.139-2.034-20.135-9.436a1.93 1.93 0 0 1 .077-2.732 1.932 1.932 0 0 1 2.733.078c13.333 14.105 27.111 6.045 27.693 5.696.911-.542 2.112-.252 2.655.659a1.925 1.925 0 0 1-.64 2.654c-.077.039-5.213 3.081-12.383 3.081zM78.893 189.686a2 2 0 0 1-.988-.271 1.928 1.928 0 0 1-.66-2.655c5.95-9.92 21.628-3.487 22.287-3.197a1.922 1.922 0 0 1 1.027 2.539 1.946 1.946 0 0 1-2.539 1.046c-.135-.058-13.216-5.425-17.46 1.627a1.972 1.972 0 0 1-1.667.911z"/><path fill="#483D89" d="M111.663 65.625c8.546 4.069 16.317 10.23 22.48 18.387 20.6 27.261 15.639 66.4-11.085 87.403l-5.717 4.495-18.623-3.778c-13.508-2.732-26.647 6.219-29.321 20.015a25.93 25.93 0 0 0 2.228 16.449 59.9 59.9 0 0 1-34.514 2.829l-3.876-40.126c-4.941-51.093 29.69-96.839 78.428-105.674zM93.408 222.508c-5.795 0-11.22-2.247-15.31-6.336a1.931 1.931 0 1 1 2.733-2.732 17.697 17.697 0 0 0 12.577 5.212c4.748 0 9.224-1.84 12.577-5.212a1.93 1.93 0 0 1 2.732 0 1.929 1.929 0 0 1 0 2.732c-4.069 4.089-9.515 6.336-15.31 6.336z"/><path fill="#FFA6DE" d="M79.804 220.571c0 5.231 4.244 9.455 9.457 9.455 5.232 0 9.457-4.243 9.457-9.455 0-5.232-4.244-9.456-9.457-9.456-5.233-.019-9.457 4.224-9.457 9.456z"/><path fill="#483D89" d="M163.251 161.068c-.233 0-.466-.038-.698-.135-.988-.388-1.492-1.512-1.105-2.5 1.686-4.379 7.171-12.245 15.911-10.656a1.96 1.96 0 0 1 1.569 2.247 1.936 1.936 0 0 1-2.248 1.57c-7.751-1.415-11.433 7.847-11.588 8.234-.33.756-1.066 1.24-1.841 1.24zm27.499-14.609c-.233 0-.466-.038-.698-.135-.988-.388-1.492-1.512-1.105-2.5 1.686-4.379 7.171-12.245 15.911-10.656a1.96 1.96 0 0 1 1.569 2.247c-.193 1.047-1.201 1.763-2.248 1.57-7.751-1.415-11.433 7.847-11.588 8.234a2.009 2.009 0 0 1-1.841 1.24z"/><path fill="#FFA6DE" d="m32.654 443.486 29.457-115.963c6.414-25.207 29.243-42.761 55.269-42.451a56.332 56.332 0 0 1 46.065 24.839l90.035 133.575H32.654z"/><path fill="#483D89" d="M238.016 444.125a1.974 1.974 0 0 1-1.686-.969l-59.281-101.799a1.933 1.933 0 0 1 .697-2.654 1.934 1.934 0 0 1 2.655.697l59.281 101.799c.543.93.233 2.112-.697 2.655-.31.193-.64.271-.969.271z"/><path fill="#FDFCFC" d="m320.493 444.764-7.771-54.329-6.065-37.239a65.03 65.03 0 0 1 10.988-47.877l28.003-39.836a10.585 10.585 0 0 1 11.046-4.224c6.472 1.492 9.98 8.487 7.345 14.551l-13.605 31.175 46.549 7.402 50.541-26.564c4.671-2.461 10.426-1.163 13.624 3.042a5.728 5.728 0 0 1-1.299 8.157l-89.028 62.06 27.034 84.98-77.362-1.298z"/><path fill="#483D89" d="M397.836 448a1.924 1.924 0 0 1-1.841-1.356l-27.034-84.981a1.93 1.93 0 0 1 .736-2.17l89.028-62.06a3.745 3.745 0 0 0 1.57-2.519 3.842 3.842 0 0 0-.717-2.887 8.817 8.817 0 0 0-11.162-2.499l-50.541 26.583a1.857 1.857 0 0 1-1.202.194l-46.549-7.402a1.948 1.948 0 0 1-1.395-.988 1.953 1.953 0 0 1-.078-1.705l13.605-31.175a8.622 8.622 0 0 0-.214-7.343 8.632 8.632 0 0 0-5.794-4.534c-3.449-.795-6.996.562-9.011 3.449l-28.003 39.836c-9.554 13.582-13.333 30.07-10.659 46.462l6.066 37.24 7.771 54.367a1.929 1.929 0 0 1-1.647 2.19 1.939 1.939 0 0 1-2.19-1.647l-7.771-54.329-6.066-37.201c-2.829-17.38 1.182-34.895 11.318-49.31l28.003-39.836a12.497 12.497 0 0 1 13.061-4.999 12.517 12.517 0 0 1 8.391 6.568 12.47 12.47 0 0 1 .291 10.637l-12.596 28.889 43.428 6.917 49.96-26.273c5.542-2.907 12.286-1.415 16.065 3.584 1.279 1.686 1.783 3.74 1.454 5.832-.33 2.073-1.454 3.895-3.198 5.096l-87.865 61.246 26.588 83.605a1.934 1.934 0 0 1-1.26 2.441 2.267 2.267 0 0 1-.542.078z"/><path fill="#FDFCFC" d="m421.207 313.05 16.473-37.937c1.531-3.507-1.57-7.266-5.31-6.453a17.353 17.353 0 0 0-11.318 8.254l-21.472 34.624 21.627 1.512z"/><path fill="#483D89" d="M421.207 314.987c-.252 0-.523-.058-.775-.155a1.94 1.94 0 0 1-1.008-2.557l16.473-37.937a2.685 2.685 0 0 0-.407-2.849c-.679-.813-1.686-1.162-2.713-.93a15.542 15.542 0 0 0-10.058 7.324l-21.492 34.663a1.943 1.943 0 0 1-2.674.62 1.943 1.943 0 0 1-.62-2.674l21.472-34.624c2.694-4.631 7.267-7.963 12.538-9.126a6.568 6.568 0 0 1 6.531 2.267 6.605 6.605 0 0 1 .969 6.84l-16.472 37.937a1.878 1.878 0 0 1-1.764 1.201z"/><path fill="#FDFCFC" d="m352.159 341.047 29.282-19.879 13.178-36.775a15.077 15.077 0 0 1 11.356-9.726c3.392-.659 6.357 2.344 5.659 5.716l-9.631 46.966-49.844 13.698z"/><path fill="#483D89" d="M352.159 342.985c-.62 0-1.221-.291-1.608-.853a1.935 1.935 0 0 1 .523-2.693l28.759-19.511 12.964-36.174c2.016-5.638 6.919-9.843 12.81-10.986a6.777 6.777 0 0 1 6.105 1.88 6.791 6.791 0 0 1 1.821 6.122l-9.631 46.966a1.942 1.942 0 0 1-2.287 1.512 1.942 1.942 0 0 1-1.512-2.287l9.632-46.966c.194-.969-.078-1.918-.775-2.616-.698-.697-1.648-1.007-2.616-.813a13.185 13.185 0 0 0-9.884 8.486l-13.178 36.775a1.87 1.87 0 0 1-.736.949l-29.282 19.88a2.098 2.098 0 0 1-1.105.329z"/></svg>