<svg xmlns="http://www.w3.org/2000/svg" width="591" height="462" fill="none"><g clip-path="url(#a)"><path fill="#483D89" d="M38.12 87.715c1.583-6.703 5.68-12.391 11.544-15.987 4.605-2.844 9.88-4.083 15.175-3.717-.426-1.178-.852-2.356-1.116-3.596-1.38-6.744-.06-13.63 3.713-19.38 6.877-10.481 20.227-14.483 31.71-9.506.06.02.101.06.162.081.02-7.861 3.51-15.621 10.286-20.66 7.364-5.484 17.163-6.621 25.603-2.985 2.8 1.219 5.335 2.945 7.547 5.058.426-1.178.852-2.357 1.461-3.474 3.266-6.053 8.703-10.482 15.276-12.473a25.828 25.828 0 0 1 17.59 1.036c5.68 2.458 10.123 6.867 12.801 12.331 5.052-6.054 12.761-9.791 21.221-9.283 3.023.182 5.944.873 8.703 2.072 8.562 3.697 14.344 11.761 15.358 20.862 6.817-3.92 15.277-4.774 23.027-1.422 11.685 5.058 17.65 17.775 14.749 29.74 4.869-.874 9.981-.386 14.688 1.645a25.417 25.417 0 0 1 7.466 4.936c5.011 4.733 7.872 11.132 8.074 18.019.163 5.403-1.399 10.563-4.321 14.971 1.948.346 3.875.894 5.742 1.686a25.878 25.878 0 0 1 12.801 12.107c3.084 6.155 3.591 13.143 1.42 19.685a25.53 25.53 0 0 1-9.17 12.574c6.979 4.042 11.767 11.213 12.7 19.318.791 6.846-1.116 13.59-5.376 18.994-3.368 4.246-7.872 7.211-12.964 8.694 5.092 6.074 7.324 14.322 5.376 22.488-1.582 6.704-5.68 12.391-11.543 16.007-4.606 2.844-9.88 4.083-15.175 3.718 2.678 7.414 2.049 15.926-2.597 22.995-6.878 10.482-20.227 14.484-31.71 9.507-.061-.02-.101-.061-.162-.081-.02 7.861-3.51 15.621-10.286 20.659-7.364 5.485-17.184 6.622-25.603 2.986-2.8-1.219-5.336-2.945-7.547-5.058-.426 1.178-.852 2.356-1.461 3.474-3.266 6.053-8.703 10.482-15.297 12.452a25.824 25.824 0 0 1-17.589-1.036c-5.681-2.458-10.124-6.866-12.802-12.33-5.051 6.053-12.761 9.791-21.22 9.283a25.622 25.622 0 0 1-8.704-2.072c-8.561-3.697-14.343-11.762-15.358-20.862-6.816 3.92-15.276 4.773-23.026 1.422-11.686-5.059-17.65-17.775-14.75-29.74-4.868.874-9.98.386-14.688-1.645a25.413 25.413 0 0 1-7.465-4.937c-4.991-4.733-7.872-11.132-8.055-18.018-.162-5.404 1.4-10.563 4.322-14.972a26.448 26.448 0 0 1-5.742-1.686 25.876 25.876 0 0 1-12.801-12.107c-5.701-11.376-2.13-24.945 7.77-32.258-6.98-4.043-11.767-11.214-12.72-19.339-.792-6.846 1.115-13.59 5.376-18.994 3.367-4.245 7.871-7.211 12.984-8.694-5.092-6.054-7.324-14.301-5.397-22.488z"/><path fill="#FDFCFC" d="M7.202 381.8c41.691-91.514 89.996-196.212 89.996-196.212 2.273.101 4.525.264 6.797.487a121.88 121.88 0 0 1 55.872 20.152l9.961-40.506c-2.231.792-4.565 1.117-6.918.812-11.036-1.401-18.34-15.052-15.987-30.227 2.171-14.016 12.315-24.397 22.601-23.178 7.445.874 13.187 7.354 15.479 16.089 2.252-27.221 19.294-48.835 41.489-50.48 25.339-1.87 47.818 22.975 50.232 55.497 2.394 32.523-16.21 60.394-41.549 62.263-2.658.203-5.255.081-7.831-.285l-9.962 40.465 25.015 12.108 10.996 6.094a74.902 74.902 0 0 1 5.965 3.697c-.426.569 41.265 105.429 41.265 105.429l125.986 5.891 61.269-40.14a23.92 23.92 0 0 1 22.682-1.91l56.196 24.519 12.072 43.249c1.034 3.738-1.684 7.455-5.559 7.577l-.873.02a25.924 25.924 0 0 1-20.51-9.04l-14.466 29.496c-2.008 4.104-7.1 5.648-11.036 3.332l-.771-.447c-2.15 3.941-7.263 5.119-10.915 2.499l-2.556-1.829-1.887.102c-2.11.122-4.118-.081-5.883-.61-4.849-1.482-6.31-7.699-2.881-11.436l3.692-4.023-2.921-1.564-29.113 14.89c-.71.549-1.44 1.057-2.171 1.565-18.603 12.635-43.943 8.186-58.266-9.162l-2.779-3.372-140.33 13.041-56.075-83.937-17.468 58.748-115.842 53.263C33.9 476.016-13.958 428.238 7.202 381.8z"/><path fill="#483D89" d="M183.989 124.26c.426.183.852.386 1.278.549 24.244 9.547 53.844-7.76 66.077-38.658.142-.345.264-.69.385-1.056-7.709-5.322-16.575-8.105-25.805-7.435-21.424 1.564-38.141 21.167-41.935 46.6zm42.056 73.658a2.032 2.032 0 0 0 .507-4.001c-12.781-3.291-23.98-13.611-30.695-28.298a2.034 2.034 0 0 0-2.698-.995 2.038 2.038 0 0 0-.994 2.702c7.242 15.804 19.395 26.936 33.373 30.552.182.02.345.04.507.04zm39.825-74.044c-.994 1.3 1.136 4.591 4.767 7.354 3.612 2.742 7.365 3.92 8.359 2.6.994-1.3-1.136-4.591-4.768-7.354-3.631-2.742-7.364-3.9-8.358-2.6z"/><path fill="#483D89" d="M225.214 125.357c.182 2.032 4.869 3.291 10.488 2.804 5.62-.488 10.022-2.519 9.86-4.551-.183-2.031-4.869-3.291-10.489-2.803-5.619.488-10.042 2.519-9.859 4.55zm29.335 26.652c.406 0 .812-.122 1.157-.365a8.78 8.78 0 0 0 3.692-7.801l-1.034-13.306c-.082-1.117-1.076-1.95-2.192-1.868-1.115.081-1.947 1.056-1.866 2.193l1.035 13.306a4.634 4.634 0 0 1-1.968 4.164 2.047 2.047 0 0 0-.507 2.824 2.036 2.036 0 0 0 1.683.853zm-6.634 9.344c1.441 0 3.124-.325 5.011-1.137a2.037 2.037 0 0 0 1.075-2.661 2.04 2.04 0 0 0-2.657-1.077c-4.829 2.072-6.431-.366-6.695-.874-.528-.975-1.745-1.381-2.719-.873-.994.508-1.4 1.686-.913 2.681.771 1.646 3.064 3.941 6.898 3.941zm-73.238-19.623c.933 0 1.765-.65 1.988-1.605 1.278-5.81.609-10.685-1.947-14.545-3.693-5.545-9.982-6.723-10.246-6.784-1.116-.204-2.15.528-2.353 1.645a2.026 2.026 0 0 0 1.623 2.356c.081.021 4.93.996 7.628 5.079 1.907 2.884 2.353 6.724 1.339 11.376a2.023 2.023 0 0 0 1.542 2.417c.122.061.264.061.426.061zm92.917.609c0 2.397 1.258 4.348 2.8 4.348 1.542 0 2.8-1.951 2.8-4.348s-1.258-4.347-2.8-4.347c-1.542 0-2.8 1.95-2.8 4.347zm-32.541-4.57c0 2.397 1.258 4.347 2.8 4.347 1.541 0 2.799-1.95 2.799-4.347 0-2.397-1.258-4.347-2.799-4.347-1.542 0-2.8 1.95-2.8 4.347z"/><path fill="#FDFCFC" d="m575.758 406.655-36.214-36.646-17.995-9.649 9.414 18.14 36.213 36.647 17.995 9.649-9.413-18.141z"/><path fill="#483D89" d="m526.378 365.255 6.248 12.026 35.768 36.22 11.949 6.399-6.249-12.026-35.767-36.22-11.949-6.399zm-9.657-9.771 24.061 12.879 36.64 37.094L590 429.671l-24.061-12.879-36.64-37.093-12.578-24.215z"/><path fill="#483D89" d="m432.518 281.819 11.525-11.412L577.186 405.22l-11.526 11.412-133.142-134.813z"/><path fill="#FDFCFC" d="M482.502 362.238h57.15c3.956 0 7.75 1.605 10.489 4.449 5.011 5.2 5.478 13.285 1.116 19.034l-1.035 1.361a14.619 14.619 0 0 1-11.604 5.749h-30.412a47.779 47.779 0 0 0-35.442 15.743 38.43 38.43 0 0 1-28.849 12.655l-6.087-.06 44.674-58.931z"/><path fill="#483D89" d="M444.28 423.261a40.4 40.4 0 0 0 29.985-13.326 45.818 45.818 0 0 1 33.941-15.073h30.411c5.153 0 10.083-2.458 13.228-6.541l1.035-1.361c5.031-6.602 4.483-15.703-1.258-21.675a16.692 16.692 0 0 0-11.95-5.078h-57.15a2.036 2.036 0 0 0-2.029 2.031c0 1.117.913 2.031 2.029 2.031h57.13c3.388 0 6.675 1.402 9.048 3.84 4.362 4.509 4.748 11.396.954 16.373l-1.035 1.361c-2.353 3.108-6.106 4.956-9.981 4.956h-30.412a49.889 49.889 0 0 0-36.964 16.414c-6.979 7.719-17.001 12.087-27.327 11.985l-6.086-.061h-.021a2.03 2.03 0 0 0-2.028 2.011c-.021 1.118.892 2.032 2.008 2.052l6.086.061h.386z"/><path fill="#483D89" d="m523.828 427.507 3.611-1.869a33.287 33.287 0 0 1-2.82-23.097l2.313-9.67-3.936-.954-2.313 9.669a37.288 37.288 0 0 0 3.145 25.921z"/><path fill="#483D89" d="M514.17 427.405c.731-8.572 1.765-14.971 8.684-19.115l-2.09-3.474c-8.521 5.119-9.86 13.123-10.631 22.264l4.037.325z"/><path fill="#483D89" d="M506.34 412.942c2.313-1.605 7.445-.894 9.068-.508l.913-3.961c-.811-.183-8.074-1.768-12.274 1.117l2.293 3.352z"/><path fill="#B1E0EF" d="M7.202 381.8c41.691-91.514 89.996-196.212 89.996-196.212 2.272.101 4.524.264 6.796.487 9.88.996 19.679 3.21 29.174 6.623 6.695 52.389 31.791 91.352 61.735 91.352 17.874 0 34.003-13.895 45.546-36.2l1.948.935 10.996 6.094a74.417 74.417 0 0 1 5.964 3.697c-.426.569 41.265 105.429 41.265 105.429l12.863.61v57.955l-43.862 4.063-56.075-83.937-17.468 58.748-115.842 53.263C33.9 476.016-13.958 428.238 7.202 381.8z"/><path fill="#483D89" d="M56.805 462c8.095 0 16.332-1.788 24.265-5.444l115.842-53.264a2.045 2.045 0 0 0 1.096-1.259l16.23-54.604 53.661 80.342a2.055 2.055 0 0 0 1.866.893l139.255-12.94 2.109 2.54c15.115 18.303 41.895 22.487 60.965 9.547a77.93 77.93 0 0 0 2.11-1.503l24.649-12.595c-1.359 2.337-1.704 5.404-.892 8.41.892 3.271 3.063 5.729 5.802 6.562 1.948.589 4.159.833 6.573.69l1.177-.061 1.988 1.422a9.49 9.49 0 0 0 7.649 1.524 9.317 9.317 0 0 0 5.051-3.047 10.016 10.016 0 0 0 6.999.487 9.927 9.927 0 0 0 6.026-5.119l13.227-26.895c5.377 5.078 12.538 7.8 20.024 7.577l.873-.021a7.953 7.953 0 0 0 6.187-3.27 8.017 8.017 0 0 0 1.258-6.886l-12.091-43.269a2.055 2.055 0 0 0-1.136-1.321l-56.197-24.519a25.888 25.888 0 0 0-24.609 2.073l-60.721 39.774-124.019-5.789c-15.986-40.202-39.5-99.762-40.656-103.744v-.061c-.081-.548-.406-1.036-.872-1.361-2.029-1.381-4.078-2.661-6.127-3.778l-10.996-6.094-23.635-11.437 9.129-37.134c2.171.203 4.321.244 6.431.081 12.883-.954 24.508-8.247 32.704-20.537 8.095-12.127 11.909-27.728 10.712-43.898-1.197-16.17-7.243-31.04-17.021-41.847-9.921-10.95-22.479-16.475-35.362-15.5-20.673 1.524-37.633 19.847-42.32 44.65-3.327-5.809-8.399-9.567-14.242-10.258-11.361-1.341-22.519 9.812-24.852 24.884-1.441 9.264.547 18.588 5.335 24.926 3.287 4.387 7.588 7.028 12.416 7.617 1.461.183 2.922.163 4.403-.04l-8.48 34.473c-16.352-10.442-35.078-16.963-54.392-18.913-4.889-.487-9.535 2.194-11.604 6.663-11.523 24.986-51.856 112.58-87.237 190.24-10.144 22.285-5.701 46.844 11.625 64.152C28.098 456.21 42.239 462 56.805 462zm137.591-62.019-115.01 52.877c-20.653 9.487-43.457 5.404-59.545-10.644C3.753 426.146-.386 403.333 9.048 382.633c35.362-77.66 75.714-165.234 87.217-190.22 1.339-2.905 4.341-4.652 7.445-4.347 19.659 1.991 38.669 8.837 55.021 19.827a2.03 2.03 0 0 0 1.866.203 2.088 2.088 0 0 0 1.238-1.402l9.981-40.506a2.036 2.036 0 0 0-.608-1.991 1.966 1.966 0 0 0-2.029-.406c-2.029.711-4.037.955-5.985.711-3.713-.467-7.06-2.56-9.677-6.033-4.139-5.485-5.843-13.651-4.565-21.858 2.008-12.94 11.158-22.549 20.369-21.472 6.33.752 11.604 6.338 13.755 14.585a1.992 1.992 0 0 0 2.13 1.504 2.021 2.021 0 0 0 1.846-1.849c2.212-26.631 18.868-47.088 39.622-48.631 11.625-.854 23.006 4.184 32.055 14.179 9.19 10.157 14.87 24.153 15.986 39.429 1.116 15.276-2.434 29.963-10.042 41.339-7.486 11.234-18.016 17.876-29.64 18.75-2.415.183-4.89.081-7.385-.264-1.035-.122-2.009.507-2.252 1.523l-9.961 40.466a2.037 2.037 0 0 0 1.095 2.315l25.015 12.107 10.894 6.054a76.158 76.158 0 0 1 5.377 3.291c1.156 4.124 5.761 15.784 20.166 52.288a23351.539 23351.539 0 0 0 20.794 52.511 2.06 2.06 0 0 0 1.786 1.28l125.986 5.891c.426 0 .852-.101 1.197-.325l61.269-40.14c6.208-4.063 13.978-4.733 20.774-1.747l55.305 24.133 11.848 42.334a3.958 3.958 0 0 1-.609 3.393 3.908 3.908 0 0 1-3.043 1.604l-.873.021c-7.263.243-14.16-2.804-18.908-8.329a1.972 1.972 0 0 0-1.805-.691 2.035 2.035 0 0 0-1.562 1.118l-14.466 29.495c-.73 1.483-1.988 2.56-3.57 3.027-1.583.467-3.226.285-4.646-.548l-.771-.447a1.999 1.999 0 0 0-1.562-.203 2.052 2.052 0 0 0-1.238.975 5.481 5.481 0 0 1-3.57 2.702 5.49 5.49 0 0 1-4.382-.874l-2.557-1.828c-.385-.264-.811-.407-1.298-.366l-1.887.102c-1.947.101-3.692-.082-5.173-.529-1.4-.426-2.536-1.828-3.064-3.737-.588-2.174-.223-4.49.893-5.891l3.469-2.174a2.042 2.042 0 0 0 .954-1.788 2.008 2.008 0 0 0-1.075-1.726l-2.922-1.564a2.005 2.005 0 0 0-1.887-.021l-29.112 14.89-.305.183a47.42 47.42 0 0 1-2.069 1.483c-17.366 11.782-41.772 7.923-55.568-8.775l-2.779-3.373a2.047 2.047 0 0 0-1.745-.731l-139.133 12.92-55.406-82.942c-.426-.65-1.217-1.016-1.988-.874a2.043 2.043 0 0 0-1.643 1.422l-17.245 57.895z"/><path fill="#FDFCFC" d="M179.282 413.409c12.984 19.4 38.425 26.124 59.849 16.901l26.962-11.62 9.677 19.197c3.226 6.765 11.24 9.751 18.097 6.704 3.084-1.361 4.463-4.997 3.063-8.085l-11.564-23.402.203-.061 16.575 26.611c3.814 6.46 12.092 8.695 18.645 5.038 2.962-1.645 3.996-5.383 2.312-8.328l-4.443-7.273 3.247 3.372c5.193 5.424 13.734 5.709 19.293.671 3.185 0 4.849-3.819 2.678-6.155l-40.798-43.899H226.35l-20.795-.609H57.8l-5.64 10.38c-16.758 30.918 14.323 65.878 46.925 52.755l80.197-32.197z"/><path fill="#483D89" d="M84.904 450.482c4.97 0 10.022-.955 14.911-2.925l78.696-31.649c13.654 18.973 39.176 25.839 61.391 16.271l25.217-10.868 8.805 17.49c3.713 7.781 12.822 11.153 20.734 7.659a8.16 8.16 0 0 0 4.301-4.551 7.836 7.836 0 0 0 .528-2.62l.912 1.462c4.403 7.415 13.776 9.954 21.343 5.749a7.946 7.946 0 0 0 3.855-4.916 8.107 8.107 0 0 0 .101-4.002c5.316 2.255 11.584 1.463 16.271-2.437 1.948-.264 3.591-1.503 4.382-3.352.913-2.113.507-4.469-1.055-6.155l-40.798-43.899a2.043 2.043 0 0 0-1.481-.65h-76.728l-20.734-.609H57.739c-.75 0-1.42.406-1.786 1.056l-5.64 10.381c-8.054 14.849-6.005 32.583 5.214 45.219 7.77 8.694 18.401 13.346 29.377 13.346zm94.358-39.105c-.244 0-.507.041-.751.143l-80.197 32.258c-17.062 6.866-31.69-.325-39.703-9.344-8.014-9.02-13.45-24.397-4.686-40.567l5.051-9.324h146.558l20.734.609h75.897l40.189 43.249c.67.731.406 1.523.305 1.767-.102.223-.508.975-1.481.975-.508 0-.994.183-1.36.528a11.765 11.765 0 0 1-16.473-.569l-3.246-3.372a2.022 2.022 0 0 0-2.698-.203c-.812.63-1.035 1.788-.487 2.661l4.463 7.273a4.05 4.05 0 0 1 .365 3.047 3.935 3.935 0 0 1-1.927 2.437c-5.64 3.129-12.619 1.239-15.906-4.306l-16.595-26.652a2.023 2.023 0 0 0-2.293-.874c-.568.163-1.156.61-1.379 1.158-.244.549-.325 1.199-.061 1.747l11.564 23.402c.426.934.467 2.031.081 3.067-.385 1.016-1.136 1.829-2.15 2.255-5.884 2.621-12.68.102-15.46-5.728l-9.697-19.238a2.034 2.034 0 0 0-2.617-.954l-26.962 11.619c-20.937 9.02-45.059 2.214-57.354-16.17a2.123 2.123 0 0 0-1.724-.894z"/><path fill="#483D89" d="M318.922 430.635c.345 0 .669-.081.994-.264a2.031 2.031 0 0 0 .771-2.763l-25.42-45.462a2.027 2.027 0 0 0-2.76-.772 2.033 2.033 0 0 0-.771 2.763l25.421 45.462a1.994 1.994 0 0 0 1.765 1.036zm-31.73-12.899c.305 0 .609-.061.893-.203 1.014-.488 1.42-1.707.933-2.722l-15.926-32.564c-.486-1.015-1.704-1.421-2.718-.934-1.014.488-1.42 1.706-.933 2.722l15.926 32.563a2.038 2.038 0 0 0 1.825 1.138zm-21.829 2.437c.304 0 .629-.081.933-.223.994-.508 1.38-1.747.872-2.742l-7.263-14.098a2.02 2.02 0 0 0-1.805-1.097h-15.074a2.036 2.036 0 0 0-2.029 2.031c0 1.117.913 2.031 2.029 2.031h13.836l6.695 13.001a2.016 2.016 0 0 0 1.806 1.097z"/><path fill="#FDFCFC" d="m229.819 400.773 4.382 32.929c0 5.323 4.301 9.629 9.616 9.629 5.316 0 9.617-4.306 9.617-9.629v-31.547l-23.615-1.382z"/><path fill="#483D89" d="M243.817 445.363c6.431 0 11.645-5.241 11.645-11.661v-31.547a2.036 2.036 0 0 0-2.028-2.031 2.036 2.036 0 0 0-2.029 2.031v31.547c0 4.185-3.408 7.598-7.588 7.598-4.179 0-7.587-3.413-7.587-7.598 0-.081 0-.182-.021-.264l-4.382-32.929a2.019 2.019 0 0 0-2.272-1.747c-1.116.143-1.887 1.179-1.745 2.276l4.362 32.807c.061 6.358 5.255 11.518 11.645 11.518zm-206.954-60.8h25.643a2.036 2.036 0 0 0 2.03-2.031 2.037 2.037 0 0 0-2.03-2.032H36.863a2.037 2.037 0 0 0-2.029 2.032c0 1.117.913 2.031 2.029 2.031z"/><path fill="#B1E0EF" d="m227.12 283.907 14.851 51.334s8.095 33.782-38.445 34.452l23.594-85.786z"/><path fill="#483D89" d="M203.506 371.725h.04c16.758-.244 28.626-4.713 35.281-13.286 8.155-10.502 5.254-23.137 5.112-23.665l-14.871-51.435a2.016 2.016 0 0 0-2.515-1.382 2.02 2.02 0 0 0-1.38 2.519l14.851 51.334c0 .02 2.536 11.233-4.423 20.171-5.863 7.516-16.656 11.457-32.095 11.681a2.05 2.05 0 0 0-2.009 2.051c0 1.118.893 2.012 2.009 2.012zM87.46 383.893c.69 0 1.36-.345 1.745-.975l20.917-34.453a2.017 2.017 0 0 0-.67-2.783 2.01 2.01 0 0 0-2.779.671l-20.917 34.452a2.005 2.005 0 0 0 .69 2.783c.284.203.65.305 1.014.305z"/><path fill="#FDFCFC" d="M376.182 251.466c1.252 0 2.368-.677 2.977-1.761l7.611-13.887 13.869-7.621a3.404 3.404 0 0 0 0-5.961l-13.869-7.588-7.611-13.887c-.609-1.084-1.725-1.761-2.977-1.761a3.399 3.399 0 0 0-2.976 1.761l-7.578 13.887-13.869 7.588a3.406 3.406 0 0 0-1.759 2.98c0 1.253.677 2.371 1.759 2.981l13.869 7.621 7.578 13.887c.575 1.084 1.725 1.761 2.976 1.761zm15.764-26.25-9.337 5.115a3.267 3.267 0 0 0-1.353 1.355l-5.108 9.348-5.107-9.348a3.263 3.263 0 0 0-1.354-1.355l-9.336-5.115 9.336-5.114a3.263 3.263 0 0 0 1.354-1.355l5.107-9.349 5.108 9.349c.305.576.778 1.05 1.353 1.355l9.337 5.114z"/><path fill="#FFA6DE" d="M435.286 161.263c4.006-1.788 8.348-4.791 12.871-9.527 2.843-2.995 4.387-6.108 4.639-9.158 2.727.031 5.413-.03 7.984-.186 7.592-.489 26.008-2.689 32.57-12.632 1.155-1.764 2.305-4.774.766-8.713 16.53-1.579 32.469-5.794 41.713-11.207 5.322-3.11 7.902-6.942 7.702-11.332-.219-5.336-4.661-10.44-11.772-15.526 11.455-5.554 22.703-10.502 28.663-7.583 2.526 1.222 4.205 3.998 5.153 8.421a3.388 3.388 0 0 0 3.981 2.592 3.384 3.384 0 0 0 2.586-3.982c-1.398-6.499-4.356-10.906-8.791-13.038-9.515-4.638-23.404 2.114-38.14 9.354-7.276-4.389-16.232-8.761-25.825-13.328l-4.701-2.234c-12.38-5.965-22.522-1.987-26.138 5.025-3.712 7.127-1.113 18.45 13.291 26.486 11.508 6.392 27.328-.635 42.995-8.253 6.797 4.382 11.839 8.776 11.996 12.415.075 1.728-1.41 3.493-4.395 5.266-9.184 5.385-25.868 9.493-42.844 10.646-.33-.329-.705-.676-1.093-1.053-11.458-10.306-41.789-22.393-49.58-15.94-1.29 1.052-3.867 4.149-.369 9.931 7.948 13.121 31.954 14.409 45.538 14.036.871-.022 1.772-.057 2.673-.092 1.132 1.551 1.826 3.187 1.006 4.471-3.369 5.102-13.858 8.794-27.418 9.634-3.067.194-6.141.208-9.15.119-.642-1.108-1.494-2.196-2.5-3.216-7.31-7.421-24.525-11.815-29.243-7.432-.593.558-3.454 3.598.46 8.092 4.554 5.274 15.122 8.082 26.193 8.978-.178 1.327-.922 2.945-2.775 4.873-15.064 15.868-26.337 7.867-26.817 7.53a3.343 3.343 0 0 0-4.677.693c-1.099 1.482-.829 3.565.652 4.666.058.047 9.619 7.088 22.796 1.204zm-9.112-31.252c3.68.193 10.066 1.931 14.663 4.835-6.48-.962-11.802-2.698-14.663-4.835zm17.372-27.289c4.237-1.598 23.543 4.028 35.793 12.328-18.016-.107-30.964-4.057-35.093-10.842-.389-.707-.594-1.167-.7-1.486zm74.361-20.458c-12.735 6.052-25.072 10.863-32.844 6.512-10.496-5.852-12.848-13.173-10.607-17.515 2.093-4.018 8.372-6.381 17.301-2.07l4.714 2.265c5.951 2.814 14.045 6.654 21.436 10.808z"/></g><defs><clipPath id="a"><path fill="#fff" d="M591 0H0v462h591z"/></clipPath></defs></svg>