<svg xmlns="http://www.w3.org/2000/svg" width="552" height="167" fill="none"><path fill="#B984FD" d="m112.461 44.665-27.598 1.809.514 7.84 27.597-1.81-.513-7.84zM27.598 50.24 0 52.047l.514 7.84 27.598-1.808-.514-7.84zM77.86 0 65.628 24.805l7.047 3.475L84.907 3.475 77.86 0zM40.25 76.227l-12.232 24.805 7.046 3.475 12.233-24.805-7.047-3.475zm35.46-2.329-6.533 4.365 15.366 22.996 6.533-4.365L75.71 73.898zM28.492 3.262l-6.533 4.365 15.365 22.996 6.533-4.365L28.492 3.262z"/><path fill="#FFA6DE" d="m551.738 138.548-12.696.832.236 3.607 12.696-.832-.236-3.607zm-39.042 2.565-12.696.832.236 3.607 12.697-.832-.237-3.607zM535.82 118l-5.628 11.412 3.242 1.598 5.628-11.411L535.82 118zm-17.303 35.069-5.627 11.411 3.242 1.599 5.627-11.411-3.242-1.599zm16.314-1.072-3.006 2.008 7.069 10.58 3.006-2.008-7.069-10.58zm-21.723-32.496-3.005 2.008 7.068 10.579 3.006-2.008-7.069-10.579z"/></svg>