<svg xmlns="http://www.w3.org/2000/svg" width="853" height="525" fill="none"><g clip-path="url(#a)"><path fill="#B984FD" d="M681.829 6.049v32.72c14.926 0 28.436 6.06 38.224 15.854l23.098-23.133c-15.697-15.721-37.378-25.441-61.322-25.441z"/><path fill="#B1E0EF" d="M735.883 92.904h32.671c0-23.98-9.705-45.693-25.403-61.414l-23.098 23.133c9.78 9.794 15.83 23.332 15.83 38.281z"/><path fill="#B1E0EF" d="M735.883 92.904c0 14.949-6.05 28.479-15.83 38.281l23.098 23.134a87.051 87.051 0 0 0 13.278-17.116c.414-.689.812-1.386 1.201-2.091a81.055 81.055 0 0 0 2.362-4.557 87.62 87.62 0 0 0 5.263-13.879c.191-.689.382-1.377.564-2.075a89.83 89.83 0 0 0 .97-4.2 87.565 87.565 0 0 0 1.765-17.505h-32.671v.008z"/><path fill="#483D89" d="M711.491 174.497a89.265 89.265 0 0 1-10.617 3.129 88.596 88.596 0 0 0 5.636-1.436c.009 0 .025 0 .033-.008a91.224 91.224 0 0 0 3.879-1.253l.216-.075a90.47 90.47 0 0 0 3.622-1.37c.149-.058.298-.124.447-.182a83.541 83.541 0 0 0 3.332-1.445c.224-.108.447-.207.671-.315a85.13 85.13 0 0 0 3.042-1.511c.282-.149.563-.299.853-.448a77.334 77.334 0 0 0 2.818-1.577c.307-.174.605-.357.912-.54.008 0 .017-.008.025-.016a77.483 77.483 0 0 0 2.685-1.685c.141-.091.282-.191.423-.282l.497-.324a83.858 83.858 0 0 0 2.669-1.868s.008 0 .017-.008c.265-.191.522-.382.779-.573a81.439 81.439 0 0 0 2.759-2.141c.191-.158.39-.307.581-.465a76.99 76.99 0 0 0 2.934-2.523c.099-.092.198-.175.298-.266a82.36 82.36 0 0 0 3.141-2.988l-23.098-23.133a54.126 54.126 0 0 1-19.726 12.6l11.164 30.719.008-.016zm-49.611 2.93c.895.207 1.798.407 2.693.589.373.075.738.15 1.111.224.986.183 1.981.349 2.975.507.87.132 1.749.24 2.627.348.307.042.614.075.92.108.896.1 1.799.183 2.702.258l.663.049c2.072.15 4.153.233 6.258.233v-32.704c-14.927 0-28.436-6.059-38.224-15.854l-23.099 23.134c.05.049.108.099.158.157a94.707 94.707 0 0 0 2.983 2.839c.1.091.199.174.299.266a83.09 83.09 0 0 0 2.934 2.523c.19.158.389.307.58.465a80.483 80.483 0 0 0 2.76 2.141c.265.2.53.39.795.581.879.64 1.774 1.262 2.669 1.868.307.207.613.407.92.606a81.628 81.628 0 0 0 2.694 1.685c.314.191.621.373.936.556.24.141.481.266.721.407.696.398 1.392.797 2.097 1.17l.845.448a86.331 86.331 0 0 0 3.05 1.511c.224.108.448.207.672.315 1.102.507 2.213.988 3.331 1.453.15.058.299.124.448.183.29.116.588.215.887.332.911.356 1.823.713 2.743 1.037l.216.075c1.284.448 2.577.871 3.887 1.253a89.055 89.055 0 0 0 3.655.988c.364.091.737.174 1.11.266l-.016-.017z"/><path fill="#483D89" d="M681.829 179.734v.017h.025c1.218 0 2.445-.033 3.663-.091.307-.017.621-.025.928-.042a83.79 83.79 0 0 0 3.531-.257c.29-.025.572-.066.862-.1a102.29 102.29 0 0 0 4.21-.539c.522-.083 1.053-.175 1.575-.266a81.085 81.085 0 0 0 3.895-.763l.348-.075a86.375 86.375 0 0 0 10.617-3.129l-11.164-30.72a53.794 53.794 0 0 1-18.499 3.254v32.703l.009.008z"/><path fill="#B984FD" d="M681.829 38.769V6.049c-15.449 0-29.953 4.05-42.509 11.139a87.018 87.018 0 0 0-18.814 14.302l23.099 23.133c9.779-9.795 23.297-15.854 38.224-15.854z"/><path fill="#FFA6DE" d="M617.249 34.934a91.527 91.527 0 0 0-2.511 2.93c-.158.191-.315.39-.473.581a98.618 98.618 0 0 0-2.138 2.764c-.199.266-.39.532-.58.797a81.424 81.424 0 0 0-2.462 3.594 76.765 76.765 0 0 0-2.229 3.636 84.949 84.949 0 0 0-1.567 2.822c-.149.282-.298.573-.447.855a85.387 85.387 0 0 0-1.815 3.727 83.584 83.584 0 0 0-1.442 3.328c-.058.15-.125.299-.183.457a96.878 96.878 0 0 0-1.367 3.627l-.075.224a92.085 92.085 0 0 0-1.251 3.885c0 .016 0 .025-.009.041a86.469 86.469 0 0 0-2.668 12.227v.033a93.91 93.91 0 0 0-.506 4.225 80.415 80.415 0 0 0-.282 3.992c0 .075 0 .15-.008.224a92.377 92.377 0 0 0-.091 4.001h32.671c0-14.949 6.05-28.478 15.83-38.281L620.548 31.49a81.221 81.221 0 0 0-2.984 3.145c-.091.1-.182.2-.265.3h-.05z"/><path fill="#FDFCFC" d="M627.775 92.904h-32.671c0 1.295.033 2.582.091 3.868 0 .15.008.307.016.457.067 1.27.158 2.54.274 3.81.008.124.025.249.033.365a79.04 79.04 0 0 0 .472 3.942c0 .025 0 .05.009.067a87.27 87.27 0 0 0 2.668 12.201c0 .017 0 .025.009.042a88.84 88.84 0 0 0 1.226 3.81c.033.108.075.207.108.315a90.317 90.317 0 0 0 1.326 3.528c.075.191.158.39.232.581a94.45 94.45 0 0 0 1.409 3.254l.373.796a86.94 86.94 0 0 0 1.459 2.955l.174.324c.116.224.24.448.356.672.481.897.978 1.793 1.492 2.681.108.183.215.374.331.557l.349.572a86.675 86.675 0 0 0 1.566 2.507c.141.208.274.423.414.631.108.166.224.332.34.498a91.889 91.889 0 0 0 1.708 2.457s0 .008.008.016c.141.2.29.399.431.598.099.133.199.257.29.39a94.532 94.532 0 0 0 1.989 2.573c.124.158.249.307.373.465.075.091.149.174.224.266a84.43 84.43 0 0 0 2.395 2.789l.199.224c.058.066.116.124.174.191a94.811 94.811 0 0 0 2.884 3.038l23.099-23.134c-9.78-9.794-15.83-23.332-15.83-38.281v-.025z"/><path fill="#483D89" d="M653.131 27.788 627.422 2.04h-5.354V.38h6.042l26.198 26.237-1.177 1.17zM615.114.172h-28.278v1.66h28.278V.172zm0 5.711h-28.278v1.66h28.278v-1.66zm-.008 5.711h-17.305v1.66h17.305v-1.66zm135.504 90.683-1.169-1.17 26.19-26.238h6.042v1.66h-5.354l-25.709 25.748zm66.304-27.615h-28.279v1.66h28.279v-1.66zm0 5.711h-28.279v1.66h28.279v-1.66zm0 5.71h-17.306v1.66h17.306v-1.66z"/><path stroke="#483D89" d="m770.774 286.938.388 19.213.008.399.391.081c8.836 1.814 17.12 5.138 24.624 9.658l.342.206.277-.288 13.304-13.882 24.74 23.785-13.305 13.883-.276.287.219.333a78.44 78.44 0 0 1 10.632 24.249l.096.388.4-.008 19.184-.389.7 34.344-19.184.388-.399.008-.08.391c-1.82 8.849-5.131 17.147-9.644 24.661l-.206.342.288.276 13.854 13.325-23.758 24.777-13.853-13.324-.288-.277-.334.22c-7.314 4.826-15.458 8.479-24.212 10.657l-.387.096.008.399.388 19.214-34.29.701-.388-19.213-.008-.399-.391-.081c-8.836-1.822-17.121-5.138-24.624-9.658l-.342-.206-.277.288-13.304 13.882-24.74-23.793 13.305-13.883.276-.288-.219-.333a78.702 78.702 0 0 1-10.632-24.249l-.097-.387-.399.008-19.184.388-.7-34.335 19.184-.388.398-.008.081-.391a78.813 78.813 0 0 1 9.644-24.662l.206-.341-.288-.276-13.854-13.325 23.758-24.777 13.853 13.324.288.277.334-.22c7.314-4.826 15.458-8.48 24.212-10.657l.387-.096-.008-.399-.388-19.214 34.29-.701zm11.781 96.503c-.304-14.918-12.624-26.767-27.521-26.462-14.896.304-26.726 12.644-26.422 27.561.304 14.917 12.623 26.766 27.52 26.462 14.897-.305 26.727-12.644 26.423-27.561z"/><path fill="#483D89" d="M139.396 17.694H82.91a5 5 0 0 0-5 5v223.972a5 5 0 0 0 5 5h56.486a5 5 0 0 0 5-5V22.694a5 5 0 0 0-5-5z"/><path fill="#B984FD" d="M144.396 16.773H77.91v12.675h66.486V16.773z"/><path fill="#FDFCFC" d="M86.935 20.492H82.99v4.307h3.945v-4.307z"/><path fill="#B984FD" d="M128.814 80.703h-35.92v35.973h35.92V80.703zm0-38.863h-35.92v35.974h35.92V41.84zm0 155.425h-35.92v35.974h35.92v-35.974zm0-77.7h-35.92v35.974h35.92v-35.974zm0 38.854h-35.92v35.957h35.92v-35.957z"/><path fill="#FDFCFC" d="M119.938 69.207a.852.852 0 0 1-.63-.266l-6.696-6.699a.922.922 0 0 1 0-1.31.925.925 0 0 1 1.276 0l6.713 6.697a.97.97 0 0 1 0 1.312.926.926 0 0 1-.663.266z"/><path fill="#FDFCFC" d="M109.338 69.962h-.009a.88.88 0 0 1-.82-.556l-8.338-19.722a.927.927 0 0 1 .199-1.004.912.912 0 0 1 1.003-.191l19.676 8.333c.331.15.563.482.572.822a.95.95 0 0 1-.556.863l-7.575 3.312-3.299 7.595a.934.934 0 0 1-.837.548h-.016zm-6.606-18.908 6.614 15.679 2.602-5.96c.092-.207.274-.382.465-.481l5.959-2.606-15.648-6.64.008.008zm18.88 45.536a.955.955 0 0 0-.572-.839l-19.675-8.333a.912.912 0 0 0-1.003.19.95.95 0 0 0-.199 1.013l8.338 19.705a.875.875 0 0 0 .82.565h.008a.901.901 0 0 0 .838-.556l2.917-6.682 6.208 6.217a.91.91 0 0 0 .629.274c.224 0 .489-.1.664-.274a.962.962 0 0 0 0-1.303l-6.216-6.201 6.68-2.922a.932.932 0 0 0 .555-.855h.008zm-10.318 78.438h-.904v9.155h.904v-9.155z"/><path fill="#FDFCFC" d="M110.854 174.563a.993.993 0 0 0-.986 1.005c0 .547.431.979.986.979.556 0 .987-.44.987-.979 0-.54-.44-1.005-.987-1.005zm5.794-10.06h-11.587v1.826h11.587v-1.826z"/><path fill="#FDFCFC" d="M111.576 185.711h-1.467l-7.17-9.189 3.133-6.433v-3.295h9.565v3.295l3.132 6.433-7.193 9.189zm-6.49-9.405 5.76 7.379 5.76-7.379-2.809-5.777v-1.9h-5.91v1.884l-2.801 5.793zm12.979-45.245a.479.479 0 0 1-.323-.125.437.437 0 0 1 0-.647l1.55-1.552a.449.449 0 0 1 .646 0 .466.466 0 0 1 0 .647l-1.55 1.552a.45.45 0 0 1-.323.125zm-4.699 6.283a.905.905 0 0 1-.63-.274l-1.119-1.112a.919.919 0 0 1 0-1.295.924.924 0 0 1 1.301 0l1.111 1.113c.356.357.356.954 0 1.294a.948.948 0 0 1-.655.274h-.008zm6.249 2.598a.426.426 0 0 1-.323-.141l-1.55-1.544a.437.437 0 0 1 0-.647.436.436 0 0 1 .646 0l1.55 1.552a.456.456 0 0 1 0 .639.403.403 0 0 1-.323.141zm-8.86-8.881a.464.464 0 0 1-.323-.125l-1.558-1.552a.45.45 0 0 1 0-.647.458.458 0 0 1 .654 0l1.55 1.552a.437.437 0 0 1 0 .647.479.479 0 0 1-.323.125zm11.015 3.669h-2.188a.462.462 0 0 1-.456-.465c0-.257.207-.457.456-.457h2.188c.248 0 .456.2.456.457a.463.463 0 0 1-.456.465zm-12.523 0h-2.18a.464.464 0 0 1-.464-.465c0-.257.207-.457.464-.457h2.18c.257 0 .455.2.455.457a.456.456 0 0 1-.455.465zm5.163 7.37a.46.46 0 0 1-.456-.456v-2.191a.457.457 0 1 1 .912 0v2.191a.46.46 0 0 1-.456.456zm0-12.55a.467.467 0 0 1-.456-.464v-2.192c0-.257.207-.465.456-.465.249 0 .456.208.456.465v2.192a.467.467 0 0 1-.456.464z"/><path fill="#FDFCFC" d="M101.58 149.222c-.58 0-1.119-.216-1.508-.589-.398-.382-.605-.921-.605-1.519 0-.772.365-1.594.994-2.216l12.209-12.235c1.102-1.104 2.834-1.295 3.729-.398.481.481.671 1.195.555 1.934-.099.655-.447 1.286-.961 1.792l-12.2 12.227c-.638.647-1.442.996-2.221.996l.008.008zm13.319-15.712c-.224 0-.588.116-.92.464l-12.208 12.227c-.34.34-.456.697-.456.93 0 .058 0 .166.058.215.041.042.149.058.207.058.232 0 .58-.124.92-.456l12.208-12.235c.249-.232.415-.523.448-.788.025-.158.008-.291-.042-.341a.4.4 0 0 0-.215-.074zm.497 94.309c-.398 0-.771-.233-.895-.648l-6.299-19.315-6.323 19.315a.933.933 0 0 1-1.177.606.946.946 0 0 1-.605-1.17l7.202-22.038c.249-.763 1.525-.763 1.774 0l7.202 22.038a.936.936 0 0 1-.605 1.17c-.091.042-.199.042-.29.042h.016z"/><path fill="#FDFCFC" d="M102.915 227.819h-3.423a.93.93 0 0 1-.937-.93c0-.515.414-.938.937-.938h3.423c.513 0 .936.415.936.938 0 .523-.414.93-.936.93zm13.998 0h-3.44a.935.935 0 0 1 0-1.868h3.44a.93.93 0 0 1 .936.938c0 .523-.414.93-.936.93zm-4.119-6.782h-9.2a.93.93 0 0 1 0-1.859h9.2a.929.929 0 1 1 0 1.859zm5.022-4.731c-1.019 0-1.856-.332-2.511-.955a3.096 3.096 0 0 1-.986-2.299c0-1.137.505-1.818.945-2.166a3.982 3.982 0 0 1 1.608-.888 73.721 73.721 0 0 1 2.436-.573c1.144-.257 1.964-.473 2.503-.689a.949.949 0 0 1 .854.116.917.917 0 0 1 .406.764v.622c0 1.627-.216 2.814-.688 3.619-.406.731-1.036 1.337-1.881 1.785a5.605 5.605 0 0 1-2.686.672v-.008zm3.374-5.412a23.09 23.09 0 0 1-1.476.357c-1.143.249-1.931.44-2.354.54a2.297 2.297 0 0 0-.886.506c-.133.124-.29.299-.29.755 0 .374.132.681.422.971.663.631 2.047.49 3.017-.041.531-.274.912-.631 1.152-1.046.166-.299.365-.888.415-2.034v-.008z"/><path fill="#FDFCFC" d="M122.242 216.19a.929.929 0 0 1-.936-.93v-6.707c0-1.228-.937-2.232-2.064-2.232h-.696c-.829 0-1.567.514-1.89 1.344a.97.97 0 0 1-1.227.531.955.955 0 0 1-.513-1.22c.613-1.544 2.03-2.523 3.63-2.523h.696c2.171 0 3.937 1.843 3.937 4.1v6.707a.94.94 0 0 1-.937.93z"/><path fill="#B984FD" d="M705.955 474.423V113.896c0-4.433-3.058-8.027-6.829-8.027H203.464c-3.771 0-6.837 3.594-6.837 8.027v360.527h509.328z"/><path fill="#FDFCFC" d="M216.41 129.193a5.203 5.203 0 0 1-5.197-5.204 5.203 5.203 0 0 1 5.197-5.204 5.21 5.21 0 0 1 5.205 5.204 5.21 5.21 0 0 1-5.205 5.204zm0-8.757a3.545 3.545 0 0 0-3.539 3.545 3.55 3.55 0 0 0 3.539 3.544 3.557 3.557 0 0 0 3.547-3.544 3.552 3.552 0 0 0-3.547-3.545zm12.846 8.757a5.203 5.203 0 0 1-5.196-5.204 5.203 5.203 0 0 1 5.196-5.204 5.21 5.21 0 0 1 5.205 5.204 5.21 5.21 0 0 1-5.205 5.204zm0-8.757a3.545 3.545 0 0 0-3.539 3.545 3.551 3.551 0 0 0 3.539 3.544 3.558 3.558 0 0 0 3.548-3.544 3.553 3.553 0 0 0-3.548-3.545zm12.838 8.757a5.21 5.21 0 0 1-5.204-5.204 5.21 5.21 0 0 1 5.204-5.204 5.203 5.203 0 0 1 5.197 5.204 5.203 5.203 0 0 1-5.197 5.204zm0-8.757a3.552 3.552 0 0 0-3.547 3.545 3.552 3.552 0 0 0 3.547 3.544 3.545 3.545 0 0 0 3.539-3.544 3.55 3.55 0 0 0-3.539-3.545zm395.693 10.451c-3.805 0-6.896-3.096-6.896-6.906 0-3.81 3.091-6.906 6.896-6.906 3.804 0 6.887 3.096 6.887 6.906 0 3.81-3.092 6.906-6.887 6.906zm0-12.144a5.247 5.247 0 0 0 0 10.492c2.892 0 5.229-2.349 5.229-5.246 0-2.897-2.345-5.246-5.229-5.246z"/><path fill="#FDFCFC" d="m637.745 126.662-3.58-3.586 1.177-1.17 2.403 2.407 2.404-2.407 1.168 1.17-3.572 3.586zm-357.062 3.519-6.183-6.192 6.183-6.2 1.169 1.178-5.006 5.022 5.006 5.022-1.169 1.17zm12.125 0-1.168-1.17 5.014-5.022-5.014-5.022 1.168-1.178 6.183 6.2-6.183 6.192zm365.798-11.214h-1.658v10.036h1.658v-10.036z"/><path fill="#FDFCFC" d="M662.783 123.159h-10.02v1.66h10.02v-1.66zm11.752-2.855v.755h-.754v-.755h.754zm1.658-1.66h-4.069v4.075h4.069v-4.075zm-1.658 8.267v.755h-.754v-.755h.754zm1.658-1.66h-4.069v4.075h4.069v-4.075zm4.998-4.947v.755h-.755v-.755h.755zm1.657-1.66h-4.069v4.075h4.069v-4.075zm-1.657 8.267v.755h-.755v-.755h.755zm1.657-1.66h-4.069v4.075h4.069v-4.075z"/><mask id="b" width="241" height="156" x="299" y="246" maskUnits="userSpaceOnUse" style="mask-type:luminance"><path fill="#fff" d="M299.414 246.104v155.782h240.575V246.104H299.414z"/></mask><g mask="url(#b)"><path fill="#FFA6DE" d="M299.414 246.104v155.782h240.575V246.104H299.414z"/><path fill="#FDFCFC" d="M381.705 384.812c.332.291 1.011.581.953.863-.472 2.1 1.749 4.084 2.246 6.143.614 2.564 1.616 5.113 2.114 7.677.223 1.179-.15 2.383-.622 3.561-.738 1.851-3.348 3.138-8.47 4.433-.489-.009-1.103.016-1.658-.034-8.454-.747-7.5-.755-9.506-3.037-3.929-4.458-7.584-8.94-11.388-13.414-.182-.207-.655-.39-1.773-.506 1.757 2.93 3.704 5.852 5.213 8.798 1.525 2.963 2.668 5.96 3.854 8.94.29.738.165 1.502.091 2.257-.1 1.021-.953 1.992-2.487 2.897-1.218.722-2.237 1.611-5.378 1.577-3.888-.041-7.634-.299-9.067-1.685-1.658-1.602-3.399-3.195-4.965-4.806-1.276-1.311-2.354-2.639-3.506-3.967-1.367-1.569-2.727-3.129-4.086-4.698-.108-.125-.182-.249-.34-.357-3.058-2.25-4.525-4.648-6.647-6.981-1.475-1.618-3.87-3.137-4.881-4.806-2.097-3.444-6.092-6.731-8.843-10.126-2.545-3.146-5.214-6.284-7.899-9.421-.563-.656-1.425-1.295-2.262-2.05-1.036.572-.423 1.079-.39 1.56.041.498.282 1.005.555 1.494 1.675 3.022 3.456 6.043 5.048 9.073.903 1.726 1.69 3.469 2.171 5.212.24.863-.199 1.752-.58 2.623-.29.664-1.459 1.162-3.73 1.328-.77.058-1.491.191-2.254.266-3.017.274-5.627-.125-6.597-1.079-.481-.473-.738-.98-.771-1.478-.108-1.643-1.467-3.22-2.428-4.822-1.616-2.706-2.992-5.429-4.526-8.143-.977-1.726-2.138-3.436-3.074-5.163-1.045-1.917-2.056-3.826-2.876-5.752-2.603-6.092-6.357-12.11-10.302-18.12-2.147-3.278-2.163-6.59-1.542-9.935.257-1.37.1-2.764-.348-4.125-.721-2.183-1.699-4.358-2.859-6.516-.895-1.66-2.23-3.296-3.373-4.947-.257-.366-.713-.731-.73-1.104-.107-3.163-3.182-6.159-5.089-9.214-1.334-2.149-2.386-4.316-3.638-6.474-.497-.863-1.193-1.71-1.79-2.565-.207-.307-.531-.614-.522-.921.041-1.693-1.5-3.329-1.699-5.022a2.95 2.95 0 0 0-.498-1.303c-1.21-1.834-2.652-3.66-3.688-5.511-1.342-2.399-2.395-4.823-3.555-7.238-1.616-3.345-3.233-6.691-4.816-10.036-.969-2.041-2.088-4.083-2.726-6.142-.307-.979.157-2.009.621-2.996.224-.473 1.02-.971 1.981-1.345 1.666-.656 3.821-1.245 6.697-.913 2.884.332 5.188.913 5.254 2.042.075 1.32.05 2.639.473 3.943.771 2.365 1.815 4.731 2.793 7.088 2.08 5.038 4.144 10.068 6.323 15.099.78 1.801 1.932 3.585 2.843 5.378 1.724 3.403 3.266 6.806 5.131 10.201 2.411 4.383 5.03 8.749 7.624 13.115 1.973 3.32 3.954 6.649 6.109 9.96 1.392 2.142 3.108 4.267 4.657 6.4.887 1.22 1.741 2.44 2.603 3.652 1.939 2.748 3.829 5.495 5.835 8.234 1.301 1.768 2.818 3.519 4.152 5.287 1.376 1.827 2.619 3.661 3.986 5.487.407.548 1.111 1.071 1.575 1.61 2.727 3.138 5.396 6.284 8.139 9.421 3.746 4.283 7.442 8.566 11.33 12.841 4.541 4.988 9.232 9.96 13.94 14.932.663.698 1.036 1.478 3.729 2.167-.745-1.063-1.384-1.893-1.889-2.723-.671-1.104-1.252-2.216-1.848-3.32-.299-.556-.539-1.112-.821-1.668-.53-1.046-1.003-2.1-1.633-3.138-.513-.855-1.334-1.701-1.815-2.556-1.168-2.092-2.213-4.2-3.331-6.3-.489-.922-.813-1.868-1.617-2.764-1.856-2.059-1.342-4.234-3.315-6.284-.398-.415-.464-.863-.563-1.303-.282-1.262-1.111-2.465-2.478-3.66-1.492-1.287-2.197-2.64-2.76-4.026-1.368-3.345-3.233-6.674-5.006-10.002-.788-1.478-1.948-2.938-2.727-4.416-.456-.863-.224-1.76-.746-2.615-3.456-5.652-7.078-11.296-10.559-16.941-1.517-2.457-2.834-4.93-4.26-7.395-.497-.863-1.077-1.718-1.591-2.582-1.21-2.033-2.569-4.05-3.522-6.092-.498-1.054-.672-2.117-1.857-3.129a1.02 1.02 0 0 1-.257-.366c-1.334-3.038-2.586-6.075-4.011-9.105-.962-2.042-2.155-4.076-3.257-6.117-.133-.249-.398-.49-.456-.739-.58-2.565-1.824-5.097-3.498-7.62-.887-1.345-.853-2.747-1.483-4.109-1.509-3.287-3.398-6.557-4.675-9.852-.671-1.735-.547-3.503-.439-5.254.066-1.104 1.815-2.051 4.442-2.814 2.702-.78 6.067-.756 8.512.066 1.384.465 2.304 1.013 2.321 1.685.083 3.536 2.37 6.981 3.796 10.459 1.45 3.544 3.373 7.063 5.072 10.591a739.072 739.072 0 0 1 3.696 7.811 2870.79 2870.79 0 0 1 5.918 12.649c1.235 2.665 2.395 5.329 3.638 7.994.87 1.859 1.824 3.71 2.752 5.569 2.428 4.823 4.765 9.654 7.335 14.468a142.569 142.569 0 0 0 6.091 10.342c1.111 1.71 3.133 3.362 4.31 5.072 2.097 3.054 4.774 6.051 7.128 9.089 2.072 2.672 4.359 5.328 6.564 7.984.149.183.414.357.514.54 2.652 4.756 8.238 9.263 11.934 13.928 2.213 2.789 4.608 5.561 7.062 8.334 1.218 1.377 2.735 2.739 4.16 4.1.083.083.597.116 1.318.241.041-.341.207-.623.083-.897a343.315 343.315 0 0 0-2.959-6.134c-1.74-3.527-3.133-7.08-5.337-10.583-2.478-3.934-3.73-7.927-5.885-11.878-1.011-1.851-1.84-3.701-3.456-5.519-.746-.839-.771-1.735-1.243-2.598-1.069-1.976-2.304-3.935-3.29-5.91-.829-1.669-1.409-3.345-2.081-5.022-.124-.307-.008-.639-.281-.938-3.042-3.312-3.15-6.806-5.885-10.143-.638-.78-.729-1.61-1.053-2.415-1.102-2.789-3.091-5.537-4.707-8.292-.97-1.652-1.467-3.337-2.387-4.997-2.022-3.636-4.177-7.263-6.282-10.89-.108-.183-.307-.366-.382-.548-.953-2.416-1.839-4.839-2.842-7.255-.489-1.178-.929-2.374-1.832-3.519-2.13-2.689-2.238-5.462-3.589-8.176-1.773-3.586-3.373-7.188-4.964-10.782-.605-1.361-.978-2.739-1.442-4.109-.257-.747-.431-1.502-.754-2.249-2.238-5.088-4.509-10.176-6.747-15.265-1.177-2.672-2.345-5.337-3.414-8.01-.324-.805-.398-1.626-.407-2.44-.024-1.162 1.641-2.033 4.849-2.648 4.326-.83 9.655-.174 10.841 1.353.182.241.265.498.265.747.025 4.474 2.287 8.873 3.903 13.289 1.434 3.918 2.943 7.844 4.194 11.77a52.497 52.497 0 0 0 6.332 13.173c1.301 1.959 1.765 3.968 2.486 5.96.431 1.178.589 2.365.978 3.544.1.299.614.581.92.88.365.357.854.705 1.036 1.07 1.467 2.972 2.769 5.952 4.343 8.915 1.343 2.532 2.984 5.047 4.492 7.57.514.863 1.078 1.718 1.567 2.581 2.445 4.317 5.163 8.616 7.185 12.949 1.302 2.797 3.108 5.553 5.114 8.292 1.509 2.059 2.097 4.217 5.006 6.159a.827.827 0 0 1 .307.365c2.652 5.52 7.79 10.857 10.973 16.344.862 1.477 1.732 2.955 2.801 4.415.672.914 1.849 1.785 2.586 2.69 2.056 2.54 3.987 5.096 5.992 7.644 2.288 2.906 4.484 5.819 6.946 8.708 1.044 1.22 2.668 2.39 4.517 3.569-.116-.424-.141-.847-.365-1.262-.63-1.17-1.21-2.349-2.039-3.511-1.616-2.249-2.362-4.557-4.111-6.798-1.036-1.336-1.409-2.723-2.221-4.067-.588-.98-1.061-1.959-2.561-2.872-.787-.482-1.077-1.079-1.152-1.635-.249-1.893-1.517-3.727-2.868-5.553-1.392-1.876-2.701-3.769-4.218-5.636-1.915-2.366-4.011-4.707-5.992-7.064a3.475 3.475 0 0 1-.63-1.104c-.796-2.249-2.81-4.416-4.409-6.607-1.915-2.623-4.078-5.213-5.537-7.877-.978-1.776-2.95-3.503-4.633-5.238-1.044-1.079-1.947-2.133-2.13-3.286-.207-1.304-1.21-2.598-2.13-3.885-1.533-2.133-3.29-4.242-4.914-6.366-.233-.299-.266-.623-.307-.93-.265-2.2-1.177-4.349-2.984-6.483-1.533-1.809-3.216-3.652-3.564-5.503-.348-1.843-1.583-3.586-2.942-5.345-.464-.606-.406-1.245-.688-1.868-1.027-2.291-1.997-4.59-3.174-6.873-.796-1.552-1.426-3.096-1.086-4.681.067-.307-.207-.623-.348-.93-1.268-2.789-2.08-5.611-3.97-8.35-1.483-2.158-1.135-4.358-2.445-6.499-.588-.971-.248-1.992-.381-2.996-.083-.623-.149-1.254-.448-1.868-1.574-3.287-3.157-6.566-2.536-9.919.125-.689-.24-1.378-.157-2.067.083-.68.423-1.369.704-2.05.464-1.129 2.934-1.76 5.935-2.216 3.016-.448 6.448-.515 8.909.672.854.415 1.881.797 2.951 1.245 1.409-.091 2.751-.257 4.077-.249 4.683.025 7.998.938 9.15 2.49 1.036 1.403 1.931 2.814 2.926 4.217.116.166.439.315.655.456 1.45-.033 1.036-.34 1.019-.547-.133-1.694-.497-3.379-.39-5.072.05-.863.796-1.735 1.443-2.59.745-.979 2.494-1.693 5.876-1.942 1.326-.1 2.536-.349 4.119-.581.257-.863.563-1.735.746-2.598.373-1.76 3.572-2.797 9.042-2.913 5.271-.108 9.324.871 10.095 2.49.414.863.563 1.743.845 2.614.182.565.323 1.121.589 1.685.762 1.611 1.508 3.221 2.395 4.823 1.019 1.851 2.271 3.685 3.273 5.536 1.244 2.283 2.255 4.574 3.531 6.856 1.276 2.283 2.752 4.549 4.136 6.815.149.249.389.49.472.739 1.235 3.685 4.186 7.262 6.059 10.906.978 1.909 1.715 3.852 3.315 5.711 1.765 2.058 2.312 4.192 4.567 6.217 1.16 1.046 1.475 2.191 1.931 3.304 1.036 2.556 3.522 5.005 5.387 7.503 2.412 3.229 5.08 6.441 7.6 9.662.431.548.746 1.104.961 1.66.315.813.904 1.577 2.13 2.324 1.078.656 1.567 1.411 2.18 2.141 1.028 1.204 1.873 2.432 2.926 3.636 1.798 2.042 3.696 4.075 5.553 6.117 2.014 2.217 3.986 4.424 6.033 6.641 1.998 2.158 3.945 4.324 6.109 6.474 2.643 2.615 5.569 5.204 8.196 7.827 1.252 1.245 3.034 2.457 2.652 3.827-.058.224.216.556.722.672 2.014.457 2.171 1.17 2.842 1.818 2.304 2.191 4.55 4.391 6.796 6.59.547.54 1.119 1.071 1.443 1.627.721 1.245 2.171 2.382 3.82 3.528 2.114 1.477 3.423 3.063 5.097 4.598 3.025 2.781 6.034 5.553 9.084 8.334a960.625 960.625 0 0 0 7.302 6.549c.248.224.671.423.953.606 1.467 0 1.45-.282 1.334-.515-1.351-2.531-2.768-5.063-4.127-7.595-1.716-3.212-3.357-6.424-5.114-9.636-.646-1.171-1.517-2.333-2.312-3.495-1.799-2.631-3.68-5.254-5.404-7.894-1.127-1.718-1.989-3.453-3.05-5.171-1.185-1.901-2.486-3.801-3.688-5.702-.464-.739-.754-1.486-1.177-2.225-2.636-4.623-6.622-9.147-10.136-13.712-1.782-2.307-3.415-4.631-5.263-6.939-2.768-3.453-5.744-6.889-8.487-10.351-1.591-2-3.008-4.017-4.335-6.042-2.735-4.167-5.345-8.342-8.014-12.509-.075-.124-.207-.241-.273-.365-2.205-4.009-4.476-8.018-6.589-12.027-.779-1.478-1.119-2.988-1.824-4.474-.613-1.295-1.5-2.582-2.204-3.877-.672-1.228-1.351-2.465-1.89-3.702-1.542-3.535-2.942-7.071-4.542-10.607-1.26-2.789-2.685-5.57-4.119-8.351-1.251-2.423-1.948-4.847-.622-7.304.713-1.336 4.899-2.689 9.117-2.888 3.017-.15 7.352.614 8.777 1.593.564.39 1.011.839 1.036 1.262.149 2.324 1.003 4.615 2.578 6.889 1.052 1.519 1.243 3.096 1.931 4.64.63 1.428 1.45 2.839 2.122 4.267 1.168 2.481 2.179 4.963 3.447 7.437.821 1.602 2.006 3.187 2.951 4.781.439.738.862 1.485.978 2.232.166 1.071.762 2.084 1.633 3.13 1.45 1.743 2.113 3.552 3.099 5.329.166.307.232.622.415.929a579.58 579.58 0 0 0 4.276 7.388c.547.921 1.21 1.842 1.84 2.755.249.366.837.739.746 1.096-.307 1.154 1.094 2.208 1.699 3.303 1.484 2.706 2.826 5.429 4.882 8.093 1.782 2.308 2.751 4.657 4.309 6.981 2.172 3.237 3.689 6.516 6.067 9.728 2.561 3.47 4.426 6.981 7.202 10.434 1.898 2.357 3.374 4.747 5.114 7.121.398.548 1.136 1.063 1.641 1.602 4.235 4.499 8.678 8.973 12.159 13.547 1.11 1.46 2.793 2.871 4.21 4.299 1.417 1.428 2.826 2.864 4.243 4.291 1.716 1.727 3.349 3.47 5.155 5.188 4.004 3.793 8.09 7.587 12.167 11.372 1.591 1.477 3.166 2.955 4.915 4.415.522.432 1.003.938 3.091 1.262-.016-.531.108-.938-.066-1.336-.887-1.984-1.865-3.968-2.793-5.952-1.301-2.788-2.329-5.594-3.928-8.366-2.802-4.873-5.96-9.72-8.951-14.576-2.039-3.32-3.995-6.648-6.076-9.969-2.627-4.175-5.345-8.35-8.014-12.525-1.45-2.274-2.553-4.573-4.393-6.806-3.24-3.943-5.461-7.952-8.08-11.936-2.014-3.063-3.639-6.151-5.487-9.222-1.508-2.523-3.083-5.038-4.633-7.553-.265-.432-.564-.855-.787-1.287-1.451-2.847-2.918-5.686-4.318-8.541-.73-1.486-1.351-2.98-1.998-4.465-2.569-5.96-5.089-11.92-7.716-17.879a147.317 147.317 0 0 0-4.185-8.732c-.937-1.793-1.882-3.595-3.382-5.346-1.964-2.283-1.79-4.582-1.425-6.898.091-.597.911-1.112 2.461-1.46 2.835-.631 5.785-1.088 9.507-.864 4.127.249 7.956 1.345 7.989 2.632.025 1.319.149 2.606 1.136 3.909.961 1.262.82 2.615 1.467 3.91 1.707 3.394 3.083 6.814 5.039 10.192 1.176 2.026 1.914 4.084 2.934 6.126 1.541 3.088 2.917 6.192 4.815 9.263 1.218 1.959 1.798 3.951 3.05 5.91.505.797.911 1.61 1.732 2.374 1.334 1.253 2.553 2.507 2.818 3.827.356 1.776 3.141 3.328 4.02 5.063.911 1.784 2.196 3.561 3.505 5.32 1.442 1.943 2.512 3.918 4.642 5.819 1.251 1.112 1.649 2.316 2.494 3.478 1.741 2.374 3.523 4.748 5.296 7.13 1.592 2.133 3.166 4.266 4.799 6.391.655.847 1.401 1.693 2.171 2.532 2.81 3.063 5.645 6.125 8.463 9.188.422.457.679.946 2.701 1.22 1.094-.78.365-1.527.531-2.249.174-.747.273-1.502.348-2.258.074-.755-.025-1.502.149-2.257.174-.731-.514-1.536 1.707-2.192 2.048-.016 3.639.249 4.567.888 2.039 1.411 4.766 2.698 5.785 4.283.804 1.254 3.05 2.416 4.658 3.619.307.233.854.457.903.689.373 1.685.755 3.379.904 5.064.074.805-.431 1.626-.547 2.44-.299 2.042-1.873 3.984-4.89 5.794-.912.547-2.188 1.062-3.547 1.518-2.57.872-5.595 1.436-9.615 1.171-.936-.058-1.964 0-3.364 0-.042.465-.315.896-.075 1.286 1.84 2.947 3.854 5.885 5.686 8.832 1.176 1.901 2.113 3.818 3.199 5.727 1.019 1.785 2.163 3.569 3.149 5.362 2.163 3.943 4.434 7.886 6.316 11.845.911 1.917 1.193 3.868 1.467 5.81.298 2.142-.771 4.258-2.404 6.35-1.144 1.461-4.094 2.606-7.401 3.619-3.208.988-8.189.988-12.142.133-2.536-.548-4.301-1.287-5.42-2.183-1.683-1.337-3.332-2.673-5.006-4.009-.713-.573-1.045-1.212-3.117-1.71-.314.257-.779.456-.754.647.149 1.187.448 2.382.614 3.569.198 1.395-.597 2.756-1.774 4.093-1.003 1.145-3.232 2.008-6.282 2.697-2.122.473-4.343.581-6.838.357-4.202-.382-7.699-1.037-9.747-2.283-2.279-1.386-4.732-2.747-6.597-4.191-3.895-3.013-7.401-6.068-11.18-9.097-.912-.731-1.335-1.561-3.664-2.242.208.739.175 1.37.581 1.968 1.201 1.776 2.71 3.527 3.854 5.304 2.652 4.108 5.387 8.217 7.641 12.351 1.591 2.905 2.047 5.86.166 8.806-.564.888-1.575 1.685-3.838 2.299-2.991.814-6.257 1.121-9.995.631-1.823-.24-3.597-.514-5.776-.838-.291.299-.639.564-.813.847-.779 1.228-1.409 2.465-2.279 3.693-.779 1.088-3.033 1.901-5.569 2.648-4.343 1.278-8.951.98-12.565.166-1.591-.357-3.05-.772-4.558-1.162-1.409.108-2.545.241-3.705.291-5.512.249-10.302-.681-12.101-2.341-1.475-1.361-2.9-2.731-4.384-4.092-.307-.274-.439-.631-2.171-.623-.042.598-.067 1.195-.133 1.801-.066.631-.008 1.262-.307 1.885-.472.987-1.11 1.975-1.831 2.946-.265.357-.862.714-1.484 1.029-4.268 2.2-8.23 1.926-14.263 1.096a4.626 4.626 0 0 1-1.89-.689 6.71 6.71 0 0 1-1.533-1.411c-2.395-3.038-4.791-6.076-7.078-9.122-.771-1.029-1.044-2.108-1.857-3.138-2.478-3.154-5.155-6.291-7.658-9.445-.961-1.212-1.541-2.457-2.503-3.669-1.972-2.482-4.077-4.955-6.1-7.396-.862-.066-1.442-.116-1.989-.166 2.313-.73 1.152-1.427-.19-2.183.082.764.165 1.469.24 2.175l-.025-.025zm-28.096-111.665c.381 3.428 1.89 6.59 3.439 9.736 1.459 2.972 3.026 5.935 4.567 8.907 2.089 4.017 4.127 8.034 6.332 12.043 1.392 2.532 2.876 5.055 4.633 7.562 2.188 3.113 4.724 6.201 7.078 9.297 2.636 3.469 5.188 6.939 7.874 10.408 1.458 1.884 3.108 3.752 4.674 5.62.804.962 1.641 1.925 2.437 2.896 1.84 2.242 3.655 4.483 5.519 6.724.29.348.456.747 1.907.855.19-.1.513-.191.547-.291a.542.542 0 0 0-.108-.556c-2.221-2.399-4.202-4.822-5.106-7.321-.157-.423-.787-.838-1.185-1.253-.389-.415-.828-.83-1.127-1.254-1.301-1.892-2.511-3.793-3.862-5.677-.87-1.22-2.047-2.415-2.868-3.636-1.359-2.017-2.436-4.059-3.82-6.076-1.89-2.755-4.086-5.486-4.907-8.3-.108-.365-.63-.714-.887-1.079-2.146-2.988-4.417-5.968-6.365-8.973-2.271-3.494-4.227-7.005-6.357-10.508-1.425-2.332-2.942-4.665-4.359-7.005-.97-1.602-1.699-3.213-2.777-4.806-1.599-2.366-3.414-4.723-5.296-7.305l.017-.008zm108.357 102.402c.754-1.054-.216-1.826-.763-2.598-2.586-3.652-5.288-7.296-7.923-10.94-.572-.789-.97-1.594-1.558-2.382-2.495-3.337-4.965-6.682-7.6-10.011-.854-1.079-2.445-2.1-3.282-3.179-.846-1.087-1.119-2.216-1.741-3.32-.157-.274-.273-.639-1.657-.631-1.335.291-.779.664-.44.996 1.791 1.719 2.777 3.47 3.539 5.279 1.326 3.146 3.539 6.251 5.512 9.363.853 1.345 2.287 2.656 3.025 4.009 2.337 4.258 6.912 8.326 10.592 12.468.273.307 1.276.547 2.304.962l-.008-.016zm-58.754-27.4c-.041.05-.132.1-.107.15.016.025.248.033.389.041.042-.05.133-.099.1-.149-.017-.025-.249-.033-.382-.042zM436 340.081h.406l-.183-.141-.215.141H436z" opacity=".5"/></g><path fill="#FDFCFC" d="M415.081 342.057H314.357v1.66h100.724v-1.66zm43.163 13.081H314.357v1.66h143.887v-1.66zm0 13.082H314.357v1.66h143.887v-1.66zm-88.026 13.081h-55.861v1.66h55.861v-1.66z"/><path fill="#B1E0EF" d="M581.777 186.2h-155.01v85.071h155.01V186.2z"/><path fill="#483D89" d="M581.777 186.2h-155.01v14.227h155.01V186.2z"/><path fill="#B1E0EF" d="M435.494 192.334h-4.127v1.66h4.127v-1.66zm8.039 0h-4.127v1.66h4.127v-1.66zm8.048 0h-4.128v1.66h4.128v-1.66z"/><path fill="#B984FD" d="M444.934 254.604h-6.614v6.25h6.614v-6.25z"/><path fill="#483D89" d="M478.484 254.604h-31.213v6.25h31.213v-6.25z"/><path fill="#B984FD" d="M494.007 254.604h-6.614v6.25h6.614v-6.25z"/><path fill="#483D89" d="M523.504 254.604h-27.16v6.25h27.16v-6.25z"/><path fill="#B984FD" d="M540.047 254.604h-6.614v6.25h6.614v-6.25z"/><path fill="#483D89" d="M569.543 254.604h-27.159v6.25h27.159v-6.25z"/><path fill="#FDFCFC" d="M556.772 226.764H438.32v1.66h118.452v-1.66zm-41.971 11.297H438.32v1.66h76.481v-1.66zm-27.325-24.61H438.32v1.66h49.156v-1.66z"/><path fill="#483D89" d="m361.143 89.426-1.418 5.503 10.783-3.087 27.218 7.022 6.481-25.184-36.583-9.445-6.481 25.191z"/><path fill="#FDFCFC" d="m375.796 75.218-.413 1.608 16.429 4.24.413-1.608-16.429-4.24zm-1.646 6.378-.414 1.608 16.429 4.24.413-1.608-16.428-4.24z"/><path fill="#FFA6DE" d="m347.766 80.943-32.522-8.391c-3.63-.938-7.36 1.27-8.296 4.905l-4.816 18.718c-.936 3.635 1.268 7.37 4.899 8.308l21.208 5.478 6.954 11.804 2.412-9.388 1.931.498c3.63.938 7.36-1.27 8.296-4.906l4.815-18.717c.937-3.636-1.268-7.37-4.898-8.309h.017z"/><path fill="#FDFCFC" d="m333.643 94.315-7.177 2-7.178 2.001 1.857-7.221 1.865-7.23 5.321 5.23 5.312 5.22z"/><path fill="#483D89" d="M341.376 16.607a4.72 4.72 0 0 1-3.116-1.17 4.705 4.705 0 0 1-1.625-3.262 4.755 4.755 0 0 1 1.152-3.462 4.693 4.693 0 0 1 3.257-1.627c2.611-.19 4.899 1.802 5.089 4.425a4.783 4.783 0 0 1-4.417 5.096c-.116 0-.232.008-.34.008v-.008zm.008-7.877h-.224a3.075 3.075 0 0 0-2.121 1.062 3.085 3.085 0 0 0-.755 2.258c.058.83.431 1.585 1.061 2.133a3.064 3.064 0 0 0 2.255.756 3.11 3.11 0 0 0-.216-6.21zm-12.722 21.008-.215-3.096.223-.257c3.233-3.727 8.893-4.125 12.615-.888l.074.066 9.49-10.94c3.398-3.918 9.349-4.34 13.269-.938l-1.086 1.254c-3.224-2.806-8.13-2.457-10.932.772l-10.575 12.193-1.326-1.154a7.277 7.277 0 0 0-10.045.482l.166 2.398-1.658.117v-.009z"/><path fill="#483D89" d="M338.508 38.105a9.866 9.866 0 0 1-6.506-2.44 9.875 9.875 0 0 1-3.398-6.815l-1.185-16.833c-.39-5.478 3.746-10.243 9.216-10.633L353.443.197c5.478-.39 10.227 3.752 10.617 9.23l1.185 16.833c.39 5.479-3.746 10.243-9.216 10.633l-16.808 1.187c-.24.017-.481.025-.713.025zm15.64-36.273c-.199 0-.39 0-.589.017l-16.808 1.187c-4.558.324-8.006 4.3-7.683 8.856l1.185 16.834a8.243 8.243 0 0 0 2.835 5.677 8.229 8.229 0 0 0 6.017 2.009l16.808-1.187c4.558-.324 8.006-4.3 7.683-8.857l-1.185-16.833c-.307-4.366-3.954-7.711-8.255-7.711l-.008.008zm-1.036 65.822-1.111-1.236s1.102-1.013 1.616-2.59c.663-2.042.075-4.109-1.765-6.126-1.111-1.22-2.296-1.793-3.44-1.984a20.375 20.375 0 0 1-.439 3.08c-1.716 7.644-5.569 8.674-6.705 8.806-1.434.166-2.702-.431-3.232-1.527-1.708-3.544.804-8.051 4.227-10.367 1.309-.888 2.884-1.544 4.525-1.693-.141-6.582-3.547-11.695-3.589-11.754l1.368-.938c.182.274 3.779 5.653 3.887 12.717 1.599.215 3.199.98 4.616 2.54 1.732 1.9 2.553 3.91 2.445 5.96-.157 3.046-2.329 5.03-2.42 5.112h.017zm-6.349-11.969c-1.624.2-2.967.988-3.564 1.395-2.776 1.876-4.964 5.57-3.663 8.267.215.44.837.68 1.55.598 1.782-.208 4.111-2.291 5.279-7.52.207-.93.332-1.852.398-2.748v.008z"/><path fill="#FFA6DE" d="M808.013 399.255H531.966v110.162h276.047V399.255z"/><path fill="#FDFCFC" d="M591.896 492.236a.832.832 0 0 1-.829-.83v-32.007h-7.857v32.007c0 .456-.373.83-.828.83a.832.832 0 0 1-.829-.83v-32.837c0-.456.373-.83.829-.83h9.514c.456 0 .829.374.829.83v32.837c0 .456-.373.83-.829.83z"/><path fill="#483D89" d="M616.619 492.236a.832.832 0 0 1-.829-.83v-56.368h-7.865v56.368c0 .456-.373.83-.829.83a.832.832 0 0 1-.829-.83v-57.198c0-.457.373-.83.829-.83h9.523c.456 0 .829.373.829.83v57.198c0 .456-.373.83-.829.83z"/><path fill="#FDFCFC" d="M641.342 492.236a.832.832 0 0 1-.829-.83v-15.057h-7.865v15.057c0 .456-.373.83-.829.83a.832.832 0 0 1-.829-.83v-15.887c0-.457.373-.83.829-.83h9.523c.456 0 .829.373.829.83v15.887c0 .456-.373.83-.829.83z"/><path fill="#483D89" d="M666.065 492.236a.832.832 0 0 1-.829-.83v-37.302h-7.857v37.302c0 .456-.373.83-.829.83a.832.832 0 0 1-.828-.83v-38.132c0-.457.373-.83.828-.83h9.515c.456 0 .829.373.829.83v38.132c0 .456-.373.83-.829.83z"/><path fill="#FDFCFC" d="M690.788 492.236a.832.832 0 0 1-.829-.83v-50.542h-7.865v50.542c0 .456-.373.83-.829.83a.832.832 0 0 1-.829-.83v-51.372c0-.456.373-.83.829-.83h9.523c.456 0 .829.374.829.83v51.372c0 .456-.373.83-.829.83z"/><path fill="#483D89" d="M715.511 492.236a.832.832 0 0 1-.829-.83v-6.051h-7.865v6.051c0 .456-.373.83-.829.83a.832.832 0 0 1-.829-.83v-6.881c0-.457.373-.831.829-.831h9.523c.456 0 .829.374.829.831v6.881c0 .456-.373.83-.829.83z"/><path fill="#FDFCFC" d="M740.234 492.236a.832.832 0 0 1-.829-.83V446.16h-7.857v45.246c0 .456-.373.83-.829.83a.832.832 0 0 1-.828-.83V445.33c0-.456.373-.83.828-.83h9.515c.456 0 .829.374.829.83v46.076c0 .456-.373.83-.829.83z"/><path fill="#483D89" d="M764.957 492.236a.832.832 0 0 1-.829-.83v-27.242h-7.865v27.242c0 .456-.373.83-.829.83a.832.832 0 0 1-.829-.83v-28.072c0-.457.373-.83.829-.83h9.523c.456 0 .829.373.829.83v28.072c0 .456-.373.83-.829.83z"/><path fill="#FDFCFC" d="M789.68 492.236a.832.832 0 0 1-.829-.83v-15.057h-7.865v15.057c0 .456-.373.83-.829.83a.832.832 0 0 1-.829-.83v-15.887c0-.457.373-.83.829-.83h9.523c.456 0 .829.373.829.83v15.887c0 .456-.373.83-.829.83zm-.785-83.361-1.172 1.174 7.666 7.677 1.172-1.174-7.666-7.677z"/><path fill="#FDFCFC" d="m795.38 408.833-7.665 7.677 1.172 1.174 7.665-7.677-1.172-1.174z"/><path fill="#483D89" d="M578.519 420.736h-7.757a.832.832 0 0 1-.829-.83v-7.769c0-.457.373-.83.829-.83h7.757c.456 0 .829.373.829.83v7.769c0 .457-.373.83-.829.83zm-6.928-1.66h6.1v-6.109h-6.1v6.109zm29.654-2.225h-16.924a.832.832 0 0 1-.829-.83c0-.456.373-.83.829-.83h16.924c.456 0 .829.374.829.83 0 .457-.373.83-.829.83z"/><path fill="#FDFCFC" d="M578.519 434.506h-7.757a.832.832 0 0 1-.829-.83v-7.769c0-.456.373-.83.829-.83h7.757c.456 0 .829.374.829.83v7.769c0 .457-.373.83-.829.83zm-6.928-1.66h6.1v-6.109h-6.1v6.109z"/><path fill="#483D89" d="M601.245 430.622h-16.924a.832.832 0 0 1-.829-.83c0-.457.373-.83.829-.83h16.924c.456 0 .829.373.829.83 0 .456-.373.83-.829.83z"/><path fill="#FDFCFC" d="M415.711 195.464H299.812a.832.832 0 0 1-.829-.83v-56.617c0-.457.373-.83.829-.83h115.899c.455 0 .828.373.828.83v56.617c0 .456-.373.83-.828.83zm-115.07-1.66h114.241v-54.957H300.641v54.957z"/><path fill="#FDFCFC" d="M415.711 195.464H299.812a.832.832 0 0 1-.829-.83v-56.617a.84.84 0 0 1 .389-.706.839.839 0 0 1 .804-.041l115.899 56.617a.825.825 0 0 1-.356 1.568l-.008.009zm-115.07-1.66h111.481l-111.481-54.459v54.459z"/><path fill="#FDFCFC" d="M299.812 195.464a.829.829 0 0 1-.829-.83v-56.617c0-.457.373-.83.829-.83h115.899c.389 0 .721.265.804.639a.832.832 0 0 1-.448.929l-115.899 56.617a.809.809 0 0 1-.365.083l.009.009zm.829-56.617v54.459l111.481-54.459H300.641z"/><path fill="#483D89" d="M362.825 190.708h-1.657v25.457h1.657v-25.457z"/><path fill="#483D89" d="M374.702 202.602h-25.419v1.66h25.419v-1.66zm1.334 16.908h-1.657v10.666h1.657V219.51z"/><path fill="#483D89" d="M380.537 224.009h-10.651v1.66h10.651v-1.66z"/><path fill="#FDFCFC" d="m664.756 261.244-26.837 2.59-12.009-22.179 20.554-11.172 18.292 30.761z"/><path fill="#483D89" d="M637.919 264.664a.842.842 0 0 1-.729-.432l-12.018-22.178a.842.842 0 0 1 .332-1.129l20.562-11.172a.832.832 0 0 1 1.111.307l18.283 30.761a.827.827 0 0 1 .025.797.813.813 0 0 1-.663.448l-26.837 2.59h-.082l.016.008zm-10.89-22.677 11.354 20.967 24.988-2.407-17.214-28.952-19.128 10.392zm-2.943-35.185s-5.726 13.397-8.851 13.696c-3.125.298-11.396-.332-12.183-5.96-.788-5.628 1.574-4.731 3.97-5.287 2.395-.557.472-6.109 1.939-6.691 1.467-.581 3.323-.323 6.929.598 3.605.93 8.188 3.644 8.188 3.644h.008z"/><path fill="#FDFCFC" d="M645.561 241.315c4.003-3.984 6.555-9.529 6.713-15.721.331-12.509-9.216-22.635-21.3-23.233-19.833-.979-23.322 16.726-22.833 20.386.116.855.223 1.685.323 2.49.008 1.37.141 2.714.373 4.018.132 2.871-.183 5.146-1.517 6.532-2.047 2.125 9.166 20.684 22.817 11.878l15.415-6.35h.009z"/><path fill="#483D89" d="M622.487 250.819c-3.73 0-8.222-1.561-12.631-6.931-2.561-3.121-4.525-7.221-3.124-8.682 1.019-1.063 1.417-2.872 1.284-5.86a23.614 23.614 0 0 1-.373-4.051c-.099-.788-.207-1.602-.323-2.44-.348-2.59.97-9.57 5.719-14.75 4.343-4.739 10.384-6.947 17.976-6.574 12.731.631 22.436 11.206 22.088 24.088-.166 6.2-2.636 11.977-6.962 16.285a.827.827 0 0 1-1.169-1.17c4.02-4.001 6.316-9.388 6.473-15.157.315-11.969-8.694-21.796-20.513-22.377-7.069-.349-12.68 1.685-16.675 6.034-4.666 5.096-5.52 11.704-5.296 13.405.116.863.224 1.693.332 2.499v.099c.008 1.303.132 2.606.356 3.868 0 .033.008.075.016.108.166 3.519-.373 5.719-1.748 7.147-.332.672 1.317 5.104 5.437 8.806 2.983 2.681 9.067 6.483 16.327 1.802a.83.83 0 0 1 1.144.249.833.833 0 0 1-.249 1.145c-1.318.847-4.318 2.457-8.097 2.457h.008z"/><path fill="#483D89" d="M632.731 197.198c-8.081-.215-15.325 3.777-19.783 10.044a24.743 24.743 0 0 1 6.58-.722c15.349.406 27.425 14.766 26.961 32.064a35.488 35.488 0 0 1-.191 2.847c5.62-4.349 9.333-11.214 9.54-19.033.356-13.571-9.987-24.851-23.107-25.2z"/><path fill="#483D89" d="m642.129 208.678 8.993 24.992.928 6.392-6.183 2.531a5.045 5.045 0 0 1-5.818-1.469l-7.384-8.973c.124.017.248.042.373.05a5.236 5.236 0 0 0 5.37-5.105 5.236 5.236 0 1 0-10.468-.273v.041c-.737.091-2.544.183-2.643-1.262-.116-1.809-2.719-5.561-3.531-8.864-.812-3.304 3.158-4.831-.116-5.006-6.183-.315-10.791-5.162-10.791-5.162 10.103-9.206 31.246 2.1 31.246 2.1l.024.008zm-27.068 35.492a.826.826 0 0 1-.688-.373.84.84 0 0 1 .232-1.154c1.276-.847 1.351-2.548 1.351-2.565a.833.833 0 0 1 .829-.805h.025a.83.83 0 0 1 .804.847c0 .108-.092 2.573-2.097 3.901a.845.845 0 0 1-.456.141v.008z"/><path fill="#483D89" d="M631.032 228.74a.825.825 0 0 1-.821-.722c-.016-.1-.298-2.557 1.476-4.175a.828.828 0 1 1 1.11 1.228c-1.127 1.029-.953 2.723-.945 2.739a.836.836 0 0 1-.721.922h-.099v.008zm-15.208-4.333a.828.828 0 0 1-.78-.556c-.174-.481-1.019-1.162-2.08-1.428-.771-.191-1.898-.232-2.876.664a.825.825 0 0 1-1.168-.049.83.83 0 0 1 .049-1.171c1.186-1.087 2.752-1.461 4.401-1.054 1.525.382 2.86 1.403 3.249 2.49a.84.84 0 0 1-.779 1.112l-.016-.008zm-2.628 4.565c-.099.673-.563 1.162-1.044 1.088-.481-.067-.796-.673-.696-1.345.099-.672.563-1.162 1.044-1.087.481.066.796.672.696 1.344zm14.662 18.942 3.845 7.097a17.14 17.14 0 0 0 3.929-10.492 17.465 17.465 0 0 0-.506-4.632 17.259 17.259 0 0 1-7.268 8.027z"/><path fill="#FDFCFC" d="M647.044 282.858c.804-7.495-3.663-12.99-5.735-15.04-2.08-2.05-5.346-1.984-9.009-.622-3.663 1.369-7.235 7.254-9.448 10.01-2.205 2.756-8.636 17.771-8.636 17.771s-8.346 24.677-10.824 36.97l-45.7 10.94 7.691 6.914 65.011 4.416c10.691.73 18.598-7.886 13.02-14.186l-10.003-11.313c1.906-4.349 3.63-8.74 5.022-12.376 4.227-11.048 7.807-25.997 8.611-33.492v.008z"/><path fill="#483D89" d="M631.645 355.105c-.431 0-.87-.017-1.301-.042l-65.011-4.415a.86.86 0 0 1-.497-.208l-7.691-6.914a.828.828 0 0 1-.249-.822.843.843 0 0 1 .613-.606l45.186-10.823c2.578-12.368 10.659-36.306 10.742-36.555.29-.681 6.522-15.215 8.768-18.029.456-.573.995-1.311 1.567-2.091 2.279-3.13 5.122-7.023 8.238-8.185 4.301-1.602 7.716-1.328 9.879.805 1.625 1.602 6.871 7.479 5.984 15.721-.796 7.396-4.335 22.387-8.661 33.7-1.268 3.32-2.95 7.636-4.823 11.928l9.655 10.915c2.196 2.49 2.644 5.569 1.227 8.466-2.114 4.316-7.6 7.138-13.617 7.138l-.009.017zm-65.914-6.101 64.729 4.399c6.548.449 11.653-2.772 13.319-6.175 1.127-2.291.779-4.648-.978-6.632l-10.004-11.314a.848.848 0 0 1-.141-.888c1.94-4.416 3.697-8.914 5.006-12.342 4.277-11.189 7.774-25.989 8.562-33.285.804-7.503-4.003-12.89-5.495-14.36-2.105-2.075-5.586-1.386-8.139-.431-2.644.988-5.437 4.814-7.476 7.603a68.19 68.19 0 0 1-1.608 2.15c-1.69 2.108-6.307 12.425-8.52 17.58-.058.183-8.337 24.71-10.774 36.804a.853.853 0 0 1-.622.647l-44.166 10.575 6.299 5.669h.008z"/><path fill="#B1E0EF" d="M642.196 321.779c4.367-16.385 7.766-35.725 8.47-45.619.779-10.981-5.172-17.223-7.915-19.398-2.752-2.175-6.962-.905-11.628 2.366-4.674 3.27-9.075 12.965-11.827 17.696-2.113 3.636-7.186 18.518-9.423 25.192.928.639 1.856 1.278 2.793 1.917 9.862 6.682 19.767 12.642 29.521 17.854l.009-.008z"/><path fill="#FDFCFC" d="m499.303 473.053-8.736 20.668-24.2 3.445 17.454-37.883 15.482 13.77z"/><path fill="#B984FD" d="M495.441 487.87v22.319h-54.9c-4.608 0-5.37-8.317-1.235-12.4l34.462-14.676s5.163 13.015 21.673 4.748v.009z"/><path fill="#483D89" d="M495.441 502.76v-14.89c-16.51 8.267-21.673-4.748-21.673-4.748l-34.462 14.675c-1.359 1.345-2.179 3.154-2.519 4.963h58.662-.008z"/><path fill="#FDFCFC" d="m545.74 471.435-3.422 20.668-22.055 3.444 7.65-37.883 17.827 13.771z"/><path fill="#B984FD" d="M544.696 487.87v22.319h-54.899c-4.608 0-5.371-8.317-1.235-12.4l34.461-14.676s5.164 13.015 21.673 4.748v.009z"/><path fill="#483D89" d="M544.696 502.76v-14.89c-16.509 8.267-21.673-4.748-21.673-4.748l-34.461 14.675c-1.359 1.345-2.18 3.154-2.52 4.963h58.654zm110.189-149.523H530.159a20.531 20.531 0 0 0-19.129 13.09l-38.572 99.065 27.964 11.421 39.218-90.275s94.541 20.262 108.134 2.192l4.492-5.968a27.575 27.575 0 0 0 3.911-25.906l-1.301-3.627.009.008z"/><path fill="#483D89" d="m678.812 351.229-120.747 3.785c-12.971.406-23.604 10.433-24.798 23.374l-11.388 98.724 26.381 4.043 20.728-82.224h87.438c17.14 0 29.646-16.219 25.336-32.828-2.295-8.873-3.887-15.829-2.95-14.883v.009z"/><path fill="#FDFCFC" d="M539.649 479.569c-.067 0-.133 0-.199-.025a.83.83 0 0 1-.613-1.004l22.883-95.164a.832.832 0 0 1 .804-.639h75.677c13.915 0 25.245-11.338 25.245-25.283v-5.429c0-.456.373-.83.829-.83.456 0 .829.374.829.83v5.429c0 14.858-12.068 26.943-26.903 26.943h-75.023l-22.725 94.525a.83.83 0 0 1-.804.639v.008z"/><path fill="#B1E0EF" d="m624.708 352.847-2.942-59.223a88.282 88.282 0 0 1 6.572-23.473l6.432-14.742s28.071-5.736 32.92 2.316c15.332 25.499 30.499 108.859 30.499 108.859s-4.848 13.746-23.422 8.898c-25.974-6.789-50.067-22.643-50.067-22.643l.008.008z"/><path fill="#483D89" d="M615.757 350.739s.033-.058.042-.083v-2.507H511.453s1.243 2.565 1.26 2.59l.265.465c1.326 2.174 2.296 2.565 3.697 2.565H595.8c16.004 0 18.374-.391 19.7-2.565l.265-.465h-.008z"/><path fill="#483D89" d="m575.784 348.332-27.085-51.006c-.721-1.353-2.387-2.44-3.729-2.44h-59.359c-1.342 0-1.856 1.087-1.135 2.44l27.085 51.006h64.223z"/><path fill="#FDFCFC" d="M533.988 324.277c.688 2.598-.87 4.715-3.464 4.715s-5.263-2.117-5.951-4.715c-.688-2.606.862-4.723 3.464-4.723 2.603 0 5.263 2.117 5.951 4.723zm147.426-21.008c-4.774-14.625-33.964-.008-33.964-.008s4.211 14.459 8.487 26.179l-38.655 1.403c-7.219-1.386-17.388-3.843-18.366-3.636-.978.208-6.78 2.997-11.089 5.42-2.785 1.569-3.572 7.097-4.037 8.085-1.168 2.498-3.174 6.981 6.457 7.819 3.008.257 13.584-1.419 13.642-2.905.041-1.137 10.26 4.615 15.755 2.615 2.412-.88 4.376-2.499 5.611-4.69l48.393 13.214c6.797 1.859 13.212-.481 15.598-4.374.174-.158.34-.332.489-.523 5.073-6.408-3.207-32.936-8.321-48.599z"/><path fill="#483D89" d="M678.356 358.226c-1.624 0-3.282-.216-4.923-.656l-47.797-13.048c-1.334 2.075-3.298 3.627-5.718 4.499-3.846 1.394-9.449-.59-13.153-1.901-.854-.299-1.799-.639-2.313-.764a1.812 1.812 0 0 1-.248.274c-1.857 1.635-11.222 2.972-14.032 2.731-4.144-.357-6.663-1.411-7.708-3.22-1.176-2.042-.082-4.383.564-5.778.075-.157.207-.647.331-1.112.597-2.224 1.592-5.951 4.053-7.346 4.144-2.332 10.17-5.262 11.322-5.503.712-.149 3.066.332 9.63 1.752 2.901.622 6.183 1.328 8.968 1.867l37.428-1.361c-4.102-11.413-8.072-25.017-8.114-25.159a.823.823 0 0 1 .423-.971c.796-.398 19.576-9.695 29.638-5.495 2.71 1.138 4.558 3.146 5.486 5.985 6.83 20.9 13.145 43.112 8.189 49.379a7.405 7.405 0 0 1-.489.54c-2.122 3.345-6.63 5.303-11.545 5.303l.008-.016zm-53.101-15.505c.075 0 .149.008.216.033l48.393 13.214c6.788 1.851 12.631-.68 14.678-4.009a.754.754 0 0 1 .149-.174c.149-.141.282-.274.398-.424 5.072-6.407-4.766-36.496-8.462-47.826-.779-2.391-2.271-4.018-4.55-4.972-8.388-3.511-24.292 3.577-27.632 5.146.887 2.988 4.575 15.322 8.271 25.449a.825.825 0 0 1-.091.747.81.81 0 0 1-.655.365l-38.655 1.411c-.066 0-.124 0-.182-.016-2.826-.54-6.158-1.262-9.1-1.893-3.904-.838-8.338-1.801-8.984-1.743-.771.166-6.44 2.864-10.808 5.321-1.856 1.045-2.776 4.482-3.265 6.325-.174.639-.29 1.103-.431 1.386-.547 1.178-1.376 2.955-.63 4.241.729 1.27 2.95 2.1 6.415 2.399 3.05.266 11.669-1.295 12.763-2.291a.923.923 0 0 1 .398-.581c.613-.415 1.492-.108 3.846.73 3.273 1.163 8.743 3.105 12.034 1.901 2.254-.821 4.044-2.307 5.171-4.316a.832.832 0 0 1 .721-.423h-.008z"/><path fill="#483D89" d="M655.581 330.577a.828.828 0 0 1-.829-.813.827.827 0 0 1 .812-.847c6.631-.166 13.261-.365 13.261-.365l.05 1.66s-6.639.199-13.269.365h-.025z"/><path fill="#B1E0EF" d="M684.166 303.867c-5.71-13.903-13.957-29.45-19.054-36.912-5.661-8.276-14.33-9.861-17.927-10.085-3.597-.224-6.456 2.739-8.561 7.354-2.106 4.623-.274 13.737.099 18.468.29 3.644 4.534 16.8 6.481 22.694 1.161.008 2.321.016 3.489.016 12.267 0 24.152-.539 35.473-1.535z"/><path fill="#483D89" d="M589.559 350.266a.8.8 0 0 1-.663-.341c-.257-.348-.497-.946-.174-1.792 1.276-3.329 11.653-8.832 12.407-8.99a.82.82 0 0 1 .978.639.823.823 0 0 1-.613.972c-.44.149-3.423 1.701-6.39 3.677-4.957 3.303-4.882 4.49-4.874 4.498a.834.834 0 0 1-.174 1.163.84.84 0 0 1-.489.157l-.008.017zm-4.965-3.063a.834.834 0 0 1-.24-.033.833.833 0 0 1-.555-1.038c.232-.763 2.304-7.47 4.939-9.097 3.548-2.183 9.623-4.051 9.88-4.134a.833.833 0 0 1 .48 1.594c-.058.017-6.133 1.884-9.498 3.959-1.409.872-3.224 4.856-4.218 8.16a.833.833 0 0 1-.796.589h.008z"/><path fill="#FDFCFC" d="M620.871 310.831c-.042 0-.091 0-.133-.009a.828.828 0 0 1-.679-.954l5.461-33.293a.823.823 0 0 1 .953-.681.829.829 0 0 1 .68.955l-5.462 33.293a.828.828 0 0 1-.82.697v-.008zM528.899 412.07c-.049 0-.099 0-.149-.016a.833.833 0 0 1-.671-.963l7.343-40.83c1.89-10.491 10.832-18.111 21.267-18.111h67.837c.456 0 .829.373.829.83 0 .457-.373.83-.829.83h-67.837c-9.631 0-17.886 7.047-19.634 16.75l-7.344 40.83a.831.831 0 0 1-.812.68z"/><path fill="#B1E0EF" d="m656.7 240.701 6.398 15.131-30.732 8.981-3.646-10.79 27.98-13.322z"/><path fill="#483D89" d="M629.548 323.182h-.041a.834.834 0 0 1-.788-.872l2.818-57.546c0-.059.009-.108.025-.166l2.404-9.396a.838.838 0 0 1 .588-.598.82.82 0 0 1 .804.216l5.976 5.984 17.23-8.292a.82.82 0 0 1 1.103.39.822.822 0 0 1-.39 1.104l-17.761 8.55a.834.834 0 0 1-.945-.158l-5.362-5.37-2.022 7.902-2.81 57.455a.829.829 0 0 1-.829.788v.009z"/><path fill="#FDFCFC" d="m254.269 399.304-44.092-60.758c13.41-9.745 27.525-14.335 44.092-14.335v75.102-.009z"/><path fill="#B1E0EF" d="M254.269 399.304v-75.101c41.407 0 74.99 33.616 74.99 75.101 0 41.486-33.583 75.111-74.99 75.111-41.406 0-74.997-33.642-74.997-75.111 0-24.884 10.807-46.133 30.905-60.758l44.092 60.758z"/><path fill="#483D89" d="m254.261 399.304 71.318 23.217c12.805-39.452-8.76-81.817-48.145-94.641-7.882-2.565-14.902-3.669-23.173-3.669v75.102-.009z"/><path fill="#FDFCFC" d="m195.665 172.447-28.386-3.32 14.197-31.276 1.509-12.667a10.272 10.272 0 0 1 2.759-5.885 10.306 10.306 0 0 1 5.197-2.963l3.315-.755 4.26-10.426 9.681-6.457a1.51 1.51 0 0 1 2.279.805 8.876 8.876 0 0 1-2.777 9.446l-2.552 1.66-2.238 9.927a5.915 5.915 0 0 0 1.765 6.425l7.26-3.81a5.083 5.083 0 0 1 5.18.274 1.91 1.91 0 0 1 .415 2.797l-7.186 8.798-7.567 9.952-7.094 27.483-.017-.008z"/><path fill="#483D89" d="M195.665 173.277h-.099l-28.387-3.32a.81.81 0 0 1-.621-.415.836.836 0 0 1-.033-.756l14.139-31.159 1.492-12.542a11.165 11.165 0 0 1 2.975-6.358 11.088 11.088 0 0 1 5.611-3.204l2.901-.656 4.094-10.027a.895.895 0 0 1 .307-.373l9.68-6.458a2.313 2.313 0 0 1 2.08-.257 2.312 2.312 0 0 1 1.451 1.51 9.682 9.682 0 0 1-3.042 10.334.288.288 0 0 1-.083.058l-2.271 1.469-2.163 9.596-.025.091a5.037 5.037 0 0 0 1.119 5.138l6.738-3.536a5.925 5.925 0 0 1 6.026.315 2.771 2.771 0 0 1 1.185 1.876 2.74 2.74 0 0 1-.589 2.142l-7.185 8.798-7.451 9.795-7.053 27.316a.832.832 0 0 1-.804.623h.008zm-27.168-4.839 26.538 3.104 6.912-26.785a.83.83 0 0 1 .141-.299l7.567-9.952 7.202-8.815c.191-.241.274-.54.233-.839a1.105 1.105 0 0 0-.465-.738 4.265 4.265 0 0 0-4.342-.233l-7.261 3.81a.83.83 0 0 1-.92-.1 6.695 6.695 0 0 1-2.03-7.279l2.229-9.886a.84.84 0 0 1 .357-.514l2.511-1.627a8.012 8.012 0 0 0 2.478-8.533.68.68 0 0 0-1.028-.365l-9.465 6.316-4.16 10.193a.853.853 0 0 1-.58.498l-3.315.756a9.45 9.45 0 0 0-4.774 2.722 9.435 9.435 0 0 0-2.536 5.412l-1.509 12.666a.92.92 0 0 1-.066.249l-13.725 30.239h.008z"/><path fill="#FDFCFC" d="m283.352 250.313-10.244-54.609a21.725 21.725 0 0 1 8.669-21.498l13.858-9.993 11.802-8.566c2.279-1.619 5.437-.092 5.611 2.697a3.594 3.594 0 0 1-1.227 2.914l-11.769 9.479 9.316 13.737a9.65 9.65 0 0 1 1.657 5.81l-.19 4.748a9.652 9.652 0 0 1-3.597 7.13l-3.407-2.175.067.133a17.86 17.86 0 0 1 .712 13.654l20.331 56.127c6.257 25.449-26.323 41.685-42.816 21.341l-7.053-8.699 8.28-32.214v-.016z"/><path fill="#483D89" d="M300.831 301.202c-6.763 0-13.866-2.697-19.344-9.454l-7.053-8.699a.825.825 0 0 1-.157-.73l8.229-32.04-10.21-54.434c-1.542-8.516 1.997-17.273 9-22.328l13.858-9.993 11.802-8.566a4.347 4.347 0 0 1 4.442-.382 4.317 4.317 0 0 1 2.478 3.694 4.412 4.412 0 0 1-1.508 3.585l-11.197 9.015 8.885 13.106a10.542 10.542 0 0 1 1.798 6.308l-.19 4.748a10.46 10.46 0 0 1-3.904 7.744.822.822 0 0 1-.962.05l-1.226-.78a18.63 18.63 0 0 1-.075 11.695l20.231 55.853.025.083c3.357 13.63-4.268 24.279-13.31 28.786a26.279 26.279 0 0 1-11.604 2.731l-.008.008zm-24.847-18.875 6.788 8.375c8.818 10.882 21.093 10.185 28.925 6.284 7.823-3.902 15.772-13.273 12.448-26.86l-20.314-56.086a.805.805 0 0 1 0-.556 16.951 16.951 0 0 0-.679-13.023l-.067-.133a.831.831 0 0 1 .199-.98.82.82 0 0 1 .995-.074l2.884 1.842a8.844 8.844 0 0 0 2.843-6.134l.191-4.748a8.864 8.864 0 0 0-1.517-5.304l-9.316-13.737a.829.829 0 0 1 .166-1.112l11.769-9.479c.613-.531.97-1.37.92-2.216a2.692 2.692 0 0 0-1.542-2.299 2.707 2.707 0 0 0-2.76.232l-11.793 8.566-13.858 9.994c-6.489 4.681-9.763 12.799-8.338 20.676l10.244 54.608a.86.86 0 0 1-.008.357l-8.172 31.807h-.008z"/><path fill="#483D89" d="M304.602 201.125a.834.834 0 0 1-.555-.216c-.829-.756-1.252-1.694-1.227-2.715.075-2.49 2.727-4.681 3.025-4.93a.827.827 0 0 1 1.161.125.832.832 0 0 1-.125 1.17c-.654.531-2.362 2.224-2.403 3.685-.017.54.207 1.005.679 1.436a.829.829 0 0 1-.555 1.445zm-3.995-12.966a.85.85 0 0 1-.613-.265.828.828 0 0 1 .05-1.171c1.044-.962 6.398-5.644 9.166-3.511a.825.825 0 0 1 .149 1.162.821.821 0 0 1-1.16.15c-1.226-.946-4.923 1.477-7.028 3.42a.801.801 0 0 1-.564.215zm-3.613-6.366a.828.828 0 0 1-.572-1.428c.597-.572 5.893-5.553 8.735-3.353a.826.826 0 0 1 .15 1.162.822.822 0 0 1-1.161.149c-1.351-1.045-5.006 1.735-6.572 3.238a.804.804 0 0 1-.572.232h-.008zm-4.84-6.283a.811.811 0 0 1-.622-.283.829.829 0 0 1 .066-1.17c1.061-.946 6.473-5.536 9.233-3.403a.825.825 0 0 1 .149 1.162.822.822 0 0 1-1.16.149c-1.235-.954-4.973 1.42-7.119 3.329a.823.823 0 0 1-.547.207v.009zm-62.533-5.113c9.773 0 17.695-7.451 17.695-16.643 0-9.191-7.922-16.642-17.695-16.642s-17.695 7.451-17.695 16.642c0 9.192 7.922 16.643 17.695 16.643z"/><path fill="#FDFCFC" d="M247.515 193.538c2.76.913-21.566-2.996-21.566-2.996v-24.86a4.958 4.958 0 0 1-3.588-4.3 4.954 4.954 0 0 1 3.522-5.229c-1.202-5.345 1.301-11.039 6.398-13.646 6.042-3.096 13.452-.705 16.543 5.354l.622 1.212c1.268-.482 2.727.05 3.348 1.295a2.684 2.684 0 0 1-.928 3.436l1.914 3.752c2.42 4.731 1.815 10.558-1.773 14.484-1.89 2.075-4.119 3.154-6.399 3.644v16.875l1.907.996v-.017z"/><path fill="#483D89" d="M247.307 194.443c-1.931 0-7.119-.781-21.49-3.088a.829.829 0 0 1-.696-.822v-24.27a5.756 5.756 0 0 1-3.589-4.806 5.8 5.8 0 0 1 3.398-5.843 13.145 13.145 0 0 1 6.97-13.854 13.01 13.01 0 0 1 10.012-.805 13.073 13.073 0 0 1 7.65 6.516l.315.622a3.5 3.5 0 0 1 3.655 1.885 3.516 3.516 0 0 1-.63 4.025l1.616 3.163c2.611 5.113 1.856 11.313-1.898 15.422-1.682 1.843-3.763 3.096-6.183 3.735v15.721l1.409.739c.788.29.746.838.696 1.07-.082.357-.149.606-1.235.606v-.016zm-20.537-4.615c5.743.921 13.766 2.158 18.001 2.714v-16.883c0-.39.274-.73.655-.813 2.362-.498 4.368-1.636 5.959-3.387 3.282-3.594 3.945-9.039 1.641-13.546l-1.914-3.752a.83.83 0 0 1 .281-1.071 1.854 1.854 0 0 0 .647-2.374 1.841 1.841 0 0 0-2.312-.888.829.829 0 0 1-1.036-.398l-.622-1.212a11.375 11.375 0 0 0-6.68-5.694 11.366 11.366 0 0 0-8.744.705 11.486 11.486 0 0 0-5.967 12.733.835.835 0 0 1-.572.98 4.13 4.13 0 0 0-2.934 4.357 4.108 4.108 0 0 0 2.992 3.578.826.826 0 0 1 .605.797v24.154z"/><path fill="#483D89" d="m217.579 144.45 10.02-3.644.149 5.719a12.341 12.341 0 0 0-1.401 8.914 4.962 4.962 0 0 0 1.882 9.695l1.143 43.743c-16.75-2.133-30.93-10.649-38.796-22.444l27.003-41.975v-.008z"/><path fill="#483D89" d="M228.179 163.009a.84.84 0 0 1-.812-.647c-.324-1.453-1.708-1.71-1.766-1.718a.834.834 0 0 1 .266-1.644c.107.017 2.544.423 3.124 2.997a.825.825 0 0 1-.63.987c-.058.017-.124.017-.182.017v.008zm19.8-5.121c-.837 0-1.824-.307-2.884-1.187a.838.838 0 0 1-.108-1.17.833.833 0 0 1 1.168-.108c1.724 1.436 2.744.564 2.934.373a.832.832 0 0 1 1.169-.016c.323.315.348.83.033 1.162-.414.448-1.243.946-2.312.946zm-1.442-7.645c.215.656-.05 1.328-.597 1.511-.539.174-1.152-.208-1.368-.863-.215-.656.05-1.328.597-1.511.547-.183 1.152.207 1.368.863zm-21.367 5.91c-1.11-5.57 1.21-11.496 5.943-14.219 2.95-1.693 6.257-1.809 9.141-.622-1.549.149-5.867.83-6.713 3.685-1.036 3.495-1.16 10.177-8.371 11.148v.008z"/><path fill="#483D89" d="M228.03 156.668a18.35 18.35 0 0 1-2.652-.216.829.829 0 0 1-.697-.946.828.828 0 0 1 .945-.698c2.918.432 5.048.133 6.332-.896 1.683-1.345 1.882-3.868 2.056-6.093.099-1.261.19-2.456.555-3.361 1.5-3.76 4.973-4.3 5.122-4.316a.824.824 0 0 1 .936.705.825.825 0 0 1-.696.938c-.116.017-2.685.448-3.821 3.295-.265.673-.348 1.743-.439 2.872-.19 2.432-.422 5.462-2.677 7.255-1.218.971-2.851 1.452-4.964 1.452v.009zm17.106 18.41v5.171a16.018 16.018 0 0 1-11.628-10.492l-.257-.755c2.76 3.187 6.995 5.437 11.893 6.076h-.008z"/><path fill="#FDFCFC" d="M188.455 121.15s1.061-3.436 2.246-4.623l-2.246 4.623z"/><path fill="#483D89" d="M188.455 121.98a.853.853 0 0 1-.249-.033.828.828 0 0 1-.547-1.037c.116-.374 1.16-3.669 2.453-4.964a.827.827 0 0 1 1.169 1.17c-.846.855-1.765 3.379-2.039 4.283a.823.823 0 0 1-.787.581z"/><path fill="#FDFCFC" d="M192.947 120.204s1.061-3.669 1.417-4.856l-1.417 4.856z"/><path fill="#483D89" d="m193.742 120.437-1.591-.465s1.069-3.677 1.417-4.864a.832.832 0 0 1 1.592.481c-.357 1.179-1.418 4.848-1.418 4.848z"/><path fill="#FFA6DE" d="m205.627 271.487 45.41-27.798 4.956 8.358 19.087 30.479 4.153-.788a30.039 30.039 0 0 0 23.165-20.925l-41.192-62.527c-2.677-6.964-7.956-12.102-14.354-13.513l-47.548-10.434-4.932-6.599-25.668-2.407-12.481 25.964c-6.133 12.766 1.417 27.889 15.291 30.637l11.736 2.324-6.282 29.192 28.659 18.037z"/><path fill="#483D89" d="m231.908 151.023-6.257 9.015c-5.835 8.4-.704 20.037 9.407 21.332l5.412.697c9.515 1.22 15.498 10.94 12.341 20.045l-.108.299c-1.815 5.246-6.597 7.827-11.529 10.135-15.225 7.122-55.289 11.23-62.507-7.695-1.003-14.185 4.84-27.997 15.705-37.102l19.203-16.103 18.333-.623z"/><path fill="#483D89" d="M183.208 225.212a.83.83 0 0 1-.795-1.062l2.569-8.832a.833.833 0 0 1 1.028-.564.824.824 0 0 1 .563 1.029l-2.569 8.832a.83.83 0 0 1-.796.597zm67.829 19.315a.841.841 0 0 1-.738-.448l-6.638-12.965a.839.839 0 0 1 .356-1.121.836.836 0 0 1 1.119.357l6.639 12.965a.839.839 0 0 1-.357 1.121.784.784 0 0 1-.381.091z"/><path fill="#FFA6DE" d="m516.293 137.311 19.361 3.976 9.523-18.211 5.172 20.958 22.543-.614-22.759 11.861 1.368 21.689L538 161.532l-17.115 7.686 7.227-15.431-11.819-16.476z"/><path fill="#FDFCFC" d="M674.345 189.047h62.831c7.003 0 12.68 5.686 12.68 12.7v12.144c0 7.013-5.677 12.699-12.68 12.699h-46.852l-15.432 15.455V226.59h-.547c-7.004 0-12.681-5.686-12.681-12.699v-12.144c0-7.014 5.677-12.7 12.681-12.7z"/><path fill="#483D89" d="M694.029 214.82a.835.835 0 0 1-.415-.108l-11.785-6.814a.835.835 0 0 1 0-1.445l11.785-6.814a.829.829 0 0 1 1.136.307.832.832 0 0 1-.307 1.137l-10.542 6.101 10.542 6.101a.839.839 0 0 1 .307 1.137.836.836 0 0 1-.721.415v-.017zm20.156 0a.832.832 0 0 1-.414-1.552l10.542-6.101-10.542-6.101a.839.839 0 0 1-.307-1.137.837.837 0 0 1 1.135-.307l11.786 6.815a.832.832 0 0 1 .414.722.832.832 0 0 1-.414.722l-11.786 6.815a.84.84 0 0 1-.414.108v.016zm-15.333 6.433a.829.829 0 0 1-.779-1.112l9.589-26.495a.829.829 0 1 1 1.559.564l-9.59 26.495a.827.827 0 0 1-.779.548zm-222.018-51.628c-3.025 0-5.486-2.466-5.486-5.495 0-3.03 2.461-5.495 5.486-5.495s5.487 2.465 5.487 5.495c0 3.029-2.462 5.495-5.487 5.495zm0-9.33a3.834 3.834 0 0 0-3.829 3.835 3.834 3.834 0 0 0 3.829 3.834 3.833 3.833 0 0 0 3.829-3.834 3.833 3.833 0 0 0-3.829-3.835z"/><path fill="#483D89" d="M472.185 163.3h-4.658v1.66h4.658v-1.66zm13.965 0h-4.658v1.66h4.658v-1.66zm-8.487-8.5h-1.658v4.665h1.658V154.8zm0 13.995h-1.658v4.664h1.658v-4.664zm5.173-11.851-3.295 3.298 1.172 1.174 3.295-3.297-1.172-1.175zm-9.877 9.9-3.293 3.298 1.172 1.174 3.293-3.298-1.172-1.174zm-2.111-9.876-1.172 1.173 3.292 3.3 1.172-1.174-3.292-3.299zm9.876 9.902-1.172 1.174 3.294 3.298 1.172-1.174-3.294-3.298z"/><path fill="#B984FD" d="m375.075 38.835 2.196 3.487 3.738 1.751-3.489 2.208-1.741 3.735-2.204-3.486-3.73-1.752 3.481-2.2 1.749-3.743z"/><path fill="#FFA6DE" d="m191.082 266.067-35.895 107.855c-6.863 20.61-33.086 26.603-48.195 11.014l-70.315-72.561-32.223 2.93a4.07 4.07 0 0 1-3.622-1.611c-1.65-2.208-.688-5.387 1.914-6.291l44.507-23.399s76.199 34.015 59.184 49.57l11.147-32.812c8.968-26.411 32.473-45.17 60.179-48.042l13.327 13.347h-.008z"/><path fill="#FFA6DE" d="m203.622 269.984.041.15a240.718 240.718 0 0 1 8.926 78.115l-1.914 37.916 9.407 108.328 39.268 20.776a4.818 4.818 0 0 1 2.536 3.768c.282 2.831-1.939 5.288-4.774 5.288h-76.995v-21.98l-20.38-111.465-3.133-73.791 21.159-64.369 25.867 17.273-.008-.009z"/><path fill="#483D89" d="M78.05 355.08c3.1-16.75 8.314-32.297 15.226-46.059 8.031 5.703 14.462 11.778 15.656 17.174l8.636-25.433c8.967-26.411 32.472-45.17 60.179-48.042l13.327 13.347-35.896 107.855c-6.862 20.61-33.085 26.603-48.194 11.014L78.051 355.08z"/><path fill="#483D89" d="m203.622 269.984.041.15a240.718 240.718 0 0 1 8.926 78.115l-1.914 37.916 1.707 19.622c-16.982 1.22-33.301 3.553-48.675 6.856l-3.978-21.763-3.133-73.791 21.159-64.369 25.867 17.273v-.009z"/><path fill="#FDFCFC" d="M159.405 363.87a.873.873 0 0 1-.348-.075.834.834 0 0 1-.406-1.104l31.063-67.946a.832.832 0 0 1 1.103-.407c.414.191.596.68.406 1.104l-31.063 67.947a.824.824 0 0 1-.755.481z"/><path fill="#483D89" d="M313.827 275.803a.846.846 0 0 1-.647-.307l-11.429-14.16a.834.834 0 0 1 .124-1.171.83.83 0 0 1 1.169.125l11.429 14.16a.832.832 0 0 1-.646 1.353zm-82.369 219.495-8.446 4.937.835 1.434 8.447-4.937-.836-1.434zm1.147 3.304-8.447 4.937.836 1.434 8.446-4.937-.835-1.434zm-5.744-2.64a.844.844 0 0 1-.58-.232.86.86 0 0 1-.249-.73c.009-.067.025-.125.033-.175.017-.133.034-.34.058-.614.39-4.383 1.194-10.5 3.689-13.007 1.881-1.892 4.765-3.121 7.915-3.37 2.237-.174 4.881.424 5.727 2.175.248.523.29 1.046.298 1.536.05 4.142-5.081 8.682-15.673 13.886-.281.141-.505.249-.638.316a.86.86 0 0 1-.298.166.858.858 0 0 1-.29.049h.008zm11.603-16.501c-.199 0-.406 0-.596.025-2.769.216-5.272 1.27-6.871 2.88-1.517 1.519-2.569 5.329-3.15 11.322 11.819-5.877 14.281-9.836 14.256-12.135 0-.357-.025-.614-.133-.83-.398-.83-1.997-1.262-3.506-1.262z"/><path fill="#483D89" d="M219.576 498.677c-.29 0-.572-.025-.837-.083-1.707-.349-3.406-1.486-4.666-3.121-.862-1.113-1.6-2.856-.854-4.109.216-.365.506-.589.796-.78 2.262-1.527 6.514-.39 13.004 3.461.149.091.273.158.348.208a.715.715 0 0 1 .248.132.838.838 0 0 1 .324.822.837.837 0 0 1-.473.606c-.041.017-.074.033-.108.042-.074.041-.182.099-.315.174-2.188 1.17-5.213 2.639-7.459 2.639l-.008.009zm-3.116-7.081c-.754 0-1.227.175-1.525.374-.141.1-.249.174-.299.257-.207.349.042 1.328.738 2.233 1.019 1.32 2.37 2.233 3.696 2.507 1.177.241 3.307-.415 6.316-1.951-4.699-2.706-7.393-3.428-8.926-3.428v.008zM29.438 306.826l-1.657.047.278 9.791 1.657-.048-.278-9.79zm-3.455-.59-1.657.047.278 9.79 1.657-.047-.278-9.79zM37.49 334.47h-.133c-.58-.033-1.061-.249-1.492-.473-3.655-1.942-5.18-8.624-4.658-20.436.017-.315.025-.556.033-.705a.78.78 0 0 1 0-.34.835.835 0 0 1 .572-.681.822.822 0 0 1 .754.133c.05.041.1.075.133.116.108.075.282.191.514.349 3.655 2.44 8.628 6.076 9.63 9.47.755 2.557.448 5.678-.845 8.575-.895 2.008-2.627 3.992-4.517 3.992h.008zm-4.642-20.286c-.514 13.198 1.774 17.265 3.804 18.344.307.166.556.274.796.282 1.036.05 2.37-1.486 3.05-3.013 1.135-2.532 1.409-5.237.762-7.42-.605-2.059-3.44-4.815-8.412-8.193z"/><path fill="#483D89" d="M31.994 313.719a.846.846 0 0 1-.53-.191.861.861 0 0 1-.307-.705c0-.042 0-.083.017-.116v-.366c.025-2.805.224-6.748 1.724-8.524 1.127-1.337 2.942-2.283 4.973-2.606 1.384-.225 3.273-.034 4.003 1.22.215.365.273.73.306 1.07.249 2.723-2.776 5.919-9.257 9.77-.15.091-.274.158-.348.207a.873.873 0 0 1-.58.225v.016zm6.896-10.923c-.24 0-.489.017-.746.058-1.65.266-3.091 1.013-3.97 2.042-.779.921-1.226 3.104-1.318 6.482 6.888-4.224 7.783-6.64 7.683-7.719-.016-.174-.033-.307-.083-.382-.157-.274-.77-.481-1.566-.481zm175.945 206.372-34.867-6.001.282-1.635 32.339 5.57-.24-.914a10.074 10.074 0 0 1 .737-7.013l1.484.738a8.415 8.415 0 0 0-.613 5.852l.878 3.403zM44.269 304.224l-.53-1.569 6.837-2.324a45.254 45.254 0 0 0 14.504-8.135l1.06 1.279a46.872 46.872 0 0 1-15.034 8.433l-6.837 2.324v-.008zM260.742 518.34h-80.841V520h80.841v-1.66zM3.633 315.471a7.212 7.212 0 0 1 3.92-7.853l44.838-21.78.721 1.494-44.838 21.781a5.554 5.554 0 0 0-3.016 6.05l-1.625.316v-.008zM494.032 97.693c-1.21-8.325 4.774-15.978 13.136-16.783l70.241-6.798v31.874h-82.996l-.381-8.284v-.009z"/><path fill="#FDFCFC" d="M533.872 91.867c5.752-1.594 9.133-7.554 7.542-13.314l-3.083-11.156-20.836 5.769 3.083 11.156c1.592 5.76 7.542 9.147 13.294 7.553v-.008z"/><path fill="#483D89" d="M530.98 93.095a11.57 11.57 0 0 1-5.719-1.519 11.583 11.583 0 0 1-5.478-7.039l-3.084-11.155a.833.833 0 0 1 .075-.631.835.835 0 0 1 .497-.39l20.836-5.77a.839.839 0 0 1 1.02.582l3.083 11.156c1.707 6.192-1.931 12.625-8.114 14.343-1.028.282-2.08.423-3.116.423zm-12.457-19.356 2.859 10.358a9.95 9.95 0 0 0 4.699 6.035 9.885 9.885 0 0 0 7.584.938c5.304-1.47 8.429-6.98 6.962-12.293l-2.86-10.359-19.236 5.32h-.008z"/><path fill="#483D89" d="m521.515 87.708-4.012-14.55 13.236-3.661 5.603 3.81c-1.757 6.483-6.937 11.728-14.819 14.41l-.008-.009z"/><path fill="#483D89" d="M520.769 74.436c-12.225 0-22.137-9.928-22.137-22.17v-1.18c0-12.242 9.912-22.17 22.137-22.17s22.137 9.928 22.137 22.17v1.18c0 12.242-9.912 22.17-22.137 22.17z"/><path fill="#483D89" d="M544.663 45.434c0-10.218-8.271-18.501-18.474-18.501s-18.474 8.283-18.474 18.501v3.785c0 10.218 8.271 18.502 18.474 18.502s18.474-8.284 18.474-18.502v-3.785z"/><path fill="#483D89" d="M546.312 43.616a.832.832 0 0 1-.812-.655c-1.127-5.304-3.663-9.264-7.55-11.77-4.111-2.648-9.739-3.52-15.068-2.333a.821.821 0 0 1-.986-.63.827.827 0 0 1 .63-.988c5.752-1.278 11.852-.324 16.319 2.565 4.268 2.747 7.053 7.063 8.271 12.815a.838.838 0 0 1-.638.988c-.058.017-.116.017-.174.017l.008-.009z"/><path fill="#FDFCFC" d="m506.978 63.844-4.169-.074a4.613 4.613 0 0 1-4.525-4.698c.049-2.548 2.146-4.582 4.691-4.532l4.168.075a4.614 4.614 0 0 1 4.526 4.697c-.05 2.549-2.147 4.582-4.691 4.532z"/><path fill="#483D89" d="M507.061 64.674h-.1l-4.169-.074a5.387 5.387 0 0 1-3.812-1.669 5.41 5.41 0 0 1-1.525-3.884 5.4 5.4 0 0 1 1.666-3.818c1.044-1.013 2.387-1.536 3.87-1.528l4.169.075c3 .058 5.396 2.54 5.337 5.545-.058 2.971-2.486 5.345-5.436 5.345v.008zm-.067-1.66h.067a3.783 3.783 0 0 0 3.779-3.718 3.79 3.79 0 0 0-3.713-3.86l-4.169-.075c-.995 0-1.964.357-2.694 1.063a3.79 3.79 0 0 0-1.16 2.656 3.767 3.767 0 0 0 1.061 2.698 3.776 3.776 0 0 0 2.652 1.162l4.169.075h.008z"/><path fill="#FDFCFC" d="M524.242 35.764h1.052c6.979 0 13.062 3.843 16.261 9.53l1.202-.358c2.436-.73 5.006.664 5.735 3.113a4.62 4.62 0 0 1-3.108 5.744l-1.442.431v7.396c0 10.326-8.354 18.692-18.664 18.692h-1.053c-10.31 0-18.665-8.366-18.665-18.692v-7.155c0-10.326 8.355-18.692 18.665-18.692l.017-.009z"/><path fill="#483D89" d="M525.294 81.126h-1.052c-10.75 0-19.494-8.757-19.494-19.523V54.45c0-10.766 8.744-19.523 19.494-19.523h1.052c6.804 0 13.12 3.577 16.651 9.38l.58-.175a5.385 5.385 0 0 1 4.144.432 5.41 5.41 0 0 1 2.627 3.237c.854 2.88-.787 5.918-3.663 6.773l-.837.249v6.773c0 10.766-8.744 19.523-19.494 19.523l-.008.008zm-1.052-44.532c-9.83 0-17.836 8.01-17.836 17.863v7.155c0 9.844 7.998 17.862 17.836 17.862h1.052c9.83 0 17.836-8.01 17.836-17.862v-7.388a.819.819 0 0 1 .588-.805l1.442-.431a3.789 3.789 0 0 0 .721-6.956 3.734 3.734 0 0 0-2.876-.299l-1.201.357a.833.833 0 0 1-.962-.39 17.855 17.855 0 0 0-15.54-9.106h-1.06z"/><path fill="#483D89" d="M504.641 54.382v.033c3.306-2.233 5.743-10.035 5.743-19.306v-.034c-3.307 2.233-5.743 10.035-5.743 19.307zm38.895-2.49a.842.842 0 0 1-.821-.697c-.522-3.163 2.039-4.74 2.147-4.806a.83.83 0 0 1 1.135.282.835.835 0 0 1-.281 1.137c-.083.05-1.708 1.087-1.368 3.113a.833.833 0 0 1-.68.954c-.049 0-.091.009-.14.009l.008.008zm-38.589 9.504a.826.826 0 0 1-.82-.747c-.216-2.075-2.13-2.623-2.147-2.631a.84.84 0 0 1-.58-1.021.837.837 0 0 1 1.019-.581c.125.033 3.017.871 3.349 4.059a.83.83 0 0 1-.738.913h-.091l.008.008zm14.057-10.965c.273.714-1.111 1.918-3.092 2.681-1.981.764-3.812.805-4.094.083-.282-.722 1.11-1.917 3.091-2.68 1.981-.765 3.813-.806 4.095-.084zm14.255-1.029c-.05.764-1.815 1.27-3.937 1.12-2.122-.149-3.796-.888-3.746-1.651.05-.764 1.815-1.27 3.937-1.121 2.121.15 3.796.888 3.746 1.652zm-8.553 13.164h-.083a3.34 3.34 0 0 1-2.346-1.353 3.391 3.391 0 0 1-.58-2.648l1.02-4.93a.83.83 0 0 1 .978-.647.832.832 0 0 1 .646.979l-1.019 4.93c-.1.474 0 .947.29 1.337.281.39.704.63 1.185.68a.833.833 0 0 1-.083 1.66l-.008-.008zm2.934 8.924c-.556 0-1.136-.117-1.741-.35a.83.83 0 0 1-.472-1.07.828.828 0 0 1 1.077-.473c.821.315 1.517.315 2.147-.017 1.309-.689 2.022-2.698 2.188-3.42a.83.83 0 1 1 1.616.373c-.033.134-.779 3.321-3.025 4.508a3.77 3.77 0 0 1-1.79.448zm3.323-39.652c3.763 1.27 7.053 2.938 9.473 4.698a9.837 9.837 0 0 1-.464 2.042c-1.069 3.196-3.58 5.586-6.846 6.93-1.972-.323-4.077-.854-6.232-1.576-8.686-2.922-14.827-8.002-13.7-11.347 1.119-3.345 9.075-3.677 17.761-.755l.008.008z"/><path fill="#483D89" d="M504.002 42.014c-2.353 3.213-2.967 6.749-2.246 9.662.672.183 1.36.299 2.064.34 3.357.2 6.514-1.236 8.976-3.76-.887-2.166.398-6.449 3.39-9.661 6.257-6.715-5.131-6.209-12.192 3.428l.008-.009zm25.859 12.974c.058 1.303-.564 2.382-1.393 2.415-.828.034-1.541-.987-1.599-2.29-.058-1.304.563-2.383 1.392-2.416.829-.033 1.542.988 1.6 2.291zm-12.134 2.922c.058 1.303-.563 2.382-1.392 2.415-.829.033-1.542-.988-1.6-2.29-.058-1.304.564-2.383 1.393-2.416.828-.033 1.541.988 1.599 2.29zm-1.177-26.005a.84.84 0 0 1-.829-.78c-.223-3.561 3.68-5.42 3.846-5.504a.826.826 0 0 1 1.102.407.828.828 0 0 1-.406 1.104c-.033.016-3.041 1.46-2.892 3.893a.828.828 0 0 1-.779.88h-.05.008z"/><path fill="#483D89" d="M516.31 30.41a.836.836 0 0 1-.821-.697c-.165-1.012-.853-1.137-1.06-1.153a.85.85 0 0 1-.78-.872.85.85 0 0 1 .846-.788c.771.024 2.304.597 2.627 2.54a.828.828 0 0 1-.688.954c-.041 0-.091.008-.132.008l.008.008zm11.752 16.228c-.058 0-.124 0-.182-.017-5.52-1.237-9.697-3.91-12.415-7.968a.83.83 0 1 1 1.375-.93c2.478 3.686 6.308 6.134 11.405 7.271.447.1.729.54.629.988a.82.82 0 0 1-.803.648l-.009.008zm13.501-6.267.506 12.459-2.014.54-5.039-14.352 6.547 1.353zm63.61 72.056c-1.765 0-3.53-.316-5.238-.947l-59.54-22.07a11.25 11.25 0 0 1-6.838-7.164 11.268 11.268 0 0 1 2.835-11.487l5.088-5.022-1.715-5.827a5.776 5.776 0 0 1 .331-4.125 1.83 1.83 0 0 1 1.666-1.054h.017c.721 0 1.359.415 1.666 1.07l4.028 8.707a.891.891 0 0 1 .074.416l-.58 7.296 55.206 16.542a.826.826 0 1 1-.472 1.585l-55.853-16.733a.834.834 0 0 1-.588-.863l.621-7.753-3.936-8.516a.17.17 0 0 0-.166-.108c-.083 0-.141.033-.174.108a4.147 4.147 0 0 0-.241 2.938l1.857 6.309c.083.29 0 .614-.216.83l-5.445 5.37a9.602 9.602 0 0 0-2.42 9.803 9.573 9.573 0 0 0 5.827 6.109l59.54 22.071a13.276 13.276 0 0 0 10.311-.424 13.348 13.348 0 0 0 6.953-7.636c2.354-6.582-.655-13.762-6.987-16.692l-42.061-19.49a26.797 26.797 0 0 0-16.236-2.05l-3.854.78a.83.83 0 0 1-.332-1.626l3.863-.78a28.476 28.476 0 0 1 17.247 2.174l42.061 19.49c7.12 3.303 10.493 11.363 7.849 18.758a14.987 14.987 0 0 1-7.816 8.583 14.962 14.962 0 0 1-6.348 1.419l.016.009z"/><path fill="#FDFCFC" d="m536.483 70.833 5.138-5.063-1.732-5.893a5.635 5.635 0 0 1 .323-4.042c.29-.615.887-.988 1.567-.988h.008c.68 0 1.277.39 1.567 1.004l3.431 7.437 5.42-1.178a28.376 28.376 0 0 1 17.173 2.166l42.061 19.49c7.07 3.278 10.418 11.28 7.791 18.625a14.866 14.866 0 0 1-7.749 8.517 14.87 14.87 0 0 1-6.308 1.411 15.05 15.05 0 0 1-5.196-.938l-59.541-22.07a11.113 11.113 0 0 1-6.763-7.098 11.15 11.15 0 0 1 2.81-11.371v-.009z"/><path fill="#FDFCFC" d="M542.906 58.972c0-1.054.961-3.245 1.79-3.901a.814.814 0 0 1 1.277.39l2.345 7.18-1.906 6.532-1.036 2.308-2.47-12.509z"/><path fill="#483D89" d="M546.404 69.995a.836.836 0 0 1-.796-1.063l1.84-6.283-2.263-6.93a2.658 2.658 0 0 0-.969 2.058c0 .456-.373.83-.829.83a.832.832 0 0 1-.829-.83c0-1.32.597-2.54 1.624-3.354.423-.331.978-.44 1.492-.282.514.158.92.556 1.086 1.063l2.345 7.18a.76.76 0 0 1 0 .49l-1.906 6.532a.83.83 0 0 1-.795.597v-.008z"/><path fill="#483D89" d="M605.173 112.427c-1.765 0-3.53-.316-5.238-.947l-59.54-22.07a11.25 11.25 0 0 1-6.838-7.164 11.268 11.268 0 0 1 2.835-11.487l5.088-5.022-1.715-5.827a5.776 5.776 0 0 1 .331-4.125 1.83 1.83 0 0 1 1.666-1.054h.017c.721 0 1.359.415 1.666 1.07l4.028 8.707a.891.891 0 0 1 .074.416l-.58 7.296 55.206 16.542a.826.826 0 1 1-.472 1.585l-55.853-16.733a.834.834 0 0 1-.588-.863l.621-7.753-3.936-8.516a.17.17 0 0 0-.166-.108c-.083 0-.141.033-.174.108a4.147 4.147 0 0 0-.241 2.938l1.857 6.309c.083.29 0 .614-.216.83l-5.445 5.37a9.602 9.602 0 0 0-2.42 9.803 9.573 9.573 0 0 0 5.827 6.109l59.54 22.071a13.276 13.276 0 0 0 10.311-.424 13.348 13.348 0 0 0 6.953-7.636c2.354-6.582-.655-13.762-6.987-16.692l-42.061-19.49a26.797 26.797 0 0 0-16.236-2.05l-3.854.78a.83.83 0 0 1-.332-1.626l3.863-.78a28.476 28.476 0 0 1 17.247 2.174l42.061 19.49c7.12 3.303 10.493 11.363 7.849 18.758a14.987 14.987 0 0 1-7.816 8.583 14.962 14.962 0 0 1-6.348 1.419l.016.009z"/><path fill="#483D89" d="M572.817 81.475a.753.753 0 0 1-.373-.092.828.828 0 0 1-.364-1.112l5.652-11.156a.827.827 0 1 1 1.475.747l-5.652 11.156a.83.83 0 0 1-.738.457z"/><path fill="#FDFCFC" d="m528.618 111.53-1.053-8.591a3.311 3.311 0 0 0-3.638-2.938 3.314 3.314 0 0 0-2.934 3.644l1.052 8.591a3.311 3.311 0 0 0 3.639 2.938 3.314 3.314 0 0 0 2.934-3.644z"/><path fill="#483D89" d="M525.336 116.021a4.136 4.136 0 0 1-4.103-3.694l-1.053-8.574a4.165 4.165 0 0 1 .887-3.055 4.105 4.105 0 0 1 2.777-1.519 4.132 4.132 0 0 1 4.55 3.669l1.052 8.574v.017c.241 2.266-1.4 4.316-3.663 4.557a4.185 4.185 0 0 1-.447.025zm-1.053-15.207c-.091 0-.182 0-.265.017a2.46 2.46 0 0 0-1.666.913 2.445 2.445 0 0 0-.531 1.818l1.053 8.574a2.477 2.477 0 0 0 2.727 2.208 2.487 2.487 0 0 0 2.196-2.723l-1.053-8.582a2.48 2.48 0 0 0-2.461-2.225z"/><path fill="#FDFCFC" d="m523.17 114.87-1.49-13.873a2.272 2.272 0 0 0-2.501-2.018l-2.052.22a2.273 2.273 0 0 0-2.015 2.505l1.49 13.873a2.272 2.272 0 0 0 2.501 2.018l2.052-.221a2.273 2.273 0 0 0 2.015-2.504z"/><path fill="#483D89" d="M518.838 118.436a3.098 3.098 0 0 1-3.075-2.772l-1.492-13.878a3.087 3.087 0 0 1 2.743-3.412l2.056-.224a3.063 3.063 0 0 1 2.271.672 3.095 3.095 0 0 1 1.135 2.084l1.492 13.878a3.1 3.1 0 0 1-2.743 3.411l-2.056.225c-.116.008-.223.016-.331.016zm.572-18.643c-.05 0-.108 0-.158.009l-2.055.224a1.442 1.442 0 0 0-1.277 1.585l1.492 13.878a1.442 1.442 0 0 0 1.583 1.279l2.056-.224a1.443 1.443 0 0 0 1.276-1.586l-1.492-13.878a1.447 1.447 0 0 0-.53-.971 1.426 1.426 0 0 0-.904-.316h.009z"/><path fill="#FDFCFC" d="m517.332 114.582-1.49-13.872a2.272 2.272 0 0 0-2.501-2.018l-2.052.22a2.273 2.273 0 0 0-2.015 2.505l1.49 13.873a2.273 2.273 0 0 0 2.501 2.018l2.052-.221a2.274 2.274 0 0 0 2.015-2.505z"/><path fill="#483D89" d="M513.011 118.146a3.098 3.098 0 0 1-3.075-2.773l-1.491-13.878a3.074 3.074 0 0 1 .663-2.274 3.085 3.085 0 0 1 2.08-1.137l2.055-.225a3.063 3.063 0 0 1 2.271.673 3.092 3.092 0 0 1 1.136 2.083l1.492 13.878a3.102 3.102 0 0 1-2.744 3.412l-2.055.224c-.116.008-.224.017-.332.017zm.572-18.643c-.05 0-.108 0-.157.008l-2.056.224a1.441 1.441 0 0 0-1.276 1.586l1.492 13.878c.083.788.795 1.37 1.583 1.278l2.055-.224a1.443 1.443 0 0 0 1.277-1.585l-1.492-13.879a1.449 1.449 0 0 0-.531-.97 1.426 1.426 0 0 0-.903-.316h.008z"/><path fill="#FDFCFC" d="m511.055 112.974-1.268-11.819a3.31 3.31 0 0 0-3.638-2.939c-1.815.2-8.918 5.412-8.727 7.23l6.216.374.845 7.86a3.31 3.31 0 0 0 3.638 2.938 3.313 3.313 0 0 0 2.934-3.644z"/><path fill="#483D89" d="M507.765 117.465a4.135 4.135 0 0 1-4.102-3.694l-.771-7.163-5.52-.332a.826.826 0 0 1-.771-.739c-.282-2.606 7.675-7.952 9.457-8.142a4.13 4.13 0 0 1 4.55 3.668l1.268 11.82a4.146 4.146 0 0 1-.887 3.038 4.102 4.102 0 0 1-2.776 1.519 3.97 3.97 0 0 1-.448.025zm-9.183-12.783 5.105.307c.406.025.73.341.771.739l.846 7.861a2.477 2.477 0 0 0 2.726 2.199 2.441 2.441 0 0 0 1.658-.913 2.443 2.443 0 0 0 .53-1.818l-1.268-11.819a2.468 2.468 0 0 0-.903-1.66 2.435 2.435 0 0 0-1.815-.532c-1.492.158-6.324 3.843-7.65 5.645v-.009zm74.608-23.83 6.067-11.778-11.371-5.213a23.427 23.427 0 0 0-20.413.423l-1.285 8.65 27.01 7.91-.008.008zM368.395 296.38h-20.223v-28.263h20.223v28.263zm-18.565-1.66h16.907v-24.943H349.83v24.943z"/><path fill="#483D89" d="M359.162 269.379h-1.658v25.739h1.658v-25.739z"/><path fill="#483D89" d="M367.682 276.807h-18.69v1.66h18.69v-1.66zm0 8.907h-18.69v1.66h18.69v-1.66zm-23.107-4.856h-5.802v1.66h5.802v-1.66zm-12.606-16.949a.832.832 0 0 1-.829-.83v-3.412c0-.456.373-.83.829-.83.456 0 .829.374.829.83v3.412c0 .456-.373.83-.829.83zm19.402 0a.832.832 0 0 1-.829-.83v-3.412c0-.456.373-.83.829-.83.456 0 .829.374.829.83v3.412c0 .456-.373.83-.829.83z"/><path fill="#483D89" d="M341.674 281.954a.832.832 0 0 1-.829-.83v-20.453c0-.456.373-.83.829-.83.456 0 .829.374.829.83v20.453c0 .456-.373.83-.829.83z"/><path fill="#483D89" d="M351.371 260.497h-19.41a.832.832 0 0 1-.829-.83c0-.456.373-.83.829-.83h19.41c.456 0 .829.374.829.83 0 .457-.373.83-.829.83zM139.274 428.904H76.791v1.66h62.483v-1.66zm-66.188 0H69.39v1.66h3.696v-1.66zm73.995 0h-3.696v1.66h3.696v-1.66z"/><path fill="#483D89" d="M85.427 425.21h-1.658v9.056h1.658v-9.056zm53.847 18.311H76.791v1.66h62.483v-1.66zm-66.188 0H69.39v1.66h3.696v-1.66zm73.995 0h-3.696v1.66h3.696v-1.66z"/><path fill="#483D89" d="M128.392 439.819h-1.658v9.055h1.658v-9.055zm10.882 18.319H76.791v1.66h62.483v-1.66zm-66.188 0H69.39v1.66h3.696v-1.66zm73.995 0h-3.696v1.66h3.696v-1.66z"/><path fill="#483D89" d="M103.52 454.436h-1.658v9.055h1.658v-9.055z"/></g><defs><clipPath id="a"><path fill="#fff" d="M.003.172H853v524.153H.003z"/></clipPath></defs></svg>