<svg xmlns="http://www.w3.org/2000/svg" width="369" height="296" fill="none"><path fill="#483D89" d="M244.722 115.715c21.823-5.154 35.337-27.023 30.184-48.846-5.153-21.824-27.022-35.338-48.846-30.185-21.823 5.153-35.338 27.022-30.184 48.846 5.153 21.824 27.022 35.338 48.846 30.185z"/><path fill="#483D89" d="M283.14 122.779c18.864-4.454 30.545-23.357 26.091-42.221-4.455-18.864-23.358-30.545-42.221-26.09-18.864 4.453-30.546 23.356-26.091 42.22 4.454 18.864 23.357 30.545 42.221 26.091z"/><path fill="#FDFCFC" d="M258.682 95.576c2.485-5.936 8.36-10.109 15.201-10.063 8.636.046 15.923 7.087 16.26 15.708.368 9.341-7.102 17.027-16.352 17.027-1.979 0-3.881-.369-5.629-1.013l12.961 81.238-21.751 3.466c-16.49 2.623-31.983-8.605-34.606-25.08l-11.811-73.982 45.727-7.301z"/><path fill="#483D89" d="M254.586 203.872c-15.324 0-28.853-11.152-31.338-26.752l-11.812-73.982a1.5 1.5 0 0 1 .276-1.135c.246-.322.599-.552.998-.614l44.913-7.163a17.856 17.856 0 0 1 16.276-10.216c9.433.046 17.425 7.762 17.793 17.18.2 4.924-1.58 9.587-4.985 13.131-3.405 3.543-7.992 5.491-12.901 5.491-1.257 0-2.5-.138-3.742-.399l12.578 78.86a1.517 1.517 0 0 1-1.273 1.749l-21.751 3.467a35.296 35.296 0 0 1-5.032.383zm-39.882-99.721 11.566 72.478c2.5 15.616 17.241 26.308 32.857 23.807l20.248-3.236-12.717-79.735a1.538 1.538 0 0 1 2.04-1.687c1.672.613 3.39.92 5.108.92 4.081 0 7.87-1.61 10.692-4.556a14.669 14.669 0 0 0 4.126-10.875c-.306-7.808-6.918-14.19-14.741-14.235h-.077a14.79 14.79 0 0 0-13.698 9.127 1.5 1.5 0 0 1-1.181.92l-44.223 7.072z"/><path fill="#483D89" d="M266.864 108.461a1.546 1.546 0 0 1-1.534-1.396c-.444-4.878.599-8.805 3.084-11.673 3.589-4.142 8.85-4.464 9.065-4.48a1.54 1.54 0 0 1 1.611 1.458 1.528 1.528 0 0 1-1.442 1.61c-.046 0-4.218.292-6.934 3.452-1.902 2.224-2.684 5.369-2.331 9.372a1.544 1.544 0 0 1-1.396 1.672c-.015-.015-.061-.015-.123-.015zm-59.721-17.656c13.42 0 24.298-10.878 24.298-24.297 0-13.42-10.878-24.298-24.298-24.298-13.419 0-24.297 10.878-24.297 24.298 0 13.419 10.878 24.297 24.297 24.297zm66.679 28.915c-3.205 0-6.365-.859-9.111-2.485a18.208 18.208 0 0 1-3.544-2.761 1.528 1.528 0 0 1 0-2.163 1.528 1.528 0 0 1 2.163 0 14.8 14.8 0 0 0 10.492 4.341c.844 0 1.534.691 1.534 1.534 0 .844-.675 1.534-1.534 1.534z"/><path fill="#FDFCFC" d="M259.073 87.584c-2.224-18.423-13.115-33.24-28.669-36.37-20.739-4.188-41.908 13.974-47.261 40.558-5.369 26.583 7.102 51.525 27.841 55.697 15.554 3.145 31.354-6.289 40.527-22.411l7.562-37.474z"/><path fill="#483D89" d="M216.997 149.601c-2.102 0-4.219-.199-6.305-.629-10.507-2.116-19.312-9.326-24.773-20.278-5.415-10.83-6.933-24.053-4.264-37.244 2.653-13.192 9.188-24.789 18.376-32.673 9.296-7.977 20.202-11.198 30.694-9.081 15.785 3.19 27.519 17.977 29.897 37.704a1.515 1.515 0 0 1-1.335 1.703 1.514 1.514 0 0 1-1.702-1.335c-2.209-18.377-12.993-32.136-27.458-35.05-9.556-1.933-19.542 1.058-28.102 8.405-8.666 7.44-14.833 18.438-17.364 30.956-2.531 12.516-1.104 25.049 4.004 35.265 5.046 10.093 13.084 16.704 22.641 18.637 14.465 2.93 29.728-5.583 38.9-21.674a1.516 1.516 0 0 1 2.087-.568c.736.414.997 1.35.567 2.086-8.529 14.956-22.119 23.776-35.863 23.776z"/><path fill="#483D89" d="M260.768 97.186c-.368.123-.736.246-1.12.353-21.03 5.845-43.671-13.115-50.574-42.337-.077-.337-.138-.66-.215-.997 6.918-3.926 14.527-5.414 22.089-3.773 17.564 3.85 29.329 23.423 29.82 46.754zm-67.601-12.823c.691 1.18-1.426 3.681-4.694 5.568-3.282 1.887-6.488 2.47-7.178 1.288-.691-1.18 1.426-3.681 4.693-5.568 3.283-1.902 6.489-2.47 7.179-1.288z"/><path fill="#483D89" d="M226.608 89.808c-.353 1.657-4.356 2.21-8.958 1.227-4.587-.981-8.023-3.114-7.67-4.785.353-1.657 4.356-2.21 8.958-1.228 4.587.997 8.023 3.13 7.67 4.786zm-26.797 18.806c-.368 0-.736-.138-1.028-.398a7.08 7.08 0 0 1-2.178-6.673l2.24-10.876c.168-.828.981-1.35 1.81-1.196a1.537 1.537 0 0 1 1.196 1.81l-2.239 10.875a3.958 3.958 0 0 0 1.242 3.789 1.53 1.53 0 0 1 .108 2.163 1.586 1.586 0 0 1-1.151.506zm18.88-8.084c-.491 0-.981-.245-1.288-.69-2.654-4.003-5.139-2.592-5.246-2.53a1.531 1.531 0 0 1-2.102-.538 1.531 1.531 0 0 1 .537-2.101c1.749-1.043 5.967-1.672 9.372 3.466a1.549 1.549 0 0 1-.429 2.133 1.44 1.44 0 0 1-.844.26zm-32.975-2.024c-.2 0-.414-.046-.614-.123a1.527 1.527 0 0 1-.797-1.994c.797-1.887 3.835-4.878 9.617-2.73a1.528 1.528 0 0 1 .905 1.963 1.526 1.526 0 0 1-1.978.905c-4.326-1.61-5.599.797-5.737 1.074a1.522 1.522 0 0 1-1.396.905zm19.343 18.545c-1.396 0-3.037-.414-4.893-1.503a1.532 1.532 0 0 1-.552-2.102 1.532 1.532 0 0 1 2.101-.552c3.988 2.332 5.66.184 5.829-.061a1.526 1.526 0 0 1 2.117-.399c.69.46.89 1.396.43 2.101-.721 1.105-2.455 2.516-5.032 2.516z"/><path fill="#FDFCFC" d="m108.757 173.715-8.606-16.306c.031-1.887-.107-14.987-8.651-21.276-8.713-6.412-36.784-26.215-37.075-26.414a.758.758 0 0 0-1.013.123c-.169.184-4.05 4.647-1.472 8.789 1.917 3.068 9.633 13.131 12.455 16.797-4.203-.307-15.508-1.488-23.47-5.829a.776.776 0 0 0-1.042.306c-.123.215-.108.445-.03.66a.672.672 0 0 0-.292.107l-.046.046a124.821 124.821 0 0 1-.292-4.295c-.169-3.328-1.196-5.798-3.052-7.332-2.47-2.025-5.446-1.626-5.569-1.61-.03 0-.046.015-.076.03 0-.122.015-.261.015-.383.368-7.44-9.142-10.707-9.556-10.845a.745.745 0 0 0-.69.107.756.756 0 0 0-.323.629v9.112c-1.365-1.55-6.412-7.102-9.035-8.084-2.99-1.12-8.605.613-8.835.675a.801.801 0 0 0-.506.491.79.79 0 0 0 .107.69l18.07 24.313a.532.532 0 0 0 .2.169v5.982c0 .199.076.383.214.537l23.27 24.313a.76.76 0 0 0 .368.215l28.393 7.178 3.59 13.913c.061.215.2.384.398.491.108.062.23.077.353.077a.86.86 0 0 0 .276-.046l31.523-12.241a.795.795 0 0 0 .445-.445.786.786 0 0 0-.046-.644z"/><path fill="#483D89" d="M196.498 313.273s-17.763-48.335-17.257-98.648c.107-10.001 4.08-28.393 8.314-33.471 6.581-7.899 18.653-12.179 30.556-10.845l79.274 8.867c13.975 1.564 24.145 10.43 24.298 21.199l1.365 97.789c.184 12.823-13.775 23.622-30.725 23.76-49.515.415-97.85 8.652-95.825-8.651zm-88.42-137.671a1.539 1.539 0 0 1-1.365-.813l-8.698-16.475a1.663 1.663 0 0 1-.184-.767c0-.138.322-13.637-7.716-19.558-7.623-5.629-30.203-21.567-35.771-25.509-.721 1.212-1.534 3.206-.46 4.924 2.255 3.605 13.238 17.794 13.345 17.932a1.52 1.52 0 0 1 .153 1.641 1.552 1.552 0 0 1-1.41.844c-.645-.016-15.77-.537-26.17-6.213-.736-.399-1.012-1.334-.613-2.086a1.554 1.554 0 0 1 2.086-.614c6.918 3.774 16.459 5.124 21.444 5.599-3.344-4.371-9.71-12.716-11.428-15.477-2.883-4.633 1.366-9.495 1.55-9.71a1.517 1.517 0 0 1 2.024-.23c.277.199 28.363 20.002 37.076 26.414 8.575 6.32 8.973 19.175 8.973 21.706l8.529 16.121a1.528 1.528 0 0 1-.644 2.071c-.23.154-.476.2-.721.2zM20.4 135.274a1.51 1.51 0 0 1-1.228-.613l-18.07-24.313a1.563 1.563 0 0 1-.23-1.396c.154-.476.522-.844.997-.982.614-.199 6.151-1.856 9.327-.675 2.99 1.12 8.559 7.409 9.648 8.652a1.53 1.53 0 0 1-.153 2.162 1.53 1.53 0 0 1-2.163-.153c-2.316-2.669-6.657-7.133-8.421-7.792-1.166-.43-3.33-.2-5.2.184l16.704 22.487a1.528 1.528 0 0 1-.322 2.148 1.411 1.411 0 0 1-.89.291z"/><path fill="#483D89" d="M76.558 187.842c-.69 0-1.304-.46-1.488-1.15l-3.482-13.483-27.949-7.072a1.571 1.571 0 0 1-.736-.429L19.648 141.41a1.523 1.523 0 0 1-.43-1.058v-33.364c0-.491.23-.951.645-1.242.399-.292.92-.368 1.38-.215.43.138 10.477 3.59 10.079 11.612-.338 6.826-.23 30.94-.23 31.185 0 .184-.031.353-.077.506l13.836 14.45 28.409 7.194c.536.138.966.568 1.104 1.105l3.712 14.357a1.528 1.528 0 0 1-1.104 1.872c-.154.015-.276.03-.414.03zm-54.271-48.119 5.721 5.982c-.015-6.504-.03-23.086.246-28.715.2-3.866-3.544-6.412-5.967-7.655v30.388z"/><path fill="#483D89" d="M39.165 136.317a1.525 1.525 0 0 1-1.519-1.35c-.015-.153-.476-3.942-.706-8.452-.138-2.653-.874-4.555-2.224-5.675-1.656-1.365-3.773-1.12-3.789-1.105-.828.138-1.61-.46-1.733-1.303a1.527 1.527 0 0 1 1.304-1.734c.138-.015 3.451-.46 6.166 1.78 2.04 1.672 3.16 4.325 3.344 7.884.215 4.402.675 8.191.69 8.222a1.514 1.514 0 0 1-1.334 1.703c-.077.03-.138.03-.2.03z"/><path fill="#483D89" d="M43.791 165.155a1.52 1.52 0 0 1-1.365-.843l-6.718-13.207a1.613 1.613 0 0 1-.154-.921l2.9-19.113c.06-.445.322-.828.705-1.074.383-.23.844-.306 1.273-.168.69.215 6.765 2.239 7.854 6.642.844 3.359.383 10.338.215 12.501l4.724 5.722c3.022-1.963 11.167-6.335 20.202-3.574a1.53 1.53 0 0 1 1.013 1.917 1.537 1.537 0 0 1-1.918 1.013c-9.664-2.976-18.545 3.835-18.637 3.911a1.542 1.542 0 0 1-2.132-.23l-6.029-7.301a1.466 1.466 0 0 1-.337-1.12c.215-2.408.629-9.281-.077-12.118-.414-1.657-2.47-2.992-4.11-3.774l-2.532 16.705 6.489 12.762a1.532 1.532 0 0 1-.675 2.056c-.215.153-.46.214-.69.214zm123.974 109.938-9.864 5.476c-15.186 8.437-34.299 3.82-43.963-10.599L62.69 193.472s25.509-28.562 47.95-20.401c22.442 8.16 34.177 38.762 34.177 38.762s46.586-35.372 54.24-38.931c7.639-3.574 26.859 44.546-31.292 102.191z"/><path fill="#FDFCFC" d="m263.233 272.286-17.226-2.025-17.318-7.531-14.45-17.871a.574.574 0 0 0-.261-.199l-20.555-10.201a.736.736 0 0 0-.567-.046c-.138.046-3.298 1.028-4.081 3.789-.583 2.04.307 4.418 2.639 7.056 5.829 6.596 10.231 10.017 11.167 10.722l3.19 7.839-21.69 3.835-19.082-8.207c-1.074-.46-10.507-4.402-13.023.077-1.089 1.932.675 4.786 3.175 7.516-2.546-.859-4.402-.798-5.583.215-2.332 1.994-.829 6.58-.644 7.087a.75.75 0 0 0 .322.398l9.495 5.875a.755.755 0 0 0-.997.108c-.292.307-.261.797.046 1.089l8.958 8.237a.823.823 0 0 0 .092.537l5.691 9.096a.842.842 0 0 0 .353.307l17.349 7.148c.076.031.153.046.23.062l37.735 3.252a56.076 56.076 0 0 0 19.051-1.657l12.517-3.329a.752.752 0 0 0 .568-.659l3.574-31.63c.046-.46-.246-.844-.675-.89z"/><path fill="#483D89" d="M196.579 283.376h-.092l-16.92-.966a1.607 1.607 0 0 1-.536-.138l-15.232-6.857a2.454 2.454 0 0 1-.277-.153c-4.54-3.298-14.833-11.459-12.21-16.137 2.838-5.062 12.855-.89 13.99-.399l18.867 8.115 25.402-4.48c.829-.153 1.626.415 1.78 1.243.153.828-.414 1.626-1.243 1.779l-25.847 4.571a1.428 1.428 0 0 1-.874-.107l-19.297-8.314c-3.451-1.488-9.035-2.807-10.093-.92-.798 1.426 4.632 7.271 11.213 12.057l14.833 6.672 16.643.951a1.532 1.532 0 0 1 1.442 1.626 1.557 1.557 0 0 1-1.549 1.457z"/><path fill="#483D89" d="M196.947 293.792h-.153l-21.276-2.117a1.447 1.447 0 0 1-.659-.215l-26.016-16.06a1.501 1.501 0 0 1-.644-.798c-.2-.567-1.841-5.599.874-7.93 2.009-1.718 5.446-1.227 10.477 1.488a1.528 1.528 0 0 1 .629 2.071 1.527 1.527 0 0 1-2.071.628c-5.369-2.883-6.795-2.055-7.041-1.856-.705.599-.537 2.593-.123 4.081l25.218 15.585 20.923 2.086a1.532 1.532 0 0 1 1.381 1.672 1.54 1.54 0 0 1-1.519 1.365z"/><path fill="#483D89" d="M197.49 302.98c-.123 0-.246-.015-.369-.046l-23.346-5.691a1.457 1.457 0 0 1-.675-.368l-15.815-14.542a1.528 1.528 0 0 1-.092-2.162 1.53 1.53 0 0 1 2.163-.093l15.523 14.266 22.963 5.599a1.514 1.514 0 0 1 1.12 1.856 1.505 1.505 0 0 1-1.472 1.181z"/><path fill="#483D89" d="M233.013 311.371c-1.626 0-3.237-.061-4.863-.215l-37.735-3.252a1.45 1.45 0 0 1-.444-.107l-17.349-7.148a1.615 1.615 0 0 1-.721-.599l-5.691-9.096a1.542 1.542 0 0 1 .491-2.117 1.54 1.54 0 0 1 2.116.491l5.431 8.682 16.674 6.857 37.504 3.237c6.152.537 12.287 0 18.254-1.596l11.505-3.052 3.283-29.068-15.831-1.857a1.38 1.38 0 0 1-.429-.122l-17.594-7.655a1.377 1.377 0 0 1-.583-.444l-14.358-17.763-19.65-9.741c-.66.307-1.733.966-2.025 2.009-.337 1.228.399 2.915 2.148 4.894 6.258 7.087 10.921 10.477 10.968 10.507.23.169.414.399.521.66l3.313 8.145a1.53 1.53 0 0 1-.843 1.994c-.783.307-1.688-.061-1.994-.844l-3.145-7.746c-1.258-.951-5.553-4.387-11.121-10.691-2.516-2.854-3.467-5.461-2.807-7.778.905-3.16 4.448-4.264 4.602-4.31a1.486 1.486 0 0 1 1.119.092l20.555 10.201c.2.092.368.245.506.414l14.343 17.732 17.042 7.409 17.119 2.01a1.537 1.537 0 0 1 1.35 1.702l-3.575 31.63a1.522 1.522 0 0 1-1.135 1.304l-12.517 3.329a55.427 55.427 0 0 1-14.434 1.902zm37.494-119.985h-46.356a7.43 7.43 0 0 1-7.424-7.424v-23.378a7.43 7.43 0 0 1 7.424-7.424h46.356a7.43 7.43 0 0 1 7.424 7.424v23.378a7.43 7.43 0 0 1-7.424 7.424z"/><path fill="#483D89" d="M259.111 272.409c2.516 1.135 62.232-11.551 62.232-11.551s41.908-13.775 46.525 17.487c4.617 31.262-38.241 38.748-38.241 38.748l-68.69.674-1.826-45.358z"/><path fill="#483D89" d="m275.904 232.741 32.643 38.763s60.146 25.218 59.317 6.826c-.828-18.392-41.631-80.962-41.631-80.962s-30.602-49.638-50.329 35.373z"/><path fill="#FDFCFC" d="M263.238 273.82a1.526 1.526 0 0 1-1.503-1.242c-.153-.829.384-1.642 1.212-1.795 1.779-.338 43.794-8.268 64.257-4.173a1.53 1.53 0 0 1 1.196 1.811 1.517 1.517 0 0 1-1.81 1.196c-19.88-3.973-62.661 4.096-63.091 4.172a1.174 1.174 0 0 1-.261.031z"/><path fill="#FDFCFC" d="M309.227 268.282c-.506 0-1.012-.26-1.304-.721l-12.241-19.726a1.54 1.54 0 0 1 .491-2.117 1.539 1.539 0 0 1 2.117.491l12.241 19.726c.445.721.23 1.673-.491 2.117-.245.169-.537.23-.813.23z"/><path fill="#FFA6DE" d="M73.112 21.19c-6.779 15.131-2.305 32.945 10.84 43.056l4.954 3.811a82.982 82.982 0 0 1 26.931 36.232l.445 1.176 28.073-10.693-.445-1.175a83.013 83.013 0 0 1-4.006-44.962l1.153-6.14c3.07-16.296-5.444-32.569-20.575-39.347-18.065-8.103-39.28-.023-47.37 18.041z"/><path fill="#FDFCFC" d="M120.47 86.487c-.457 0-.89-.285-1.061-.73l-9.792-25.7a20.172 20.172 0 0 1-3.309.651c-6.436.685-11.309-2.659-11.834-6.196-.285-1.94.753-4.28 4.565-5.022 6.185-1.21 11.526 6.973 11.754 7.315.045.069.08.137.103.217l.068.171a23.957 23.957 0 0 0 5.5-3.115 85.38 85.38 0 0 0-.947-2.18c-2.67-5.694-3.594-8.946-2.008-13.146 2.271-5.98 5.957-6.162 7.44-5.957 2.933.4 5.375 3.104 5.683 6.31.571 5.946-2.682 11.64-7.406 15.703 3.595 8.924 10.042 26.738 10.362 27.628a1.138 1.138 0 0 1-.685 1.46 1.139 1.139 0 0 1-1.461-.684c-.079-.217-6.436-17.78-10.087-26.932a26.168 26.168 0 0 1-5.581 3.059l9.757 25.619a1.134 1.134 0 0 1-.662 1.472 1.525 1.525 0 0 1-.399.057zm-20.165-34.84c-.273 0-.559.023-.833.08-1.13.217-2.99.833-2.75 2.442.32 2.157 4.029 4.805 9.335 4.268a17.751 17.751 0 0 0 2.716-.513c-.605-.913-4.439-6.277-8.468-6.277zM120.23 35.01c-1.826 0-3.48 1.62-4.587 4.53-1.187 3.139-.776 5.592 1.94 11.367.205.433.445.98.719 1.62 3.903-3.583 6.516-8.388 6.059-13.226-.205-2.146-1.837-4.017-3.708-4.268a5.279 5.279 0 0 0-.423-.023z"/><path fill="#483D89" d="m137.128 107.131-8.034 3.058c-7.053 2.693-14.95-.856-17.643-7.908l-4.93-12.93 33.585-12.792 4.93 12.94c2.693 7.042-.845 14.95-7.908 17.632z"/></svg>