<svg xmlns="http://www.w3.org/2000/svg" width="578" height="418" fill="none"><g clip-path="url(#a)"><path fill="#483D89" d="M285.149 214.438c-8.47 5.439-12.791 11.204-13.425 15.47H28.29c3.669-11.992 10.41-25.443 22.529-28.134 22.797-5.073 24.065-6.341 13.924-30.419-10.14-24.079-24.45-38.241 11.408-41.816 25.333-2.536 26.6-10.146 27.868-39.279 1.267-29.151 46.862-32.956 63.322-25.346 16.459 7.61 0-11.415 15.191-15.2 15.192-3.806 18.995 5.072 21.53 11.414 2.535 6.341 34.206 8.878 40.524 31.688 6.338 22.81 31.671 20.274 22.798 58.303-8.873 38.011 3.803 22.811 13.924 26.615 10.179 3.767 21.568 25.309 3.841 36.704z"/><path fill="#483D89" d="M120.178 253.025c1.824-27.938-19.332-52.066-47.255-53.892C45 197.308 20.885 218.477 19.06 246.415c-1.825 27.938 19.332 52.067 47.255 53.892 27.923 1.826 52.038-19.343 53.862-47.282z"/><path fill="#FDFCFC" d="m113.257 422.016-63.226-6.149c-26.58 0-48.11-21.542-48.11-48.119 0-24.693 8.373-48.656 23.757-67.95l67.067-84.168a66.373 66.373 0 0 1 57.714-24.771l76.074 6.668c25.486 2.23 47.419 18.91 56.388 42.873l60.249 175.467-229.913 6.149z"/><path fill="#483D89" d="M113.257 417.789H50.031C22.432 417.789 0 395.343 0 367.748c0-25.02 8.585-49.578 24.18-69.16l67.067-84.169c14.308-17.968 36.51-27.518 59.384-25.481l76.075 6.668c26.062 2.287 48.84 19.601 58.021 44.121l60.268 169.337c.365.999-.173 2.095-1.172 2.46a1.941 1.941 0 0 1-2.458-1.172l-60.249-169.318c-8.662-23.118-30.153-39.452-54.756-41.604l-76.074-6.668c-21.588-1.883-42.541 7.11-56.043 24.059L27.176 300.99c-15.038 18.89-23.335 42.584-23.335 66.758 0 25.482 20.723 46.216 46.19 46.216h63.245c1.056 0 1.921.865 1.921 1.922a1.928 1.928 0 0 1-1.94 1.903z"/><path fill="#483D89" d="M217.161 379.451c-.327 0-.673-.077-.98-.269a1.934 1.934 0 0 1-.672-2.633l47.899-80.517a1.933 1.933 0 0 1 2.631-.673c.903.538 1.21 1.73.673 2.633l-47.9 80.518a1.907 1.907 0 0 1-1.651.941z"/><path fill="#FDFCFC" d="M202.814 380.969c12.291 18.352 36.376 24.713 56.657 15.988l25.525-10.992 9.161 18.16c3.053 6.399 10.64 9.224 17.131 6.342 2.92-1.288 4.226-4.728 2.9-7.649l-10.947-22.137.192-.058 15.691 25.174c3.611 6.111 11.447 8.225 17.651 4.766a5.737 5.737 0 0 0 2.189-7.879l-4.206-6.88 3.073 3.19c4.917 5.131 13.002 5.4 18.265.634 2.228-2.19 3.169-3.939 2.535-5.822l-38.623-41.527h-72.637l-19.686-.577H87.809l-5.34 9.82c-15.863 29.248 12.715 64.356 43.56 51.962l48.456-21.177 28.329-11.338z"/><path fill="#483D89" d="M113.142 418c-10.045 0-19.686-4.343-26.965-12.51-11.217-12.606-13.33-30.19-5.397-44.833l5.339-9.819c.346-.615.98-1 1.69-1h139.876l19.744.577h72.579c.538 0 1.037.23 1.402.615l38.623 41.527c.192.192.326.423.403.692 1.114 3.228-1.018 5.861-2.996 7.821-4.533 4.112-10.755 5.015-15.979 2.786a7.66 7.66 0 0 1-.077 3.786c-.557 1.999-1.863 3.632-3.668 4.65-7.164 3.978-16.037 1.576-20.224-5.476l-.845-1.346a7.38 7.38 0 0 1-.5 2.479 7.597 7.597 0 0 1-4.071 4.305c-7.49 3.324-16.114.115-19.648-7.283l-8.316-16.507-23.873 10.281c-21.03 9.051-45.21 2.555-58.117-15.393l-26.907 10.819-48.399 21.158c-4.532 1.787-9.142 2.671-13.674 2.671zm-24.2-64.338-4.782 8.821c-7.164 13.183-5.243 29.055 4.898 40.432 9.468 10.626 23.373 14.009 36.279 8.82l48.399-21.157 28.386-11.415a1.903 1.903 0 0 1 2.305.711c11.639 17.391 34.475 23.809 54.295 15.296l25.525-10.992c.941-.403 2.016 0 2.477.904l9.161 18.14c2.651 5.554 9.065 7.917 14.654 5.458a3.771 3.771 0 0 0 2.017-2.153 3.812 3.812 0 0 0-.096-2.94l-10.928-22.06a1.946 1.946 0 0 1-.039-1.634 1.91 1.91 0 0 1 1.23-1.076l.192-.058c.825-.23 1.709.096 2.151.827l15.691 25.173c3.13 5.285 9.756 7.072 15.076 4.113a3.775 3.775 0 0 0 1.825-2.306c.269-.999.154-2.037-.365-2.921l-4.187-6.822a1.914 1.914 0 0 1 3.016-2.325l3.072 3.19c4.226 4.4 11.063 4.65 15.596.538 1.959-1.922 2.17-2.902 2.093-3.44l-37.72-40.566h-71.792l-19.743-.577H88.942v.019z"/><path fill="#483D89" d="M334.873 397.726a1.89 1.89 0 0 1-1.671-.98l-24.065-43.007a1.919 1.919 0 0 1 3.342-1.883l24.065 43.007a1.92 1.92 0 0 1-1.671 2.863zm-30.211-12.51c-.71 0-1.402-.403-1.728-1.076l-15.077-30.804a1.927 1.927 0 0 1 .884-2.575c.96-.461 2.112-.077 2.573.884l15.077 30.804a1.927 1.927 0 0 1-.884 2.575c-.288.115-.576.192-.845.192z"/><path fill="#FDFCFC" d="m276.679 370.342 13.79 26.462c2.324 4.458.596 9.954-3.86 12.298-4.456 2.325-9.949.596-12.292-3.862l-13.214-18.41-10.64 2.979 26.216-19.467z"/><path fill="#483D89" d="M282.422 412.062c-3.937 0-7.74-2.114-9.718-5.804l-12.35-17.218-9.353 2.614a1.916 1.916 0 0 1-1.037-3.69l10.64-2.979a1.917 1.917 0 0 1 2.074.731l13.214 18.409c.058.077.096.154.134.231a7.112 7.112 0 0 0 4.207 3.536 7.138 7.138 0 0 0 5.473-.481 7.11 7.11 0 0 0 3.534-4.208 7.152 7.152 0 0 0-.48-5.477l-13.79-26.461a1.915 1.915 0 0 1 .807-2.594 1.93 1.93 0 0 1 2.593.807l13.789 26.461c2.804 5.4.711 12.068-4.667 14.893a11.145 11.145 0 0 1-5.07 1.23z"/><path fill="#B984FD" d="M327.215 138.752c2.938-18.113-9.356-35.18-27.459-38.12-18.103-2.94-35.16 9.361-38.098 27.474-2.938 18.114 9.355 35.18 27.458 38.12 18.103 2.94 35.161-9.361 38.099-27.474zm-4.038 44.517c0 3.17-4.859 5.745-10.852 5.745-5.992 0-10.851-2.575-10.851-5.745 0-3.171 4.859-5.746 10.851-5.746 5.993 0 10.852 2.575 10.852 5.746z"/><path fill="#B984FD" d="M323.177 185.19a1.942 1.942 0 0 1-1.863-1.441 1.925 1.925 0 0 1 1.363-2.344c8.701-2.287 13.464-5.631 14.136-9.935 1.44-9.186-15.192-22.023-21.722-26.212a1.908 1.908 0 0 1-.576-2.652 1.902 1.902 0 0 1 2.65-.576c1.037.672 25.563 16.507 23.451 30.035-.941 5.957-6.646 10.358-16.959 13.048a1.39 1.39 0 0 1-.48.077z"/><path fill="#483D89" d="M537.879 415.142H358.343l45.729-171.186c2.65-9.878 13.482-17.43 22.816-15.892l141.183 23.098c7.49 1.23 11.465 7.975 9.334 15.892l-39.526 148.088z"/><path fill="#483D89" d="M231.834 415.145h233.6v-19.032H249.081c-9.526 0-17.247 7.725-17.247 17.256v1.776zm42-259.183c34.097-13.446 50.843-52.003 37.405-86.119-13.439-34.116-51.974-50.872-86.071-37.426-34.097 13.446-50.843 52.003-37.405 86.119 13.439 34.116 51.974 50.872 86.071 37.426z"/><path fill="#483D89" d="M223.123 56.332c8.278-21.262-2.238-45.212-23.488-53.495-21.25-8.283-45.187 2.238-53.465 23.5-8.279 21.262 2.237 45.213 23.487 53.496 21.25 8.282 45.187-2.239 53.466-23.5z"/><path fill="#FDFCFC" d="M201.853 94.872a19.926 19.926 0 0 1 8.874 5.515v-.019c19.167 8.974 27.848 3.44 35.934-9.416 10.371-16.468 28.405-26.48 47.841-25.808l3.15.115c14.481 15.624 20.877 38.107 14.885 60.168l-7.913 29.113c-6.165 22.714-29.577 36.108-52.259 29.939l-6.242-1.691-20.531 32.265c-13.905 16.411-39.718 14.643-51.261-3.497l-10.928-17.161 38.431-61.32c-3.438 1.018-7.183 1.153-10.889.154-10.756-2.921-17.055-14.144-13.886-24.905 3.073-10.396 14.423-16.546 24.794-13.452z"/><path fill="#483D89" d="M201.335 228.255c-.788 0-1.575-.019-2.382-.077-10.832-.73-20.396-6.418-26.235-15.585l-10.928-17.16a1.9 1.9 0 0 1 0-2.056l36.107-57.612c-2.497.193-5.013-.019-7.452-.691-5.723-1.557-10.448-5.266-13.348-10.435-2.881-5.169-3.553-11.165-1.863-16.853 1.633-5.515 5.378-10.108 10.563-12.933 5.186-2.825 11.101-3.459 16.613-1.825 3.553 1.057 6.799 3.036 9.411 5.707 17.996 8.34 25.582 3.324 33.226-8.82 10.794-17.16 29.789-27.442 49.532-26.712l3.15.116c.519.019.999.23 1.344.615 15.576 16.795 21.3 39.97 15.327 61.993l-7.913 29.113c-6.434 23.694-30.941 37.722-54.622 31.284l-4.878-1.326-19.782 31.074a.858.858 0 0 1-.153.211c-6.511 7.687-15.768 11.972-25.717 11.972zm-35.646-33.879 10.275 16.142c5.166 8.129 13.655 13.163 23.258 13.817 9.565.672 18.611-3.152 24.833-10.435l20.474-32.149c.442-.711 1.306-1.038 2.132-.827l6.242 1.692c21.625 5.88 44.019-6.938 49.896-28.576l7.913-29.113c5.57-20.465.365-42.007-13.886-57.784l-2.343-.077c-18.38-.615-36.088 8.916-46.151 24.924-8.163 12.971-17.785 19.659-38.105 10.242a2.018 2.018 0 0 1-.864-.518 17.952 17.952 0 0 0-8.009-4.977c-4.533-1.346-9.392-.808-13.674 1.518-4.283 2.325-7.376 6.11-8.72 10.646-1.383 4.688-.845 9.627 1.537 13.893a17.879 17.879 0 0 0 11.004 8.609c3.227.884 6.626.827 9.853-.134a1.909 1.909 0 0 1 2.074.672c.48.634.519 1.499.096 2.191l-37.835 60.244z"/><path fill="#483D89" d="M276.737 113.455c-1.306 3.689-4.533 5.899-7.183 4.958-2.65-.942-3.726-4.689-2.42-8.379 1.306-3.689 4.533-5.899 7.183-4.958 2.651.961 3.745 4.708 2.42 8.379zm-7.183 43.948c-1.709 0-3.457-.519-5.32-1.537-5.358-2.921-8.105-14.836-7.183-19.448.538-2.728 2.247-3.19 2.958-3.266 3.572-.346 17.285 6.61 23.008 9.608.48.25.826.692.961 1.23a1.978 1.978 0 0 1-.25 1.537c-5.378 8.167-9.641 11.876-14.174 11.876zm-8.7-20.389c-.25.961-.269 3.478.653 7.033 1.075 4.151 2.9 7.533 4.571 8.437 3.342 1.806 6.491 2.402 13.271-7.322-7.567-3.882-15.96-7.725-18.495-8.148zm24.833-32.418a1.974 1.974 0 0 1-1.575-.807c-2.074-2.94-6.031-5.227-10.582-6.13-3.745-.75-7.452-.48-10.391.75a1.929 1.929 0 0 1-2.516-1.039 1.937 1.937 0 0 1 1.037-2.517c3.65-1.518 8.125-1.845 12.599-.96 5.513 1.095 10.372 3.958 12.984 7.686a1.912 1.912 0 0 1-1.556 3.017zm23.47 23.156c-1.537 3.593-4.86 5.611-7.452 4.516-2.593-1.096-3.438-4.92-1.921-8.513 1.537-3.594 4.859-5.611 7.452-4.516 2.593 1.095 3.438 4.9 1.921 8.513zm-62.727 56.996c-.173 0-.365-.019-.538-.077-24.295-7.206-29.961-32.879-30.191-33.975-.211-1.037.442-2.056 1.479-2.267a1.94 1.94 0 0 1 2.285 1.48c.058.249 5.455 24.539 27.522 31.073a1.908 1.908 0 0 1 1.287 2.383 1.925 1.925 0 0 1-1.844 1.383zm-42.56-66.758c-.173 0-.346-.019-.499-.077a1.911 1.911 0 0 1-1.345-2.364 8.785 8.785 0 0 0-.864-6.706 8.723 8.723 0 0 0-5.358-4.132 1.911 1.911 0 0 1-1.345-2.364 1.91 1.91 0 0 1 2.363-1.345 12.619 12.619 0 0 1 7.682 5.938c1.69 2.94 2.112 6.361 1.229 9.628a1.942 1.942 0 0 1-1.863 1.422z"/><path fill="#483D89" d="M293.024 139.705a1.932 1.932 0 0 1-1.671-.961c-.077-.135-7.932-14.163 1.805-25.789 3.38-4.036 7.164-6.207 11.255-6.457 5.953-.384 10.217 3.536 10.409 3.709.768.73.826 1.941.096 2.71-.73.768-1.94.826-2.708.096-.057-.058-3.342-2.979-7.605-2.691-2.977.192-5.839 1.903-8.508 5.093-8.048 9.589-1.479 21.292-1.422 21.407a1.942 1.942 0 0 1-.71 2.633c-.288.173-.615.25-.941.25z"/><path fill="#B984FD" d="M206.809 101.675c-.135 0-.269-.019-.404-.039a1.898 1.898 0 0 1-1.479-2.267c.096-.461 2.42-11.357 8.278-24.444 5.435-12.164 15.058-28.498 30.019-37.184 12.119-7.033 25.889-8.128 40.947-3.267a1.91 1.91 0 0 1 1.229 2.422c-.327 1.018-1.402 1.556-2.42 1.249-13.982-4.516-26.715-3.536-37.836 2.92-27.041 15.681-36.375 58.669-36.471 59.111a1.91 1.91 0 0 1-1.863 1.499z"/><path fill="#B984FD" d="M235.11 118.398c4.214-17.858-6.838-35.754-24.686-39.97-17.849-4.217-35.734 6.841-39.948 24.699-4.215 17.858 6.838 35.754 24.686 39.971 17.848 4.216 35.733-6.842 39.948-24.7z"/><path fill="#483D89" d="M99.64 352.625c-.327 0-.672-.077-.98-.269a1.935 1.935 0 0 1-.672-2.633l47.9-80.517a1.915 1.915 0 0 1 2.631-.673 1.935 1.935 0 0 1 .672 2.633l-47.899 80.517a1.949 1.949 0 0 1-1.652.942zm-9.718 1.038H60.038a1.927 1.927 0 0 1-1.921-1.922c0-1.057.864-1.922 1.92-1.922h29.885c1.056 0 1.92.865 1.92 1.922a1.915 1.915 0 0 1-1.92 1.922z"/><path fill="#B1E0EF" d="M505.498 38.203H374.975c-6.011 0-10.89 4.88-10.89 10.895v106.537c0 6.015 4.879 10.896 10.89 10.896h20.838v23.714c0 4.554 4.917 7.398 8.854 5.111l31.037-28.844h69.794c6.011 0 10.89-4.881 10.89-10.896V49.098c-.02-6.014-4.879-10.895-10.89-10.895z"/><path fill="#FDFCFC" d="M440.217 129.27c-14.27 0-25.87-11.607-25.87-25.885 0-14.278 11.6-25.885 25.87-25.885 14.27 0 25.87 11.607 25.87 25.885 0 14.278-11.6 25.885-25.87 25.885zm0-44.083c-10.025 0-18.188 8.167-18.188 18.198s8.163 18.198 18.188 18.198c10.026 0 18.188-8.167 18.188-18.198.019-10.03-8.143-18.198-18.188-18.198z"/><path fill="#FDFCFC" d="M444.058 59.302h-7.682v22.042h7.682V59.302zm0 66.125h-7.682v22.041h7.682v-22.041zm-25.87-25.885h-22.029v7.687h22.029v-7.687zm66.107 0h-22.029v7.687h22.029v-7.687zm-62.367 16.737-15.575 15.588 5.433 5.435 15.575-15.588-5.433-5.435zm46.738-46.792-15.577 15.585 5.433 5.435 15.576-15.585-5.432-5.435zm-56.906.02-5.43 5.436 15.581 15.582 5.43-5.437-15.581-15.581zm46.745 46.744-5.432 5.436 15.576 15.585 5.433-5.435-15.577-15.586zm36.814 217.718c3.267-9.65.704-19.239-5.725-21.419-6.429-2.179-14.291 3.876-17.558 13.526-3.268 9.649-.705 19.239 5.725 21.418 6.429 2.18 14.29-3.875 17.558-13.525z"/></g><defs><clipPath id="a"><path fill="#fff" d="M0 0h578v418H0z"/></clipPath></defs></svg>