<svg xmlns="http://www.w3.org/2000/svg" width="659" height="482" fill="none"><g clip-path="url(#a)"><path stroke="#FDFCFC" stroke-dasharray="10 10" stroke-width="3" d="M39 272.5c0 56 0 172.5 207.5 167.5"/><path fill="#FDFCFC" d="M384.505 271.739H22.97c-11.507 0-20.82-9.365-20.82-20.888V23.046c0-11.523 9.335-20.888 20.82-20.888h361.535c11.506 0 20.818 9.365 20.818 20.888v227.783c0 11.545-9.312 20.91-20.818 20.91z"/><path fill="#483D89" d="M384.505 273.896H22.97C10.302 273.896 0 263.56 0 250.851V23.046C0 10.336 10.302 0 22.97 0h361.535c12.667 0 22.969 10.336 22.969 23.046v227.783c0 12.731-10.302 23.067-22.969 23.067zM22.97 4.316c-10.28 0-18.67 8.414-18.67 18.73v227.783c0 10.336 8.388 18.73 18.669 18.73h361.535c10.301 0 18.668-8.415 18.668-18.73V23.046c0-10.336-8.388-18.73-18.668-18.73H22.97z"/><path fill="#483D89" d="M28.777 34.526c-5.334 0-9.679-4.36-9.679-9.71 0-5.352 4.345-9.711 9.679-9.711 5.333 0 9.678 4.359 9.678 9.71 0 5.352-4.345 9.71-9.678 9.71zm0-15.105c-2.968 0-5.377 2.416-5.377 5.394s2.409 5.395 5.377 5.395 5.376-2.417 5.376-5.395c0-2.978-2.408-5.394-5.376-5.394zm25.335 15.105c-5.334 0-9.678-4.36-9.678-9.71 0-5.352 4.344-9.711 9.678-9.711 5.334 0 9.678 4.359 9.678 9.71 0 5.352-4.344 9.71-9.678 9.71zm0-15.105c-2.968 0-5.377 2.416-5.377 5.394s2.409 5.395 5.377 5.395 5.377-2.417 5.377-5.395c0-2.978-2.41-5.394-5.377-5.394zm25.335 15.105c-5.333 0-9.678-4.36-9.678-9.71 0-5.352 4.345-9.711 9.678-9.711 5.334 0 9.679 4.359 9.679 9.71 0 5.352-4.345 9.71-9.679 9.71zm0-15.105c-2.968 0-5.376 2.416-5.376 5.394s2.408 5.395 5.376 5.395c2.968 0 5.377-2.417 5.377-5.395 0-2.978-2.409-5.394-5.377-5.394zM11.27 268.113a20.588 20.588 0 0 0 11.7 3.626h216.34l-.237-18.536c-.301-23.802-15.033-45.013-37.186-53.537l-65.338-25.117-65.06 15.213c-20.754 4.855-37.744 19.701-45.4 39.661l-14.82 38.69zm152.657-125.069-22.475-3.776c-25.851-4.337-43.444-29.088-39.143-55.025l1.484-8.934c5.42-32.476 36.326-54.594 68.694-49.156l.968 9.344c20.281 3.41 34.11 22.83 30.712 43.2l-6.732 40.373c-2.623 15.839-17.7 26.628-33.508 23.974z"/><path fill="#483D89" d="M209.157 113.444c11.967-25.116.063-55.84-26.588-68.623-26.652-12.783-57.959-2.785-69.926 22.331-11.967 25.117-.063 55.841 26.588 68.624 26.652 12.783 57.959 2.785 69.926-22.332z"/><path fill="#483D89" d="M167.541 188.812c-12.754-10.142-20.131-26.477-18.066-43.869l1.892-16.011 42.348 4.963-26.174 54.917zM145.625 91.04c4.215-16.68 18.259-29.843 34.734-31.073 10.259-.777 19.421 3.237 25.744 10.271-4.409-1.618-17.077-5.416-23.12 1.295-7.399 8.178-16.432 26.261-37.358 19.507z"/><path fill="#483D89" d="M231.503 77.748c-2.173 13.076-14.518 21.902-27.529 19.722-13.034-2.18-21.83-14.565-19.658-27.62 2.172-13.077 14.517-21.902 27.529-19.723 13.034 2.18 21.83 14.544 19.658 27.62zm-69.64-45.833c-26.067-1.036-49.488 17.047-54.801 43.135 5.119 4.79 11.743 8.222 19.292 9.495 19.615 3.301 38.068-9.214 41.187-27.945 1.484-8.933-.775-17.65-5.678-24.685z"/><path fill="#483D89" d="M192.833 56.547c3.576-12.756-3.831-26.007-16.545-29.596-12.715-3.588-25.921 3.844-29.498 16.6-3.577 12.757 3.83 26.007 16.545 29.596 12.714 3.589 25.921-3.843 29.498-16.6z"/><path fill="#483D89" d="M218.919 65.834c5.566-12.438.028-27.048-12.368-32.633-12.397-5.584-26.959-.028-32.525 12.41-5.566 12.438-.028 27.048 12.369 32.632 12.397 5.585 26.958.029 32.524-12.41zm-85.532-18.966c-1.075 0-2.022-.82-2.129-1.92-.667-6.366-7.807-9.214-7.893-9.236-1.097-.431-1.656-1.683-1.226-2.783a2.153 2.153 0 0 1 2.774-1.252c.387.151 9.679 3.776 10.625 12.818a2.155 2.155 0 0 1-1.914 2.373h-.237z"/><path fill="#483D89" d="M134.441 46.437a2.165 2.165 0 0 1-1.441-.561c-6.71-6.085-4.172-15.752-4.065-16.162.323-1.144 1.506-1.834 2.646-1.51a2.156 2.156 0 0 1 1.505 2.653c-.043.173-1.893 7.553 2.796 11.825a2.157 2.157 0 0 1-1.441 3.755z"/><path fill="#FDFCFC" d="m170.831 197.357-6.237-2.373 11.377-23.888c3.14.756 6.388 1.166 9.765 1.079 20.517-.561 36.712-17.694 36.153-38.28l-.387-14.35c4.022-.561 7.097-4.013 7.011-8.178a8.086 8.086 0 0 0-7.441-7.898l-.108-4.121c-.559-20.586-17.636-36.835-38.153-36.274-17.314.475-31.53 12.731-35.229 28.937-6.947-1.122-13.915 2.805-16.432 9.689-2.172 5.999-.301 12.472 4.194 16.443l-31.787 66.699-17.249 4.38c-1.613 14.07 3.871 30.793 15.98 44.603 19.249 21.946 47.939 28.16 64.07 13.918 12.624-11.177 13.764-31.547 4.473-50.386z"/><path fill="#483D89" d="M144.915 257.497c-14.861 0-31.572-7.833-44.24-22.248-12.087-13.767-18.26-31.073-16.518-46.264a2.217 2.217 0 0 1 1.613-1.856l16.281-4.121 30.691-64.434c-4.43-4.704-5.85-11.458-3.613-17.651a17.159 17.159 0 0 1 16.818-11.286c4.624-16.55 19.486-28.29 36.799-28.742 10.517-.302 20.475 3.539 28.11 10.789 7.635 7.25 11.979 17.047 12.259 27.577l.064 2.374a10.252 10.252 0 0 1 7.506 9.667 10.243 10.243 0 0 1-6.968 9.905l.344 12.602c.28 10.53-3.527 20.542-10.753 28.203-7.227 7.66-16.991 12.019-27.486 12.3-2.839.086-5.721-.173-8.625-.756l-9.635 20.219 4.065 1.533c.516.194.925.582 1.161 1.057 9.98 20.219 7.958 41.495-4.989 52.932-6.259 5.546-14.26 8.2-22.884 8.2zm-56.628-66.57c-1.054 13.659 4.71 29.045 15.614 41.452 18.432 21.018 45.832 27.168 61.037 13.724 11.313-9.99 13.012-28.807 4.345-47.019l-5.442-2.072a2.118 2.118 0 0 1-1.226-1.208 2.189 2.189 0 0 1 .065-1.726l11.377-23.888c.43-.928 1.463-1.403 2.452-1.165a35.627 35.627 0 0 0 9.205 1.014c9.356-.259 18.045-4.143 24.475-10.962 6.431-6.819 9.829-15.731 9.592-25.117l-.387-14.35c-.021-1.101.774-2.05 1.85-2.201a5.983 5.983 0 0 0 5.162-5.999 5.936 5.936 0 0 0-5.463-5.805c-1.097-.086-1.936-.992-1.979-2.093l-.107-4.121c-.259-9.387-4.13-18.105-10.926-24.556-6.796-6.453-15.7-9.84-25.034-9.625-15.98.432-29.616 11.631-33.186 27.254-.258 1.1-1.312 1.834-2.43 1.64-6.065-.97-11.958 2.525-14.066 8.308-1.828 5.028-.408 10.552 3.592 14.069.731.647.946 1.683.516 2.546l-31.831 66.743a2.139 2.139 0 0 1-1.419 1.165l-15.786 3.992z"/><path fill="#483D89" d="M145.99 113.611c-.15 0-.322-.021-.494-.065-1.162-.258-1.871-1.424-1.613-2.589 1.075-4.704-2.667-7.337-2.71-7.38-.99-.669-1.226-2.007-.559-2.999.666-.993 2-1.23 2.989-.561.258.172 6.194 4.359 4.474 11.889a2.116 2.116 0 0 1-2.087 1.705zm63.963 12.645c-3.248 0-7.528-1.661-10.345-7.811a2.174 2.174 0 0 1 1.053-2.87 2.161 2.161 0 0 1 2.861 1.057c3.032 6.603 7.463 5.222 7.958 5.05a2.147 2.147 0 0 1 2.752 1.251c.409 1.101-.107 2.331-1.204 2.762-.817.345-1.871.561-3.075.561zm1.656-23.391c-.28 2.071-1.871 3.56-3.592 3.345-1.699-.216-2.882-2.094-2.602-4.165.279-2.072 1.871-3.56 3.591-3.345 1.721.216 2.882 2.093 2.603 4.165zm-2.108-13.271c.43 1.23-1.979 3.215-5.377 4.424-3.398 1.208-6.516 1.186-6.947-.043-.43-1.23 1.979-3.216 5.377-4.424 3.398-1.209 6.495-1.187 6.947.043zm-39.272-25.98c-16.066-2.137-31.594 7.703-36.39 23.542 2.882 3.258 6.796 5.761 11.399 6.991 11.958 3.172 24.088-3.517 27.077-14.932 1.441-5.438.538-10.962-2.086-15.601zm5.742 109.273c-.193 0-.365-.021-.559-.064-16.689-4.467-28.669-19.702-29.142-37.051-.043-1.187.903-2.179 2.086-2.222 1.183-.065 2.172.906 2.215 2.093.409 15.45 11.098 29.023 25.959 32.993a2.164 2.164 0 0 1-.559 4.251z"/><path fill="#FDFCFC" d="M629.105 479.842H267.57c-11.506 0-20.819-9.365-20.819-20.888V231.15c0-11.545 9.334-20.889 20.819-20.889h361.535c11.506 0 20.819 9.366 20.819 20.889v227.783c0 11.544-9.313 20.909-20.819 20.909z"/><path fill="#483D89" d="M629.105 482H267.57c-12.667 0-22.969-10.336-22.969-23.046V231.149c0-12.709 10.302-23.045 22.969-23.045h361.535c12.668 0 22.97 10.336 22.97 23.045v227.784c0 12.709-10.302 23.067-22.97 23.067zM267.57 212.419c-10.302 0-18.668 8.416-18.668 18.73v227.784c0 10.336 8.388 18.73 18.668 18.73h361.535c10.302 0 18.668-8.416 18.668-18.73V231.149c0-10.336-8.388-18.73-18.668-18.73H267.57z"/><path fill="#483D89" d="M422.701 389.536c7.571 4.877 11.442 10.055 12.001 13.875 0 0 165.584 63.29 209.179 31.375 35.293-25.829-.71-54.205-11.571-56.622-20.389-4.553-21.529-5.675-12.474-27.275 9.054-21.6 21.872-34.289-10.195-37.525-22.668-2.266-23.787-9.085-24.927-35.238-1.139-26.153-41.917-29.563-56.649-22.744-14.733 6.819 0-10.228-13.593-13.638-13.592-3.409-16.991 4.553-19.27 10.229-2.259 5.675-30.583 7.962-36.261 28.419-5.657 20.456-28.325 18.19-20.389 52.284 7.936 34.094-3.398 20.457-12.474 23.866-9.055 3.431-19.249 22.766-3.377 32.994z"/><path fill="#B984FD" d="M629.105 479.843c10.818 0 19.722-8.287 20.733-18.882l-11.313-22.7c-10.323-20.716-31.422-33.792-54.499-33.792H445.563a42.027 42.027 0 0 0-29.766 12.364 42.26 42.26 0 0 0-10.172 16.508l-15.443 46.502h238.923z"/><path fill="#483D89" d="M629.105 482H390.161a2.11 2.11 0 0 1-1.742-.906 2.162 2.162 0 0 1-.301-1.942l15.442-46.502a44.549 44.549 0 0 1 10.689-17.349c8.366-8.394 19.464-13.012 31.293-13.012h138.463c24.045 0 45.659 13.4 56.434 34.979l11.313 22.701c.172.366.258.776.215 1.165-1.118 11.89-10.968 20.866-22.862 20.866zm-235.976-4.315h235.955c9.484 0 17.334-6.97 18.517-16.335l-11.033-22.14c-10.022-20.111-30.174-32.605-52.585-32.605H445.52c-10.667 0-20.69 4.164-28.239 11.739a40.385 40.385 0 0 0-9.656 15.666l-14.496 43.675zm157.553-162.023c5.13-32.004-16.569-62.122-48.467-67.269-31.898-5.148-61.916 16.624-67.046 48.628-5.131 32.003 16.569 62.121 48.467 67.268 31.898 5.148 61.915-16.623 67.046-48.627z"/><path fill="#FDFCFC" d="M563.422 326.354a14.754 14.754 0 0 0-7.463.367c4.302-22.722-7.183-45.682-28.239-55.63-25.959-12.278-56.907-.561-68.306 25.851l-6.259 14.458c-10.001 23.132 3.872 49.631 28.54 54.486l4.495.885v37.762h-22.475c7.571 20.867 28.519 35.885 53.166 35.885 24.669 0 45.595-15.018 53.165-35.885h-27.507V365.39c3.355-3.41 5.893-7.704 7.119-12.667l.215-.885c2 1.964 4.559 3.41 7.506 4.014 8.13 1.683 16.066-3.582 17.722-11.739 1.677-8.135-3.549-16.097-11.679-17.759z"/><path fill="#483D89" d="M516.881 442.576c-24.927 0-47.101-14.997-55.187-37.309a2.174 2.174 0 0 1 .258-1.986 2.141 2.141 0 0 1 1.763-.927h20.325v-33.793l-2.753-.539c-12.389-2.438-22.884-10.293-28.755-21.514-5.872-11.221-6.367-24.34-1.334-35.971l6.259-14.458c5.764-13.314 16.388-23.477 29.916-28.591 13.528-5.136 28.196-4.532 41.294 1.64 20.883 9.861 32.863 32.108 29.938 54.852a16.762 16.762 0 0 1 5.29.259c4.495.928 8.367 3.539 10.883 7.38 2.516 3.841 3.398 8.437 2.495 12.947-.925 4.51-3.527 8.394-7.356 10.919-3.828 2.525-8.409 3.431-12.904 2.503a16.93 16.93 0 0 1-5.871-2.417 29.636 29.636 0 0 1-6.366 10.703v36.101h25.357a2.14 2.14 0 0 1 1.763.928c.409.583.495 1.316.258 1.985-8.173 22.291-30.346 37.288-55.273 37.288zm-50.004-35.885c8.28 19.01 27.981 31.569 50.004 31.569 22.023 0 41.702-12.559 50.004-31.569H542.56a2.16 2.16 0 0 1-2.15-2.158v-39.122c0-.561.215-1.122.623-1.51a25.306 25.306 0 0 0 6.56-11.653l.215-.885a2.154 2.154 0 0 1 1.506-1.553 2.12 2.12 0 0 1 2.086.539c1.785 1.748 4 2.935 6.43 3.431 3.377.691 6.797.022 9.679-1.877a12.882 12.882 0 0 0 5.527-8.178 12.897 12.897 0 0 0-1.871-9.711c-1.893-2.87-4.796-4.855-8.151-5.545a12.832 12.832 0 0 0-6.388.323 2.172 2.172 0 0 1-2.065-.453 2.198 2.198 0 0 1-.688-2.007c4.13-21.88-6.99-43.804-27.056-53.277-12.022-5.675-25.507-6.215-37.938-1.511-12.432 4.704-22.196 14.048-27.487 26.283l-6.258 14.458c-4.495 10.422-4.065 22.182 1.204 32.238 5.27 10.056 14.668 17.09 25.787 19.27l4.495.884a2.15 2.15 0 0 1 1.742 2.115v37.762a2.16 2.16 0 0 1-2.15 2.158h-19.335v-.021z"/><path fill="#483D89" d="M553.293 345.818c-.151 0-.28-.022-.431-.043a2.163 2.163 0 0 1-1.677-2.547 13.178 13.178 0 0 1 5.678-8.415c2.946-1.964 6.473-2.633 9.957-1.921a2.16 2.16 0 0 1 1.678 2.546 2.154 2.154 0 0 1-2.538 1.683c-2.344-.474-4.731-.021-6.71 1.295a8.868 8.868 0 0 0-3.828 5.675c-.237 1.015-1.14 1.727-2.129 1.727zm-72.437-33.361c-.516 0-1.01-.172-1.419-.539-.882-.799-.968-2.158-.172-3.043l8.302-9.386a11.065 11.065 0 0 0 2.688-8.805 11.028 11.028 0 0 0-4.882-7.811 1.162 1.162 0 0 1-.194-.151c-.172-.129-4.731-3.625-13.313.345a2.16 2.16 0 0 1-2.86-1.057 2.175 2.175 0 0 1 1.054-2.87c10.495-4.877 16.797-.583 17.765.151a15.379 15.379 0 0 1 6.688 10.789 15.405 15.405 0 0 1-3.742 12.235l-8.302 9.387c-.408.518-1.01.755-1.613.755zm40.821-7.229c-1.871 2.396-4.56 3.086-6.001 1.511-1.462-1.554-1.118-4.769.732-7.164 1.871-2.395 4.559-3.086 6-1.511 1.441 1.576 1.14 4.769-.731 7.164z"/><path fill="#483D89" d="M479.437 295.41c-1.871 2.396-4.56 3.064-6.022 1.511-1.463-1.554-1.14-4.769.731-7.164 1.871-2.395 4.56-3.064 6.022-1.511 1.463 1.554 1.14 4.769-.731 7.164z"/><path fill="#FDFCFC" d="m478.469 317.377 28.282.151s-15.206 32.821-28.282-.151z"/><path fill="#483D89" d="M491.653 334.23h-.258c-5.807-.173-10.689-5.416-14.905-16.054a2.21 2.21 0 0 1 .215-2.007c.409-.583 1.011-.993 1.786-.95l28.26.151a2.17 2.17 0 0 1 1.807.993c.387.626.451 1.403.129 2.072-.753 1.618-7.592 15.795-17.034 15.795zm-9.915-14.673c3.076 6.689 6.431 10.271 9.764 10.357 4.646.13 9.098-5.869 11.679-10.249l-21.443-.108zm74.523 5.092c3.183-21.6-7.7-43.006-27.358-52.953-1.225 20.154 9.421 39.747 27.358 52.953z"/><path fill="#483D89" d="M537.549 305.833a2.137 2.137 0 0 1-2.043-1.511c-4.581-14.414-22.088-15.925-22.26-15.946a2.149 2.149 0 0 1-1.978-2.309c.086-1.187 1.096-2.093 2.301-1.986.839.065 20.561 1.705 26.023 18.925a2.156 2.156 0 0 1-1.398 2.719c-.193.086-.43.108-.645.108zM486.19 368.95a2.157 2.157 0 0 1-2.151-2.071c-.043-1.187.882-2.201 2.065-2.245 10.022-.41 27.142-7.919 27.314-7.984a2.16 2.16 0 0 1 2.839 1.101c.473 1.1-.021 2.374-1.097 2.848-.731.324-18.044 7.898-28.862 8.351-.043-.021-.086 0-.108 0z"/><path fill="#FDFCFC" d="M378.439 123.364c-4.193-30.34-32.088-51.508-62.327-47.3-25.228 3.518-44.09 23.607-47.208 47.775l-.151.13-22.841 17.845 26.82 10.94.172.065c9.549 22.42 33.164 36.597 58.392 33.102 30.239-4.23 51.337-32.217 47.143-62.557z"/><path fill="#483D89" d="M323.725 188.596c-22.41 0-43.165-13.227-52.456-34.115l-26.195-10.682c-.71-.28-1.205-.949-1.312-1.704a2.144 2.144 0 0 1 .817-2.007l22.303-17.414c3.656-25.247 23.658-45.25 48.929-48.768 31.357-4.359 60.413 17.695 64.758 49.156 4.344 31.462-17.636 60.614-48.994 64.973a56.456 56.456 0 0 1-7.85.561zm-73.554-47.386 23.378 9.516c.516.216 1.119.691 1.355 1.23 9.377 22.01 32.454 35.108 56.112 31.807 29.013-4.035 49.338-31.009 45.316-60.096-4.022-29.11-30.884-49.502-59.898-45.466-23.657 3.301-42.326 22.182-45.38 45.919a2.107 2.107 0 0 1-.817 1.424l-20.066 15.666z"/><path fill="#B1E0EF" d="M301.896 330.54c44.602 0 80.759-36.277 80.759-81.027s-36.157-81.028-80.759-81.028c-44.602 0-80.76 36.278-80.76 81.028 0 44.75 36.158 81.027 80.76 81.027z"/><path fill="#B1E0EF" d="M383.064 330.95 342.2 319.967l-40.864-10.984 29.917-30.016 29.916-30.015 10.947 40.999 10.948 40.999z"/><path fill="#483D89" d="M283.808 262.395a11.79 11.79 0 0 1-1.527-.108c-6.043-.841-10.13-3.56-12.001-7.876-2.581.734-5.764 1.316-9.657 1.662l-.365-4.294c3.678-.324 6.624-.864 8.968-1.533a18.04 18.04 0 0 1-.064-3.064c.193-3.366 1.656-6.84 3.591-8.48 1.269-1.079 2.474-1.208 3.27-1.122 3.204.345 5.677 3.237 5.634 6.603-.021 1.597-.752 5.74-7.291 8.761 1.355 2.805 4.173 4.488 8.517 5.092 4.151.583 8.775-2.654 12.259-6.667-4.323-4.1-7.334-9.322-7.075-12.753.344-4.532 3.376-8.545 7.204-9.538 3.291-.842 6.453.647 8.668 4.078 2.602 4.035 1.634 10.401-2.581 17.047a4.787 4.787 0 0 1-.28.432c3.528 2.417 8.797 4.553 14.711 2.071 2.882-1.208 5.119-3.172 6.753-5.394-2.946-3.561-5.075-8.092-5.054-11.437.022-2.136.925-3.819 2.495-4.704 3.549-2.007 5.936-1.1 7.054-.388 2.259 1.467 3.356 4.574 3.011 8.545-.193 2.352-.903 4.92-2.15 7.38.559.474 1.118.906 1.699 1.251 3.419 2.05 5.097 1.619 5.463 1.273l1.634 1.381 1.742 1.273c-.322.454-3.441 4.338-11.054-.215a16.278 16.278 0 0 1-1.807-1.273c-2.022 2.611-4.732 4.855-8.151 6.3-6.13 2.59-12.84 1.662-18.991-2.589-3.957 4.596-9.313 8.286-14.625 8.286zm-8.28-20.521c-.516.259-1.936 2.784-2.086 5.546-.022.41-.022.798-.022 1.186 2.904-1.532 3.893-3.258 3.914-4.466.022-1.295-.924-2.18-1.806-2.266zm21.464-8.718a2.6 2.6 0 0 0-.688.087c-1.785.453-3.742 2.697-3.979 5.675-.108 1.424 1.699 5.373 5.377 8.955 3.14-4.942 4.194-9.926 2.602-12.386-.71-1.122-1.85-2.331-3.312-2.331zm27.077 1.079c-.709 0-1.57.432-1.978.669-.258.151-.301.691-.301.993-.022 1.834 1.161 4.682 2.989 7.272.538-1.446.882-2.892.99-4.23.215-2.503-.388-4.1-1.054-4.531a1.313 1.313 0 0 0-.646-.173z"/><path fill="#FFA6DE" d="m352.757 382.005-.757.755-.757-.757a13.893 13.893 0 0 0-19.562.09 13.898 13.898 0 0 0-.09 19.562l.757.756L352 422.063l19.652-19.652.757-.756a13.897 13.897 0 0 0-19.652-19.65z"/><path fill="#FFA6DE" d="m352.757 382.005-.757.755-.757-.757a13.893 13.893 0 0 0-19.562.09 13.898 13.898 0 0 0-.09 19.562l.757.756L352 422.063l19.652-19.652.757-.756a13.897 13.897 0 0 0-19.652-19.65z"/><path fill="#483D89" d="m560.537 63.23-.537.535-.537-.537a9.863 9.863 0 0 0-13.947 13.946l.537.537L560 91.658l13.946-13.947.538-.537a9.862 9.862 0 0 0-13.947-13.945z"/><path fill="#483D89" d="m560.537 63.23-.537.535-.537-.537a9.863 9.863 0 0 0-13.947 13.946l.537.537L560 91.658l13.946-13.947.538-.537a9.862 9.862 0 0 0-13.947-13.945z"/></g><path fill="#483D89" d="M340.791 152.514c-.419 0-.823-.15-1.137-.48l-12.082-12.085c-.658-.644-.658-1.692 0-2.366.628-.614 1.689-.614 2.302 0l12.113 12.085c.613.644.613 1.707 0 2.366-.329.33-.763.48-1.196.48z"/><path fill="#483D89" d="M321.665 153.877h-.015c-.628 0-1.256-.39-1.48-1.004l-15.044-35.583a1.673 1.673 0 0 1 .359-1.812 1.646 1.646 0 0 1 1.81-.344l35.499 15.036c.599.269 1.017.868 1.032 1.482 0 .704-.419 1.288-1.002 1.558l-13.667 5.975-5.952 13.703c-.284.599-.867.989-1.51.989h-.03zm-11.918-34.116 11.933 28.29 4.695-10.753c.165-.374.494-.689.838-.868l10.751-4.703-28.232-11.981.015.015zM182.766 334.162l-12.458.817.232 3.539 12.458-.817-.232-3.539zm-38.308 2.516-12.458.817.232 3.539 12.458-.816-.232-3.54zM167.147 314l-5.522 11.197 3.181 1.569 5.522-11.197-3.181-1.569zm-16.978 34.409-5.521 11.197 3.181 1.569 5.521-11.197-3.181-1.569zm16.007-1.051-2.949 1.971 6.936 10.38 2.949-1.97-6.936-10.381zm-21.314-31.886-2.949 1.971 6.936 10.38 2.949-1.97-6.936-10.381z"/><path fill="#FDFCFC" d="m529.175 127.062-17.957 1.177.334 5.101 17.957-1.177-.334-5.101zm-55.218 3.627L456 131.866l.334 5.102 17.957-1.177-.334-5.102zM506.661 98l-7.959 16.14 4.585 2.261 7.96-16.14-4.586-2.26zm-24.471 49.599-7.959 16.14 4.585 2.261 7.959-16.14-4.585-2.261zm23.072-1.515-4.251 2.84 9.998 14.963 4.251-2.841-9.998-14.962zm-30.723-45.962-4.251 2.84 9.998 14.963 4.251-2.84-9.998-14.963z"/><defs><clipPath id="a"><path fill="#fff" d="M0 0h659v482H0z"/></clipPath></defs></svg>