<svg xmlns="http://www.w3.org/2000/svg" width="417" height="320" fill="none"><path fill="#483D89" d="M379.35 26.525c23.417 25.758 37.467 53.858 37.467 100.692 0 81.958-58.542 154.55-140.5 192.016l-21.075-30.441c77.275-42.15 93.666-96.009 98.35-131.134-11.709 7.025-28.1 9.367-44.492 7.025-42.15-4.683-74.933-37.466-74.933-81.958 0-21.075 9.366-42.15 23.416-58.542C273.975 7.792 292.708.767 316.125.767c25.758 0 49.175 11.708 63.225 25.758zm-234.167 0C168.6 52.283 182.65 80.383 182.65 127.217c0 81.958-58.542 154.55-140.5 192.016l-21.075-30.441c77.275-42.15 93.667-96.009 98.35-131.134-11.708 7.025-28.1 9.367-44.492 7.025C32.783 160 0 124.875 0 82.725c0-21.075 9.367-42.15 23.417-58.542C39.808 7.792 58.542.767 81.958.767c25.759 0 49.175 11.708 63.225 25.758z"/></svg>