<svg xmlns="http://www.w3.org/2000/svg" width="186" height="41" fill="none"><g clip-path="url(#a)"><path fill="#72B800" fill-rule="evenodd" d="M59.037 2.729c0-1.39 1.139-2.516 2.543-2.516h4.431c1 0 1.969.343 2.742.97L70.1 2.276l.034.03.094-.03c2.431-.77 5.381-.917 8.392-.917 3.011 0 5.962.147 8.393.917l.094.03.033-.03 1.348-1.093a4.353 4.353 0 0 1 2.742-.97h4.43c1.405 0 2.544 1.126 2.544 2.516v1.555c0 1.203-.513 2.35-1.412 3.161l-1.087.98a4.592 4.592 0 0 1-1.86 1.016l-.257.071c1.007 2.378 1.564 4.92 1.564 6.976 0 8.271-5.174 11.844-9.733 14.991-3.59 2.48-6.799 4.694-6.799 8.734 0-4.04-3.208-6.255-6.798-8.734-4.56-3.147-9.733-6.72-9.733-14.991 0-2.056.557-4.598 1.564-6.976l-.257-.07a4.592 4.592 0 0 1-1.86-1.017l-1.087-.98a4.256 4.256 0 0 1-1.412-3.161V2.729zm22.89 20.521c0 .395-.175.774-.485 1.054s-.73.436-1.168.436a1.77 1.77 0 0 1-1.036-.329c.497 1.317 1.77 2.565 3.706.558 1.71-1.864-.076-5.797-1.815-8.131-.58-.778-1.532-1.152-2.509-1.152-.977 0-1.928.374-2.508 1.152-1.74 2.334-3.524 6.267-1.815 8.131 1.936 2.007 3.209.76 3.706-.558a1.77 1.77 0 0 1-1.036.33 1.75 1.75 0 0 1-1.169-.437 1.42 1.42 0 0 1-.484-1.054h6.613zM72.29 11.608h-4.606l3.63 2.875c.799.632 1.966.43 2.46-.426.624-1.082-.205-2.449-1.484-2.449zm12.661 0h4.606l-3.63 2.875c-.799.632-1.966.43-2.46-.426-.624-1.082.204-2.449 1.484-2.449z" clip-rule="evenodd"/><path fill="#355030" d="M103.69 28.546h4.08v-15.39h-4.08v15.39zm0-17.79h4.08v-3.66h-4.08v3.66zm6.709 22.83h4.08v-6.78h.06c.87 1.32 2.28 2.19 4.44 2.19 3.96 0 6.66-3.15 6.66-8.13 0-4.8-2.61-8.13-6.69-8.13-2.1 0-3.54.99-4.53 2.34h-.09v-1.92h-3.93v20.43zm7.71-7.98c-2.43 0-3.72-1.83-3.72-4.62 0-2.76 1.02-4.95 3.57-4.95 2.52 0 3.54 2.04 3.54 4.95s-1.32 4.62-3.39 4.62zm15.669 3.39c3.84 0 6.48-1.86 6.48-4.95 0-3.6-2.85-4.32-5.43-4.86-2.19-.45-4.23-.57-4.23-1.89 0-1.11 1.05-1.71 2.64-1.71 1.74 0 2.79.6 2.97 2.25h3.69c-.3-3.09-2.55-5.1-6.6-5.1-3.51 0-6.27 1.59-6.27 4.92 0 3.36 2.7 4.11 5.46 4.65 2.1.42 4.05.57 4.05 2.04 0 1.08-1.02 1.77-2.82 1.77-1.83 0-3.09-.78-3.36-2.55h-3.78c.24 3.27 2.73 5.43 7.2 5.43zm21.971-.45v-15.39h-4.08v8.88c0 2.04-1.17 3.48-3.09 3.48-1.74 0-2.55-.99-2.55-2.79v-9.57h-4.05v10.26c0 3.36 1.92 5.55 5.34 5.55 2.16 0 3.36-.81 4.41-2.22h.09v1.8h3.93zm2.639 0h4.08v-8.94c0-2.04 1.11-3.36 2.76-3.36 1.5 0 2.37.9 2.37 2.64v9.66h4.08v-8.94c0-2.04 1.05-3.36 2.76-3.36 1.5 0 2.37.9 2.37 2.64v9.66h4.08v-10.35c0-3.36-1.83-5.46-5.07-5.46-1.95 0-3.57 1.02-4.62 2.7h-.06c-.75-1.62-2.31-2.7-4.26-2.7-2.13 0-3.63 1.08-4.47 2.49h-.09v-2.07h-3.93v15.39zm-157.704 0h4.08V7.096H.684v21.45zm14.056.45c4.77 0 8.04-3.54 8.04-8.13 0-4.59-3.27-8.13-8.04-8.13s-8.04 3.54-8.04 8.13c0 4.59 3.27 8.13 8.04 8.13zm0-3.12c-2.52 0-3.9-2.01-3.9-5.01s1.38-5.04 3.9-5.04c2.49 0 3.9 2.04 3.9 5.04s-1.41 5.01-3.9 5.01zm16.717 7.92c2.28 0 4.26-.54 5.55-1.74 1.14-1.05 1.83-2.52 1.83-4.68v-14.22h-3.93v1.62h-.06c-.93-1.29-2.34-2.04-4.26-2.04-3.9 0-6.66 2.94-6.66 7.53 0 4.65 3.36 7.35 6.78 7.35 1.95 0 3.12-.78 4.02-1.8h.09v1.68c0 2.1-1.11 3.21-3.42 3.21-1.89 0-2.76-.75-3.09-1.71h-4.05c.42 3 3 4.8 7.2 4.8zm-.06-9.45c-2.1 0-3.48-1.53-3.48-4.14 0-2.58 1.38-4.2 3.45-4.2 2.46 0 3.66 1.92 3.66 4.17 0 2.28-1.05 4.17-3.63 4.17zm17.357 4.65c4.77 0 8.04-3.54 8.04-8.13 0-4.59-3.27-8.13-8.04-8.13s-8.04 3.54-8.04 8.13c0 4.59 3.27 8.13 8.04 8.13zm0-3.12c-2.52 0-3.9-2.01-3.9-5.01s1.38-5.04 3.9-5.04c2.49 0 3.9 2.04 3.9 5.04s-1.41 5.01-3.9 5.01zm131.95-16.08c0-.69.559-1.25 1.25-1.25h2.5a1.25 1.25 0 0 1 0 2.5h-2.5a1.25 1.25 0 0 1-1.25-1.25z"/></g><defs><clipPath id="a"><path fill="#fff" d="M0 0h186v41H0z"/></clipPath></defs></svg>