<svg xmlns="http://www.w3.org/2000/svg" width="171" height="32" fill="none"><g clip-path="url(#a)"><path fill="#4845D2" d="M67.582 6.284H64v16.163h9.916V19.28h-6.334V6.284zm6.677 10.681c0 3.45 2.315 5.744 5.81 5.744 3.473 0 5.788-2.293 5.788-5.744 0-3.451-2.315-5.767-5.788-5.767-3.495 0-5.81 2.316-5.81 5.767zm3.385-.022c0-1.638.961-2.73 2.425-2.73 1.441 0 2.403 1.092 2.403 2.73 0 1.66-.962 2.752-2.403 2.752-1.464 0-2.425-1.092-2.425-2.752zm8.754-.153c0 3.298 2.14 5.526 5.177 5.526 1.463 0 2.73-.524 3.364-1.376v1.507c0 1.507-.94 2.512-2.6 2.512-1.485 0-2.512-.699-2.577-1.944h-3.407c.305 2.992 2.62 5.002 5.788 5.002 3.735 0 6.094-2.424 6.094-6.269V11.526H95.2l-.175 1.114c-.612-.896-1.9-1.485-3.386-1.485-3.058 0-5.242 2.293-5.242 5.635zm3.408-.087c0-1.573 1.048-2.621 2.38-2.621 1.551 0 2.687 1.026 2.687 2.62 0 1.595-1.114 2.687-2.665 2.687-1.332 0-2.402-1.092-2.402-2.686zm9.411.262c0 3.45 2.315 5.744 5.81 5.744 3.473 0 5.788-2.293 5.788-5.744 0-3.451-2.315-5.767-5.788-5.767-3.495 0-5.81 2.316-5.81 5.767zm3.385-.022c0-1.638.961-2.73 2.425-2.73 1.441 0 2.402 1.092 2.402 2.73 0 1.66-.961 2.752-2.402 2.752-1.464 0-2.425-1.092-2.425-2.752zm11.113-7.121c1.048 0 1.9-.851 1.9-1.922 0-1.07-.852-1.9-1.9-1.9-1.07 0-1.922.83-1.922 1.9 0 1.07.852 1.922 1.922 1.922zm-1.704 12.625h3.386v-10.92h-3.386v10.92zm5.357 5.243h3.32v-6.335c.633.83 2.075 1.398 3.582 1.398 3.254 0 5.22-2.49 5.133-5.941-.088-3.517-2.119-5.635-5.155-5.635-1.551 0-3.014.677-3.626 1.681l-.175-1.332h-3.079V27.69zm3.385-10.703c0-1.638 1.092-2.73 2.665-2.73 1.594 0 2.599 1.113 2.599 2.73 0 1.616-1.005 2.73-2.599 2.73-1.573 0-2.665-1.092-2.665-2.73zm9.008 2.009c.087 2.206 1.835 3.735 4.587 3.735 2.643 0 4.478-1.398 4.478-3.648 0-1.616-.961-2.686-2.753-3.123l-1.943-.48c-.699-.175-1.136-.35-1.136-.918 0-.568.458-.94 1.136-.94.764 0 1.266.503 1.245 1.246h3.036c-.088-2.272-1.813-3.691-4.216-3.691-2.424 0-4.237 1.441-4.237 3.625 0 1.464.808 2.665 2.97 3.233l1.922.502c.568.153.808.415.808.787 0 .546-.502.895-1.354.895-.983 0-1.507-.458-1.507-1.223h-3.036zm14.213 3.735c1.333 0 2.665-.612 3.342-1.507l.219 1.223h3.167v-10.92h-3.364v5.678c0 1.638-.48 2.534-2.031 2.534-1.202 0-1.988-.546-1.988-2.578v-5.635h-3.364v6.858c0 2.6 1.442 4.347 4.019 4.347zm12.062-.284v-5.963c0-1.835.983-2.359 1.944-2.359 1.07 0 1.769.656 1.769 2.01v6.312h3.32v-5.963c0-1.856.961-2.38 1.922-2.38 1.07 0 1.791.655 1.791 2.03v6.313h3.277v-7.142c0-2.49-1.311-4.15-4.129-4.15-1.572 0-2.861.764-3.429 1.944-.655-1.18-1.791-1.944-3.604-1.944-1.201 0-2.315.546-2.97 1.42l-.131-1.049h-3.146v10.921h3.386zM0 16C0 7.163 7.163 0 16 0h21c8.837 0 16 7.163 16 16v16H16C7.163 32 0 24.837 0 16z"/><path fill="#A5B4FC" d="M37 6H16C10.477 6 6 10.477 6 16s4.477 10 10 10h21c5.523 0 10-4.477 10-10S42.523 6 37 6z"/><path fill="#000" d="M16 21a5 5 0 1 0 0-10 5 5 0 0 0 0 10z"/><path fill="#fff" d="M14 15a1 1 0 1 0 0-2 1 1 0 0 0 0 2z"/><path fill="#000" d="M38 21a5 5 0 1 0 0-10 5 5 0 0 0 0 10z"/><path fill="#fff" d="M36 15a1 1 0 1 0 0-2 1 1 0 0 0 0 2z"/></g><defs><clipPath id="a"><path fill="#fff" d="M0 0h171v32H0z"/></clipPath></defs></svg>