<svg xmlns="http://www.w3.org/2000/svg" width="170" height="41" fill="none"><g clip-path="url(#a)"><path fill="#2F234F" d="M51.277 29.323H63.23v-3.6h-7.704v-13.56h-4.248v17.16zm19.033-2.4c-1.703 0-2.591-1.488-2.591-3.72s.888-3.744 2.592-3.744c1.704 0 2.616 1.512 2.616 3.744s-.912 3.72-2.616 3.72zm.025 2.784c3.96 0 6.552-2.808 6.552-6.504 0-3.696-2.592-6.504-6.552-6.504-3.936 0-6.576 2.808-6.576 6.504 0 3.696 2.64 6.504 6.576 6.504zm13.405 3.864c1.825 0 3.433-.408 4.513-1.368.984-.888 1.632-2.232 1.632-4.08V17.035H86.14v1.32h-.048c-.72-1.032-1.824-1.68-3.456-1.68-3.048 0-5.16 2.544-5.16 6.144 0 3.768 2.568 5.832 5.328 5.832 1.488 0 2.424-.6 3.144-1.416h.096v1.224c0 1.488-.696 2.352-2.352 2.352-1.296 0-1.944-.552-2.16-1.2H77.74c.384 2.568 2.616 3.96 6 3.96zm-.023-7.824c-1.464 0-2.424-1.2-2.424-3.048 0-1.872.96-3.072 2.424-3.072 1.632 0 2.496 1.392 2.496 3.048 0 1.728-.792 3.072-2.496 3.072zm13.866 1.176c-1.704 0-2.592-1.488-2.592-3.72s.888-3.744 2.592-3.744c1.704 0 2.616 1.512 2.616 3.744s-.912 3.72-2.616 3.72zm.024 2.784c3.96 0 6.552-2.808 6.552-6.504 0-3.696-2.592-6.504-6.552-6.504-3.936 0-6.576 2.808-6.576 6.504 0 3.696 2.64 6.504 6.576 6.504zm7.695-.384h3.912V17.035h-3.912v12.288zm0-13.992h3.912v-3.168h-3.912v3.168zm5.609 18.049h3.912v-5.33h.048c.768 1.032 1.896 1.656 3.48 1.656 3.216 0 5.352-2.544 5.352-6.528 0-3.696-1.992-6.504-5.256-6.504-1.68 0-2.88.744-3.72 1.848h-.072v-1.488h-3.744V33.38zm6.432-6.697c-1.68 0-2.64-1.368-2.64-3.36 0-1.992.864-3.504 2.568-3.504 1.68 0 2.472 1.392 2.472 3.504 0 2.088-.912 3.36-2.4 3.36zm12.729 3.024c3.216 0 5.592-1.392 5.592-4.08 0-3.144-2.544-3.696-4.704-4.056-1.56-.288-2.952-.408-2.952-1.272 0-.768.744-1.128 1.704-1.128 1.08 0 1.824.336 1.968 1.44h3.6c-.192-2.424-2.064-3.936-5.544-3.936-2.904 0-5.304 1.344-5.304 3.936 0 2.88 2.28 3.456 4.416 3.816 1.632.288 3.12.408 3.12 1.512 0 .792-.744 1.224-1.92 1.224-1.296 0-2.112-.6-2.256-1.824h-3.696c.12 2.712 2.376 4.368 5.976 4.368zm10.906-.024c1.704 0 2.784-.672 3.672-1.872h.072v1.512h3.744V17.035h-3.912V23.9c0 1.464-.816 2.472-2.16 2.472-1.248 0-1.848-.744-1.848-2.088v-7.248h-3.888V25.1c0 2.736 1.488 4.584 4.32 4.584zm9.19-.36h3.912v-6.888c0-1.464.72-2.496 1.944-2.496 1.176 0 1.728.768 1.728 2.088v7.296h3.912v-6.888c0-1.464.696-2.496 1.944-2.496 1.176 0 1.728.768 1.728 2.088v7.296h3.912v-7.992c0-2.76-1.392-4.656-4.176-4.656-1.584 0-2.904.672-3.864 2.16h-.048c-.624-1.32-1.848-2.16-3.456-2.16-1.776 0-2.952.84-3.72 2.112h-.072v-1.752h-3.744v12.288z"/><path fill="#7F57F1" fill-rule="evenodd" d="M20.102 40.323c11.045 0 20-8.954 20-20 0-11.045-8.955-20-20-20-11.046 0-20 8.955-20 20 0 11.046 8.954 20 20 20zm3.087-24.547a4.366 4.366 0 1 0-6.174 0l3.087 3.087 3.087-3.087zm1.46 7.634a4.366 4.366 0 1 0 0-6.174l-3.087 3.087 3.087 3.087zm-1.46 7.635a4.366 4.366 0 0 0 0-6.174l-3.087-3.087-3.087 3.087a4.366 4.366 0 0 0 6.174 6.174zM9.38 23.41a4.366 4.366 0 0 1 6.174-6.174l3.087 3.087-3.087 3.087a4.366 4.366 0 0 1-6.174 0z" clip-rule="evenodd"/></g><defs><clipPath id="a"><path fill="#fff" d="M0 0h170v41H0z"/></clipPath></defs></svg>