<svg xmlns="http://www.w3.org/2000/svg" width="362" height="279" fill="none"><path fill="#FDFCFC" d="M33.516 13.781C45.37 5.433 57.74 1.421 72.222 1.217v65.835l-38.706-53.27z"/><path fill="#483D89" d="M71.018 2.445v60.896l-35.803-49.27C46.225 6.577 57.718 2.843 71.018 2.445zM73.428 0C57.79 0 44.478 4.325 31.83 13.504L73.427 70.75V0z"/><path fill="#FFA6DE" d="M73.425 70.75V0c39.067 0 70.762 31.67 70.762 70.75 0 39.079-31.683 70.774-70.762 70.774-39.08 0-70.762-31.695-70.762-70.774 0-23.443 10.204-43.464 29.165-57.246L73.425 70.75z"/><path fill="#483D89" d="m73.41 70.75 67.293 21.877c12.082-37.164-8.264-77.087-45.428-89.17C87.842 1.036 81.216 0 73.41 0v70.75zm224.614 28.671c-5.565-10.938-12.636-19.6-19.467-24.997 3.024-5.06 4.795-10.962 4.795-17.287 0-18.66-15.131-33.79-33.791-33.79a33.54 33.54 0 0 0-12.661 2.481c-6.108-6.035-14.48-9.758-23.744-9.758-18.66 0-33.791 15.13-33.791 33.791 0 6.47 1.855 12.505 5.011 17.636-3.228 6.638-8.553 16.781-13.287 21.769-7.385 7.794-10.336 17.624-5.529 24.731 4.794 7.12 14.757 5.759 17.708 13.216 2.952 7.456 9.589 23.719 33.948 18.298 24.358-5.421 42.801 2.036 52.029-8.468 9.228-10.505 11.806-8.806 15.504-11.18 3.686-2.385 21.034-11.203 13.275-26.442z"/><path fill="#FDFCFC" d="m329.67 279.723-21.901-105.757-77.448-43.26-53.33 20.564a59.825 59.825 0 0 0-36.273 40.344l-23.623 88.109H329.67z"/><path fill="#483D89" d="M117.095 280.928c-.109 0-.205-.012-.313-.036a1.208 1.208 0 0 1-.856-1.47l23.636-88.121c5.035-18.769 18.865-34.153 37.007-41.152l53.331-20.563c.337-.133.71-.097 1.024.072l77.447 43.26c.302.168.519.469.591.807l21.889 105.757a1.208 1.208 0 0 1-.94 1.422 1.202 1.202 0 0 1-1.422-.94l-21.792-105.215-76.472-42.718-52.801 20.359c-17.419 6.722-30.706 21.491-35.537 39.525l-23.636 88.121c-.144.53-.626.892-1.156.892z"/><path fill="#FDFCFC" d="m252.726 143.211-10.77-59.15-37.309 6.795 8.457 46.476-28.406 10.95c2.891 16.54 25.431 29.418 52.825 29.418 19.997 0 37.417-6.867 46.476-17.01l-31.273-17.479z"/><path fill="#483D89" d="M237.536 178.905c-27.755 0-50.981-13.071-54.017-30.406a1.203 1.203 0 0 1 .747-1.325l27.467-10.589-8.289-45.5c-.12-.65.314-1.277.964-1.398l37.309-6.794c.313-.06.638.012.903.193.265.18.446.457.506.77l10.673 58.596 30.792 17.202c.325.181.542.494.602.855.06.362-.048.735-.289 1-9.589 10.722-27.744 17.396-47.368 17.396zm-51.451-29.852c3.53 15.721 25.37 27.454 51.451 27.454 18.263 0 35.153-5.914 44.549-15.504l-29.948-16.732a1.25 1.25 0 0 1-.602-.832l-10.541-57.968-34.935 6.36 8.252 45.296a1.204 1.204 0 0 1-.747 1.337l-27.479 10.589z"/><path fill="#FDFCFC" d="M359.365 178.519c-1.277-2.795-3.301-5.071-5.794-6.866 0-.024.012-.049.012-.073a8.77 8.77 0 0 0-.542-3.517c-8.349-22.732-35.996-27.455-37.164-27.647a8.889 8.889 0 0 0-6.674 1.566 8.915 8.915 0 0 0-3.614 5.83 8.91 8.91 0 0 0 1.204 6.12c-.12-.096-.228-.193-.349-.289-1.771-1.289-3.758-1.699-5.915-1.229-.879.193-2.927.639-3.722 22.624.012 1.277.446 30.948 9.878 39.043-.903 5.06-9.493 41.163-15.311 65.341a1.2 1.2 0 0 0 .229 1.024c.229.289.578.458.951.458h58.137c.073 0 .121-.036.193-.049.073-.024.157-.036.229-.06.072-.036.133-.084.193-.132s.12-.085.181-.145c.048-.06.084-.12.132-.193.036-.06.084-.132.109-.204.024-.073.036-.157.048-.229.012-.06.036-.121.036-.181 0-.012-.012-.036-.012-.048 0-.012.012-.036 0-.048-1.506-18.299-2.735-47.067.096-51.307 8.879-13.287 12.637-38.417 7.469-49.789zm-235.039-12.095 4.072-6.577a57.728 57.728 0 0 0 3.843-53.415l-15.914-36.561c-1.674-3.108-5.83-3.759-8.372-1.338-1.349 1.29-1.867 3.229-1.53 5.072l3.686 19.865a6.42 6.42 0 0 0-6.818-1.988c-3.217 1-5.024 4.433-4.289 7.722l.301 1.337a6.34 6.34 0 0 0-3.746.35c-2.915 1.192-4.445 4.433-3.77 7.517l.686 3.096a6.401 6.401 0 0 0-6.445 6.312l-.096 6.373c-.037 2.722.88 5.409 2.71 7.409 1.578 1.722 2.915 1.891 4.168 1.795l3.88 15.01c3.156 12.239 15.142 20.057 27.634 18.021z"/><path fill="#483D89" d="M120.29 167.954c-11.541 0-21.792-7.722-24.768-19.262l-3.638-14.095c-1.229-.072-2.614-.554-4.12-2.192-2-2.181-3.072-5.108-3.036-8.24l.097-6.373c.06-3.65 2.71-6.698 6.18-7.36l-.386-1.771c-.831-3.747 1.06-7.493 4.494-8.89a7.653 7.653 0 0 1 2.674-.567c-.723-3.867 1.506-7.734 5.168-8.878a7.662 7.662 0 0 1 5.433.337l-3.156-16.841c-.434-2.325.277-4.626 1.879-6.156a6.53 6.53 0 0 1 5.529-1.723c2.024.326 3.759 1.542 4.723 3.361l15.962 36.646a58.958 58.958 0 0 1-3.928 54.535l-4.071 6.578a1.187 1.187 0 0 1-.832.554 27.572 27.572 0 0 1-4.204.337zM92.8 132.176a1.22 1.22 0 0 1 1.168.903l3.88 15.01c2.987 11.553 13.985 18.865 25.743 17.227l3.783-6.108a56.502 56.502 0 0 0 3.758-52.294l-15.914-36.562c-.566-1.048-1.662-1.83-2.939-2.023a4.102 4.102 0 0 0-3.493 1.084c-1 .952-1.458 2.481-1.181 3.975l3.686 19.865a1.22 1.22 0 0 1-.674 1.313 1.186 1.186 0 0 1-1.434-.313 5.232 5.232 0 0 0-5.541-1.614c-2.554.795-4.084 3.566-3.47 6.312l.301 1.337a1.217 1.217 0 0 1-1.433 1.446 5.177 5.177 0 0 0-3.048.277c-2.3.94-3.614 3.578-3.048 6.144l.687 3.096c.084.361-.012.735-.241 1.012a1.193 1.193 0 0 1-.94.445h-.036c-2.83 0-5.168 2.289-5.204 5.12l-.096 6.373c-.037 2.518.807 4.855 2.397 6.577 1.313 1.422 2.253 1.482 3.18 1.41.048-.012.072-.012.109-.012z"/><path fill="#483D89" d="M106.966 123.382c-.241 0-.482-.073-.699-.229a7.648 7.648 0 0 1-2.927-4.229l-5.313-18.672a1.22 1.22 0 0 1 .831-1.494 1.22 1.22 0 0 1 1.494.832l5.313 18.696a5.279 5.279 0 0 0 1.999 2.915 1.2 1.2 0 0 1 .277 1.675c-.229.337-.59.506-.975.506zm5.262-22.359c-.518 0-1-.337-1.157-.855l-1.819-6.024a1.209 1.209 0 0 1 2.313-.698l1.819 6.023a1.208 1.208 0 0 1-.807 1.506c-.121.024-.241.048-.349.048zm-19.937 33.586h-.12a1.198 1.198 0 0 1-1.18-1.216c.011-.663.566-1.217 1.228-1.193 1.735 0 3.434-.843 4.421-2.337a1.204 1.204 0 0 1 1.675-.337c.554.361.71 1.12.337 1.674-1.433 2.132-3.795 3.409-6.36 3.409z"/><path fill="#483D89" d="M109.616 147.017a1.21 1.21 0 0 1-1.036-.578l-.687-1.144c-5.071-8.397-5.096-18.757-.072-27.154l-1.771-12.829a5.792 5.792 0 0 1 3.048-5.915 5.761 5.761 0 0 1 7.529 1.976l14.275 21.973a1.202 1.202 0 0 1-.349 1.662 1.205 1.205 0 0 1-1.663-.349l-14.299-21.973a3.352 3.352 0 0 0-4.385-1.157 3.39 3.39 0 0 0-1.771 3.445l1.831 13.252c.037.277-.024.566-.168.795-4.771 7.686-4.819 17.275-.133 25.021l.687 1.144a1.2 1.2 0 0 1-.41 1.651c-.205.12-.421.18-.626.18z"/><path fill="#483D89" d="M102.966 134.188a7.64 7.64 0 0 1-4.084-1.193 7.577 7.577 0 0 1-3.337-4.771l-4.083-16.166a1.191 1.191 0 0 1 .867-1.458 1.197 1.197 0 0 1 1.458.868l4.095 16.202a5.215 5.215 0 0 0 6.217 3.988c.241-.048.481-.121.71-.217a1.217 1.217 0 0 1 1.554.699 1.213 1.213 0 0 1-.71 1.554c-.338.12-.687.229-1.036.313a7.822 7.822 0 0 1-1.651.181z"/><path fill="#FDFCFC" d="m109.999 160.678 7.758 119.045h54.885l-35.779-147.885-26.864 28.84z"/><path fill="#483D89" d="M172.642 280.928a1.208 1.208 0 0 1-1.168-.916l-35.779-147.884a1.207 1.207 0 0 1 .892-1.458 1.21 1.21 0 0 1 1.457.891l35.779 147.885a1.207 1.207 0 0 1-.892 1.458c-.108.012-.204.024-.289.024zm-55.655 0a1.218 1.218 0 0 1-1.204-1.121l-7.758-115.539a1.21 1.21 0 0 1 1.12-1.289 1.186 1.186 0 0 1 1.277 1.12l7.746 115.54a1.211 1.211 0 0 1-1.12 1.289h-.061z"/><path fill="#483D89" d="M107.65 281h148.271v-3.385a8.314 8.314 0 0 0-8.313-8.312H107.65V281z"/><path fill="#483D89" d="M165.185 281H30.371L.748 191.457c-2.867-8.649 3.578-17.564 12.685-17.564h106.661a13.355 13.355 0 0 1 12.685 9.168L165.185 281z"/><path fill="#FDFCFC" d="M83.333 231.065a9.493 9.493 0 0 0-7.845-10.894 9.493 9.493 0 1 0 7.845 10.894z"/><path fill="#483D89" d="M73.967 240.234c-5.903 0-10.697-4.794-10.697-10.697s4.794-10.698 10.697-10.698 10.697 4.795 10.697 10.698c0 5.903-4.806 10.697-10.697 10.697zm0-18.985c-4.566 0-8.288 3.722-8.288 8.288 0 4.565 3.722 8.288 8.288 8.288 4.566 0 8.288-3.723 8.288-8.288 0-4.578-3.722-8.288-8.288-8.288z"/><path fill="#FDFCFC" d="M215.178 116.262c-15.914 0-28.816-12.902-28.816-28.815V64.69c0-15.913 12.902-28.815 28.816-28.815s28.815 12.902 28.815 28.816v22.768c0 15.901-12.901 28.803-28.815 28.803z"/><path fill="#483D89" d="M215.177 117.467c-16.552 0-30.02-13.468-30.02-30.02V64.69c0-16.552 13.468-30.02 30.02-30.02 16.553 0 30.021 13.468 30.021 30.02v22.77c0 16.54-13.468 30.008-30.021 30.008zm0-80.387c-15.226 0-27.61 12.384-27.61 27.61v22.77c0 15.227 12.384 27.611 27.61 27.611 15.227 0 27.611-12.384 27.611-27.611V64.69c0-15.226-12.384-27.61-27.611-27.61z"/><path fill="#B1E0EF" d="M185.543 87.808c-7.77 0-14.095-6.325-14.095-14.095 0-7.77 6.325-14.094 14.095-14.094 7.77 0 14.094 6.324 14.094 14.094s-6.324 14.095-14.094 14.095zm0-25.792c-6.445 0-11.685 5.24-11.685 11.685s5.24 11.686 11.685 11.686 11.685-5.24 11.685-11.686c0-6.445-5.24-11.685-11.685-11.685zm32.49 25.792c-7.77 0-14.095-6.325-14.095-14.095 0-7.77 6.325-14.094 14.095-14.094 7.77 0 14.095 6.324 14.095 14.094s-6.325 14.095-14.095 14.095zm0-25.792c-6.445 0-11.685 5.24-11.685 11.685s5.24 11.686 11.685 11.686 11.685-5.24 11.685-11.686c0-6.445-5.24-11.685-11.685-11.685z"/><path fill="#B1E0EF" d="M198.239 72.4c-.313 0-.614-.12-.855-.349a1.2 1.2 0 0 1 0-1.699 5.713 5.713 0 0 1 4.059-1.686c1.53 0 2.976.602 4.06 1.686.47.47.47 1.23 0 1.711a1.2 1.2 0 0 1-1.699 0c-1.252-1.253-3.445-1.253-4.698 0a1.33 1.33 0 0 1-.867.337z"/><path fill="#483D89" d="M201.613 90.362c-.145 0-.289-.024-.434-.084-2.373-.916-5.132-2.422-4.819-4.361.422-2.615 2.952-14.143 3.06-14.637a1.21 1.21 0 0 1 1.434-.915 1.2 1.2 0 0 1 .915 1.433c-.024.12-2.529 11.492-3.011 14.348.337.457 1.831 1.337 3.288 1.89.627.242.928.94.687 1.555a1.192 1.192 0 0 1-1.12.77zM203.599 98c-3.264 0-5.24-1.314-5.372-1.41a1.203 1.203 0 0 1-.314-1.675 1.2 1.2 0 0 1 1.663-.313c.205.133 4.915 3.132 12.179-2.023a1.197 1.197 0 0 1 1.674.289 1.197 1.197 0 0 1-.289 1.674c-3.77 2.686-7.035 3.457-9.541 3.457z"/><path fill="#FDFCFC" d="M258.872 82.724c0 6.36-5.156 11.517-11.517 11.517-6.36 0-11.516-5.156-11.516-11.517 0-6.36 5.156-11.516 11.516-11.516 6.361 0 11.517 5.156 11.517 11.516z"/><path fill="#483D89" d="M243.741 83.977a1.79 1.79 0 0 1-.253-.024 1.205 1.205 0 0 1-.928-1.421c.506-2.398 2.903-6.843 8.421-6.578a1.21 1.21 0 0 1 1.144 1.265 1.217 1.217 0 0 1-1.265 1.144c-4.818-.265-5.903 4.47-5.939 4.674a1.22 1.22 0 0 1-1.18.94zm-18.89-54.234a35.834 35.834 0 0 0-18.973 5.397 37.288 37.288 0 0 0-.253 4.216c0 19.913 16.143 36.056 36.056 36.056a35.834 35.834 0 0 0 18.973-5.397 37.29 37.29 0 0 0 .253-4.216c0-19.913-16.142-36.056-36.056-36.056zm67.715 251.185c-.096 0-.193-.012-.289-.036a1.206 1.206 0 0 1-.891-1.458c5.818-24.178 14.407-60.281 15.311-65.341-9.445-8.095-9.866-37.754-9.89-39.043.795-21.985 2.855-22.431 3.722-22.624 2.156-.47 4.144-.06 5.915 1.229 4.337 3.168 6.156 10.962 6.505 14.637.458 4.794 2.265 7.661 5.361 8.505.638.18 1.024.843.843 1.481a1.21 1.21 0 0 1-1.482.844c-2.855-.783-6.408-3.265-7.119-10.601-.349-3.699-2.169-10.481-5.53-12.927-1.12-.819-2.325-1.108-3.686-.879-.927 1.807-1.819 11.782-2.132 20.359 0 .253.446 30.839 9.469 37.513.903.663.915.675-7.084 34.441-3.903 16.492-7.878 32.96-7.878 32.96-.097.566-.591.94-1.145.94z"/><path fill="#FFA6DE" d="M285.252 185.687h-30.815c-6.83 0-12.36-5.529-12.36-12.36v-49.716h55.535v49.716c0 6.831-5.529 12.36-12.36 12.36z"/><path fill="#FFA6DE" d="M300.853 168.111h-8.914c-5.192 0-9.409-4.216-9.409-9.409v-12.998c0-5.18 4.217-9.408 9.409-9.408h8.914c5.192 0 9.409 4.216 9.409 9.408v12.998c-.012 5.181-4.229 9.409-9.409 9.409zm-8.926-29.406c-3.855 0-6.999 3.144-6.999 6.999v12.998c0 3.855 3.144 7 6.999 7h8.914c3.855 0 6.999-3.145 6.999-7v-12.998c0-3.855-3.144-6.999-6.999-6.999h-8.914z"/><path fill="#FDFCFC" d="M333.473 167.472c-7.349-8.203-20.13-10.528-20.287-10.552-4.228-.687-7.095-4.674-6.409-8.903.687-4.228 4.674-7.095 8.903-6.409 1.144.181 28.141 4.831 36.236 26.876.374 1 .518 2.036.47 3.048l-18.913-4.06z"/><path fill="#483D89" d="M352.387 172.737h-.06a1.21 1.21 0 0 1-1.145-1.265 6.429 6.429 0 0 0-.397-2.566c-7.867-21.419-34.176-25.924-35.297-26.105a6.52 6.52 0 0 0-4.879 1.144 6.476 6.476 0 0 0-2.638 4.265 6.52 6.52 0 0 0 1.145 4.879 6.474 6.474 0 0 0 4.264 2.638c.133.024 13.372 2.433 20.997 10.938a1.203 1.203 0 1 1-1.795 1.603c-7.071-7.903-19.467-10.144-19.599-10.168a8.872 8.872 0 0 1-5.819-3.614 8.893 8.893 0 0 1-1.566-6.674 8.87 8.87 0 0 1 3.614-5.83 8.889 8.889 0 0 1 6.674-1.566c1.168.192 28.815 4.915 37.164 27.647a8.77 8.77 0 0 1 .542 3.517 1.198 1.198 0 0 1-1.205 1.157z"/><path fill="#483D89" d="M350.605 280.928a1.216 1.216 0 0 1-1.204-1.109c-.398-4.746-3.711-46.536.494-52.836 8.493-12.745 12.167-36.694 7.276-47.452-3.192-7.011-16.95-14.239-31.261-9.577-3.662 1.193-5.734 3.229-6.168 6.072-.446 2.915.988 5.409 1.446 5.794.578.241.867.891.662 1.494a1.208 1.208 0 0 1-1.53.759c-1.602-.542-3.096-3.94-3.072-6.999.012-2.554 1.06-7.168 7.915-9.397 10.384-3.385 28.876-.831 34.2 10.866 5.168 11.372 1.398 36.49-7.456 49.789-2.831 4.241-1.615 33.008-.097 51.307a1.202 1.202 0 0 1-1.096 1.301c-.036-.012-.072-.012-.109-.012z"/><path fill="#483D89" d="M320.829 197.541c-.217 0-.422-.06-.627-.169-2.421-1.457-3.783-5.071-3.265-8.601.699-4.65 4.373-8.132 10.096-9.565 12.155-3.036 20.479 2.144 20.828 2.361a1.21 1.21 0 0 1 .374 1.662 1.221 1.221 0 0 1-1.663.374c-.072-.048-7.854-4.831-18.949-2.06-6.469 1.614-7.975 5.445-8.3 7.577-.422 2.807.747 5.349 2.12 6.18.566.35.747 1.084.409 1.651-.216.385-.614.59-1.023.59z"/><path fill="#483D89" d="M325.438 213.214c-1.229 0-2.458-.302-3.65-.904-3.807-1.939-6.252-6.626-5.457-10.444.469-2.277 2.65-6.747 7.782-9.12 4.072-1.879 11.239-2.855 22.214 3.157.578.313.795 1.048.482 1.638a1.22 1.22 0 0 1-1.639.482c-7.999-4.373-14.926-5.433-20.057-3.072-4.277 1.975-6.072 5.722-6.433 7.421-.566 2.722 1.385 6.372 4.192 7.794 2.626 1.337 5.457.554 7.975-2.229a1.2 1.2 0 0 1 1.698-.084c.494.446.53 1.204.085 1.698-2.181 2.41-4.686 3.663-7.192 3.663z"/><path fill="#483D89" d="M334.329 213.262h-.096a1.195 1.195 0 0 1-1.096-1.301c.265-3.193-5.494-3.855-5.554-3.855a1.205 1.205 0 0 1-1.072-1.325 1.197 1.197 0 0 1 1.325-1.072c3.036.313 8.071 2.035 7.71 6.457a1.245 1.245 0 0 1-1.217 1.096z"/><path fill="#FDFCFC" d="M325.176 167.665c-6.312 2.06-7.697 6.144-7.89 8.758-2.458-1.168-3.903-3.891-4.313-8.119-.277-2.855-1.433-8.18-3.963-11.902a8.972 8.972 0 0 0 3.987 1.71c.109.024 10.601 1.904 17.805 8.385-2.036.217-3.939.614-5.626 1.168z"/><path fill="#483D89" d="M165.159 245.679c-.096 0-.18-.012-.277-.036a1.204 1.204 0 0 1-.903-1.445l8.011-34.454c.144-.65.795-1.06 1.445-.903.651.144 1.049.795.904 1.445l-8.011 34.454a1.197 1.197 0 0 1-1.169.939z"/></svg>