<svg xmlns="http://www.w3.org/2000/svg" width="40" height="40" fill="none"><g stroke="#FDFCFC" stroke-linecap="round" stroke-linejoin="round" stroke-miterlimit="10" stroke-width="2" clip-path="url(#a)"><path d="M36.401 25.497A8.286 8.286 0 1 0 24.682 13.78a8.286 8.286 0 0 0 11.72 11.718zm-3.194-5.859a2.665 2.665 0 1 1-5.33 0M10.59 16.669l-7.677-6.536c-3.637-3.059-1.138-8.85 3.45-8.941a5.36 5.36 0 0 1 4.228 1.867 5.36 5.36 0 0 1 4.227-1.867c4.595.092 7.087 5.891 3.449 8.95L10.59 16.67zM6.344 29.613h-5.15v9.192h5.15v-9.192zm0 9.197h9.828c1.579 0 3.017-.91 3.693-2.336l2.02-4.264c.926-1.957-.497-4.212-2.662-4.218l-3.827-.011.71-3.065a2.743 2.743 0 0 0-2.111-3.305h-.852l-1.618 3.414a6.385 6.385 0 0 1-2.177 2.545l-3.004 2.046"/></g><defs><clipPath id="a"><path fill="#fff" d="M0 0h40v40H0z"/></clipPath></defs></svg>