<svg xmlns="http://www.w3.org/2000/svg" width="32" height="32" fill="none"><g clip-path="url(#a)"><mask id="b" width="32" height="32" x="0" y="0" maskUnits="userSpaceOnUse" style="mask-type:luminance"><path fill="#fff" d="M32 0H0v32h32V0z"/></mask><g mask="url(#b)"><mask id="c" width="32" height="32" x="0" y="0" maskUnits="userSpaceOnUse" style="mask-type:luminance"><path fill="#fff" d="M0 0h32v32H0V0z"/></mask><g stroke="#FDFCFC" stroke-miterlimit="10" stroke-width="2" mask="url(#c)"><path stroke-linecap="round" stroke-linejoin="round" d="M19.125 29.5H5a3.75 3.75 0 0 1-3.75-3.75V5a2.5 2.5 0 0 1 2.5-2.5h24.5a2.5 2.5 0 0 1 2.5 2.5v15.313m0-12.75H1.375"/><path d="M30.688 5a2.5 2.5 0 1 0-5 0 2.5 2.5 0 0 0 5 0zm-5 0a2.5 2.5 0 1 0-5 0 2.5 2.5 0 0 0 5 0z"/><path stroke-linejoin="round" d="m19.648 23.17-1.398-5.045 4.92 1.494 6.848 6.863a2.5 2.5 0 1 1-3.536 3.536l-6.834-6.848zm9.008 2.424L25.72 28.53"/></g></g></g><defs><clipPath id="a"><path fill="#fff" d="M0 0h32v32H0z"/></clipPath></defs></svg>