<svg xmlns="http://www.w3.org/2000/svg" width="36" height="36" fill="none"><g clip-path="url(#a)"><mask id="b" width="36" height="36" x="0" y="0" maskUnits="userSpaceOnUse" style="mask-type:luminance"><path fill="#fff" d="M36 0H0v36h36V0z"/></mask><g mask="url(#b)"><mask id="c" width="36" height="36" x="0" y="0" maskUnits="userSpaceOnUse" style="mask-type:luminance"><path fill="#fff" d="M0 0h36v36H0V0z"/></mask><g stroke="#FDFCFC" stroke-linecap="round" stroke-linejoin="round" stroke-miterlimit="10" stroke-width="2" mask="url(#c)"><path d="M34.185 11.671 22.663 18.8a3.52 3.52 0 0 1-3.7 0L7.615 11.78"/><path d="M34.594 20.957V12.56a3.495 3.495 0 0 0-3.504-3.486H10.535A3.495 3.495 0 0 0 7.03 12.56v13.42a3.495 3.495 0 0 0 3.504 3.485h5.426"/><path d="M28.969 9.004v-1.34a4.219 4.219 0 0 0-4.219-4.219H5.625a4.219 4.219 0 0 0-4.219 4.22v11.182a4.219 4.219 0 0 0 4.219 4.22h1.266m23.765 1.265 3.115 3.135a2.838 2.838 0 0 1 0 3.995l-3.115 3.135m2.187-5.132H21.586"/></g></g></g><defs><clipPath id="a"><path fill="#fff" d="M0 0h36v36H0z"/></clipPath></defs></svg>