<svg xmlns="http://www.w3.org/2000/svg" width="40" height="40" fill="none"><g clip-path="url(#a)"><mask id="b" width="40" height="40" x="0" y="0" maskUnits="userSpaceOnUse" style="mask-type:luminance"><path fill="#fff" d="M0 0h40v40H0V0z"/></mask><g stroke="#FDFCFC" stroke-linecap="round" stroke-linejoin="round" stroke-miterlimit="10" stroke-width="2" mask="url(#b)"><path d="M35.254 8.308A19.135 19.135 0 0 1 39.22 20c0 10.614-8.605 19.219-19.219 19.219-4.388 0-8.432-1.47-11.667-3.945M8.93 4.287A19.13 19.13 0 0 1 20 .781c4.4 0 8.456 1.48 11.696 3.968M4.72 31.658A19.134 19.134 0 0 1 .78 20c0-3.963 1.2-7.646 3.256-10.705"/><path d="M25.678 28.906C24.608 35.036 22.467 39.22 20 39.22c-3.538 0-6.406-8.605-6.406-19.219 0-1.338.045-2.644.132-3.905m.59-4.969C15.384 4.98 17.529.781 20 .781c3.538 0 6.406 8.605 6.406 19.219a56.86 56.86 0 0 1-.132 3.906m-24.113 2.5h21.38m-6.796-12.812h21.094m-35.678 0h9.245"/><path d="M28.541 26.406a2.5 2.5 0 1 0-5 0 2.5 2.5 0 0 0 5 0zM16.406 13.594a2.5 2.5 0 1 0-5 0 2.5 2.5 0 0 0 5 0zm19.688-7.188a2.5 2.5 0 1 0-5 0 2.5 2.5 0 0 0 5 0zM8.906 33.594a2.5 2.5 0 1 0-5 0 2.5 2.5 0 0 0 5 0zm19.635-7.188h9.298"/></g></g><defs><clipPath id="a"><path fill="#fff" d="M0 0h40v40H0z"/></clipPath></defs></svg>