<svg xmlns="http://www.w3.org/2000/svg" width="36" height="34" fill="none"><path stroke="#FDFCFC" stroke-linecap="round" stroke-linejoin="round" stroke-miterlimit="10" stroke-width="2" d="M6.445 27.672h-4.39A1.055 1.055 0 0 1 1 26.618V2.055C1 1.472 1.472 1 2.055 1h31.78c.583 0 1.056.472 1.056 1.055v24.563c0 .582-.473 1.054-1.055 1.054h-4.89m-13.501 0h-3.768m12.268 0h-3.96M34.89 5.242H1m29.395 27.703H4.945"/><path stroke="#FDFCFC" stroke-linecap="round" stroke-linejoin="round" stroke-miterlimit="10" stroke-width="2" d="M23.956 32.945h4.205V14.84h-4.205v18.106zm-8.451 0h4.206v-20h-4.206v20zm-8.45 0h4.205v-14.59H7.055v14.59z"/></svg>