<svg xmlns="http://www.w3.org/2000/svg" width="670" height="493" fill="none"><g clip-path="url(#a)"><path fill="#483D89" d="M388.169 317.442H219.658v29.477h168.511v-29.477zm-6.168-66.395H225.826v66.395h156.175v-66.395z"/><path fill="#483D89" d="M382.001 251.047H225.826v66.395h156.175v-66.395z"/><path fill="#B1E0EF" d="M358.068 252.116c0-6.109-3.453-27.884-7.645-27.884h-92.997c-4.214 0-7.645 21.775-7.645 27.884h108.287zm-42.677-83.217c41.135-23.913 68.847-68.794 68.847-120.287 0-14.378-2.193-35.564-6.211-48.612H229.822c-4.04 13.048-6.212 34.234-6.212 48.612 0 51.493 27.735 96.374 68.847 120.287v55.028l22.934-55.028z"/><path fill="#FDFCFC" d="M255.254 89.217c-3.605-12.48-5.43-25.462-5.43-38.554 0-8.727.826-17.477 2.454-26.008l8.536 1.637a130.965 130.965 0 0 0-2.302 24.371c0 12.284 1.715 24.437 5.082 36.132l-8.34 2.422zm83.463 194.864h-69.585v8.728h69.585v-8.728z"/><path fill="#B1E0EF" d="M317.238 160.543h-26.627v77.784h26.627v-77.784zm10.989-5.608-2.128-10.691 46.303-9.295c24.52-4.931 42.329-26.75 42.329-51.863V24.262h-61.528V13.353h72.387v69.733c0 30.306-21.48 56.62-51.06 62.555l-46.303 9.294zm-48.627 0-46.303-9.294c-29.58-5.935-51.038-32.249-51.038-62.555V13.353h72.387v10.91h-61.528v58.823c0 25.113 17.809 46.932 42.329 51.863l46.303 9.295-2.15 10.691zM665.906 467.74c-.255 8.823-15.179 23.539-24.005 23.539H493.903c-5.952 0-10.587-5.168-9.941-11.085l16.881-154.635c2.15-19.31 16.18-35.194 35.01-39.601 7.797-1.833 15.619 4.148 23.285 6.482l56.771 11.212a10 10 0 0 1 3.911 1.699l45.968 33.144c2.71 1.953 4.268 5.048 4.149 8.386-.674 19.028-2.996 85.046-4.031 120.859z"/><path fill="#FDFCFC" d="m637.581 316.765 11.25-123.472-62.179-5.717-9.6 105.385-6.906-1.222c-18.482 12.022-28.364 31.048-22.935 47.936 6.929 21.601 36.161 31.463 65.285 22.037 18.33-5.935 32.252-18.088 38.333-31.681l-13.248-13.266z"/><path fill="#483D89" d="M590.452 367.429c-21.544 0-39.896-10.146-45.326-27.099-5.538-17.302 4.04-37.572 23.825-50.445a2.076 2.076 0 0 1 1.564-.306l4.583.808 9.382-103.029c.108-1.2 1.151-2.073 2.367-1.985l62.179 5.716c1.195.109 2.064 1.178 1.955 2.378l-11.142 122.448 12.51 12.546c.63.632.825 1.614.456 2.443-6.559 14.662-21.392 26.946-39.635 32.859-7.689 2.488-15.399 3.666-22.718 3.666zm-19.85-73.399c-17.657 11.804-26.214 29.783-21.349 44.969 6.537 20.422 34.619 29.674 62.548 20.619 16.528-5.346 30.015-16.19 36.378-29.15l-12.14-12.175a2.167 2.167 0 0 1-.63-1.746l11.033-121.29-57.857-5.324-9.404 103.225a2.225 2.225 0 0 1-.847 1.527 2.153 2.153 0 0 1-1.694.415l-6.038-1.07z"/><path fill="#483D89" d="m602.984 119.763-2.411 9.601c-1.39.021-2.758.152-4.105.327-2.997 9.731-4.647 20.204-4.647 31.135 0 33.907 23.108 77.435 51.993 78.395 1.933 0 24.02-25.178 23.499-48.416l-.217-9.534c-.804-34.627-29.645-62.293-64.112-61.508z"/><path fill="#483D89" d="M621.249 191.373c-1.911-18.001-14.551-33.797-31.492-37.572-10.555-2.335-20.675.458-28.298 6.829 4.821-1.003 18.569-3.076 23.846 4.822 6.494 9.644 13.183 29.805 35.944 25.921z"/><path fill="#483D89" d="M577.274 181.497c9.584-10.084 9.216-26.064-.821-35.693-10.038-9.628-25.945-9.258-35.529.826-9.584 10.084-9.216 26.065.822 35.693 10.038 9.628 25.944 9.259 35.528-.826zm35.896-54.141c27.256 2.837 48.931 25.158 50.559 53.129-6.037 4.233-13.421 6.808-21.457 7.004-20.893.48-38.202-15.317-38.658-35.281-.218-9.513 3.431-18.24 9.556-24.852z"/><path fill="#483D89" d="M620.401 162.475c9.584-10.084 9.217-26.064-.821-35.693-10.038-9.628-25.945-9.258-35.529.826-9.584 10.084-9.216 26.065.822 35.693 10.038 9.628 25.944 9.259 35.528-.826z"/><path fill="#483D89" d="M547.82 147.582c.325 14.335 12.162 25.681 26.431 25.354 14.268-.327 25.562-12.219 25.236-26.554-.326-14.335-12.162-25.68-26.431-25.353-14.269.327-25.562 12.218-25.236 26.553zm93.062-.436a2.173 2.173 0 0 1-2.107-2.727c2.324-9.208 12.467-11.586 12.901-11.674a2.163 2.163 0 0 1 2.584 1.659 2.173 2.173 0 0 1-1.65 2.596c-.152.044-7.971 1.942-9.643 8.488-.217 1.003-1.108 1.658-2.085 1.658z"/><path fill="#483D89" d="M639.861 146.557c-.695 0-1.39-.327-1.802-.96a2.186 2.186 0 0 1 .586-3.033c5.603-3.796 4.713-11.891 4.713-11.978-.152-1.2.717-2.291 1.889-2.422 1.195-.153 2.259.698 2.411 1.898.065.436 1.238 10.822-6.602 16.124a2.2 2.2 0 0 1-1.195.371z"/><path fill="#FDFCFC" d="M634.736 204.595c-1.586-7.527-8.253-12.677-15.637-12.546-1.434-17.411-14.4-32.313-32.317-35.39-21.262-3.665-41.438 10.691-45.087 32.03l-.738 4.277c-4.301-.262-8.21 2.749-8.927 7.113-.695 4.32 1.977 8.4 6.082 9.578l-1.434 8.466c4.192 1.244 8.926 1.942 13.943 1.942 2.302 0 4.561-.153 6.733-.437-4.604 4.691-12.705 8.073-22.24 8.924-1.346 19.834 12.445 37.856 32.361 41.281 21.262 3.666 41.438-10.691 45.086-32.03l2.194-12.807 7.84-1.658c8.492-1.833 13.922-10.212 12.141-18.743z"/><path fill="#483D89" d="M574.164 272.583c-2.346 0-4.691-.197-7.059-.611-20.914-3.6-35.618-22.343-34.162-43.573.065-1.069.912-1.92 1.976-2.029 5.647-.502 10.902-1.963 15.094-4.123-4.843-.044-9.534-.742-13.943-2.03a2.16 2.16 0 0 1-1.52-2.465l1.151-6.72c-4.127-2.051-6.537-6.611-5.777-11.302a10.64 10.64 0 0 1 9.23-8.881l.434-2.509c1.868-10.909 7.841-20.422 16.832-26.815 8.991-6.393 19.916-8.881 30.775-7.004 17.895 3.076 31.6 17.52 33.923 35.455 7.689.742 14.182 6.459 15.79 14.205.977 4.691.086 9.513-2.52 13.527-2.606 4.015-6.624 6.786-11.315 7.768l-6.385 1.352-1.933 11.346c-1.868 10.91-7.84 20.423-16.81 26.816-7.102 4.974-15.333 7.593-23.781 7.593zm-36.965-42.067c-.369 18.24 12.532 34.037 30.645 37.157 9.708 1.68 19.481-.567 27.517-6.262 8.035-5.716 13.378-14.226 15.05-23.979l2.194-12.807c.152-.873.825-1.593 1.694-1.768l7.84-1.658c3.54-.742 6.581-2.836 8.579-5.891 1.976-3.054 2.671-6.676 1.911-10.255-1.325-6.371-6.971-10.953-13.465-10.822-1.064.087-2.107-.851-2.194-2.007-1.39-16.822-13.943-30.568-30.536-33.427-20.045-3.425-39.136 10.124-42.567 30.263l-.717 4.277c-.195 1.091-1.129 1.854-2.28 1.811-3.236-.175-6.125 2.072-6.646 5.28a6.342 6.342 0 0 0 4.517 7.113 2.175 2.175 0 0 1 1.542 2.465l-1.107 6.502c5.603 1.375 11.749 1.746 17.917.938a2.19 2.19 0 0 1 2.215 1.2c.413.83.261 1.833-.39 2.51-4.778 4.843-12.619 8.203-21.719 9.36z"/><path fill="#483D89" d="M624.354 226.981a2.18 2.18 0 0 1-2.128-1.724c-.239-1.178.5-2.334 1.672-2.574 7.319-1.55 12.032-8.793 10.49-16.146-.239-1.179.5-2.335 1.672-2.575a2.162 2.162 0 0 1 2.563 1.68c2.02 9.709-4.17 19.266-13.834 21.295a1.534 1.534 0 0 1-.435.044zm-6.515-12.24a2.195 2.195 0 0 1-2.172-2.008c-.673-8.051 6.081-11.476 6.364-11.629 1.064-.546 2.389-.087 2.91.982a2.211 2.211 0 0 1-.977 2.924c-.218.109-4.388 2.334-3.975 7.352a2.174 2.174 0 0 1-1.976 2.357c-.044.022-.109.022-.174.022zm-66.957-20.968c-.022 2.204 1.411 3.993 3.236 4.015 1.802.021 3.301-1.746 3.323-3.95.021-2.203-1.412-3.992-3.236-4.014-1.803 0-3.28 1.745-3.323 3.949zm4.191-13.506c-.629 1.222 1.586 3.644 4.93 5.411 3.367 1.767 6.603 2.204 7.233.982.629-1.222-1.586-3.644-4.93-5.411-3.367-1.746-6.603-2.182-7.233-.982zm44.219-21.099c15.767.458 29.536 13.964 32.229 32.205-3.192 3.076-7.253 5.149-11.836 5.672-11.923 1.397-22.804-8.073-24.303-21.12-.738-6.197.804-12.11 3.91-16.757zM503.22 281.12c.344-18.216-17.128-33.322-39.026-33.74-21.898-.418-39.929 14.01-40.273 32.226-.345 18.217 17.128 33.323 39.025 33.741 21.898.418 39.929-14.01 40.274-32.227z"/><path fill="#FDFCFC" d="M540.24 308.54c-34.945-51.405-85.526-26.663-93.692-18.502a681.59 681.59 0 0 1-5.582 5.542 73.81 73.81 0 0 0-9.274 8.531c-6.884 5.76-13.117 9.273-19.068 8.553-4.213-.502-12.38 13.353-15.311 30.153 8.6-.196 16.94-1.418 24.758-3.687-6.059 8.269-15.203 13.92-25.823 16.56.217 16.146 6.82 32.401 27.018 39.82 0 0 11.25 5.913 24.715 7.004l.239 63.034 67.5-.262 3.801-57.427c1.064-.698 2.128-1.396 3.171-2.16 31.708-22.822 38.853-65.827 17.548-97.159z"/><path fill="#483D89" d="M448.242 467.73a2.183 2.183 0 0 1-2.172-2.182l-.239-61.071c-12.206-1.418-22.109-6.305-23.412-6.982-23.043-8.509-28.125-27.404-28.321-41.783a2.17 2.17 0 0 1 1.651-2.138c7.992-1.985 14.833-5.629 20.133-10.648-5.951 1.244-12.141 1.942-18.504 2.073-.652 0-1.282-.262-1.694-.763-.413-.502-.608-1.157-.5-1.79 2.693-15.425 11.033-32.662 17.7-31.942 4.692.545 10.034-1.899 17.31-7.986 2.823-3.098 5.972-5.978 9.339-8.597a625.263 625.263 0 0 0 5.473-5.432c5.712-5.717 25.41-15.557 47.085-13.506 19.828 1.876 36.617 12.764 49.908 32.313 22.305 32.816 14.378 76.824-18.069 100.192-.782.568-1.564 1.091-2.346 1.615l-3.714 56.336a2.164 2.164 0 0 1-2.15 2.029l-67.478.262zm-49.757-110.381c.565 12.786 5.625 28.779 25.541 36.088.087.022.174.065.261.109.108.066 11.054 5.717 23.868 6.764a2.162 2.162 0 0 1 1.998 2.16l.239 60.853 63.287-.24 3.67-55.398c.043-.698.413-1.309.999-1.702a70.676 70.676 0 0 0 3.084-2.095c30.514-21.971 37.985-63.34 17.027-94.17-12.531-18.437-28.255-28.692-46.737-30.437-21.588-2.029-39.788 8.422-43.611 12.24a434.847 434.847 0 0 1-5.603 5.542c-.065.066-.13.109-.195.175a70.721 70.721 0 0 0-8.992 8.269c-.065.066-.13.131-.217.197-8.34 6.982-14.725 9.774-20.719 9.054-2.172.175-9.187 10.452-12.401 25.703 7.493-.371 14.703-1.527 21.501-3.491.89-.262 1.846.087 2.389.851.521.764.521 1.789-.022 2.531-5.929 8.16-14.66 13.986-25.367 16.997z"/><path fill="#483D89" d="M470.988 450.486c2.759-19.275-10.558-37.146-29.744-39.917-19.186-2.771-36.975 10.608-39.733 29.882-2.758 19.275 10.559 37.146 29.745 39.917 19.185 2.771 36.974-10.608 39.732-29.882zm61.303-176.442c-21.914-12.589-47.715-12.327-69.216-1.68 6.602 1.724 13.031 4.255 19.177 7.79 41.612 23.913 53.601 81.428 26.822 128.469a113.673 113.673 0 0 1-4.734 7.549c21.87-3.665 42.22-17.062 54.317-38.314 21.001-36.873 9.208-83.369-26.366-103.814z"/><path fill="#483D89" d="M458.384 267.477s5.516 20.204 22.044 30.262c8.731 5.324-8.166 3.382-7.08 13.964 8.253 79.29 14.247 94.367 14.247 94.367a15.826 15.826 0 0 0 13.834 12.698l20.72 2.182 6.884-19.026 12.141-82.278c.021.021-41.417-62.555-82.79-52.169zm.586 45.514c-.412 0-.825-.109-1.194-.349-.999-.655-1.281-2.007-.63-3.033.934-1.418 1.064-4.996-.347-8.313-.826-1.964-2.911-5.367-7.385-6.175-1.172-.218-1.954-1.352-1.759-2.531a2.2 2.2 0 0 1 2.52-1.767c4.799.873 8.557 3.993 10.598 8.749 1.89 4.408 1.868 9.535-.022 12.437-.369.633-1.064.982-1.781.982zm-18.351 1.44c-1.846 1.025-3.953.785-4.692-.545-.738-1.331.152-3.252 2.02-4.277 1.846-1.025 3.953-.785 4.691.545.739 1.331-.173 3.251-2.019 4.277z"/><path fill="#483D89" d="M476.128 304.656s-28.799 20.27-25.519 35.194c3.279 14.924 29.254 18.393 25.801 43.899-3.431 25.507-7.905 37.965-38.767 38.969-41.156 1.331-49.561 8.749-49.995 31.921-.434 23.193 98.709-1.724 98.709-1.724s36.791-36.743-10.229-148.259z"/><path fill="#FDFCFC" d="M487.674 380.983c8.07-7.806 8.314-20.707.543-28.815-7.77-8.108-20.612-8.353-28.683-.546-8.07 7.806-8.314 20.707-.543 28.815 7.77 8.108 20.612 8.353 28.683.546z"/><path fill="#483D89" d="M464.4 373.233h-.043c-1.195-.022-2.151-1.025-2.129-2.226.196-9.949 15.181-14.269 15.811-14.444a2.165 2.165 0 0 1 2.671 1.506 2.177 2.177 0 0 1-1.498 2.684c-3.475.981-12.532 4.756-12.64 10.32a2.178 2.178 0 0 1-2.172 2.16zm125.794 82.443c13.713-13.473 13.959-35.563.549-49.339-13.411-13.777-35.399-14.024-49.112-.552-13.713 13.473-13.959 35.563-.548 49.339 13.41 13.777 35.398 14.024 49.111.552z"/><path fill="#FDFCFC" d="M634.171 491.807c-9.513-13.353-24.737-25.648-43.111-29.226L429.803 431.14c-30.406-5.935-61.745 5.651-78.446 29.019-6.472 9.055-13.704 21.306-21.327 31.648h304.141z"/><path fill="#483D89" d="M634.171 491.665a2.16 2.16 0 0 1-1.759-.916c-9.556-13.397-24.39-22.648-41.764-26.03L429.39 433.278c-29.471-5.738-60.116 5.564-76.274 28.147-6.103 8.553-13.096 18.153-21.349 29.346a2.154 2.154 0 0 1-3.041.458c-.955-.72-1.172-2.095-.456-3.055 8.232-11.171 15.203-20.749 21.306-29.28 17.114-23.936 49.517-35.958 80.618-29.892l161.257 31.441c18.483 3.6 34.272 13.462 44.457 27.775a2.205 2.205 0 0 1-.499 3.055 2.09 2.09 0 0 1-1.238.392z"/><path fill="#483D89" d="M497.65 262.24c19.721-9.731 87.959 12.371 78.946 82.388-4.474 34.801-13.487 87.166-3.171 105.189 10.316 18.044 9.144 5.323-4.734 19.331s-67.175 8.968-77.035-1.942c-9.86-10.887-35.704-2.4 3.975-66.46 39.679-64.06.651-96.919-3.453-99.385-4.105-2.422-23.456-24.829 5.472-39.121z"/><path fill="#483D89" d="M550.377 459.624c9.689-21.942-.162-47.62-22.003-57.354-21.841-9.734-47.401.163-57.089 22.105-9.689 21.942.162 47.621 22.003 57.354 21.841 9.734 47.401-.163 57.089-22.105zM79.266 274.602c17.215-2.727 29.35-16.545 27.103-30.864-2.246-14.32-18.024-23.718-35.24-20.992-17.215 2.726-29.35 16.544-27.103 30.864 2.247 14.319 18.024 23.718 35.24 20.992z"/><path fill="#FDFCFC" d="M174.18 316.024c-10.881-1.157-20.719-5.477-27.843-12.852 8.036 1.157 16.463 1.222 25.02.24-5.191-16.233-15.182-28.844-19.286-27.753-5.799 1.527-12.466-1.091-20.068-5.847-3.171-2.641-6.646-5.041-10.338-7.179a511.958 511.958 0 0 1-6.276-4.713c-9.187-6.96-62.657-24.524-90.283 31.223-15.441 31.157-5.799 68.751 22.544 88.846l-19.22 71.13 82.854-14.772 14.638-64.169c14.747-2.269 26.909-10.997 26.909-10.997 19.025-10.124 23.325-27.12 21.349-43.157z"/><path fill="#483D89" d="M28.45 451.301a2.167 2.167 0 0 1-1.606-.721 2.205 2.205 0 0 1-.5-2.05l18.83-69.668c-28.451-21.033-37.725-58.933-21.979-90.701 10.512-21.208 25.67-34.299 45.044-38.881 21.197-5.018 42.046 2.007 48.496 6.895a875.814 875.814 0 0 0 6.168 4.625 75.978 75.978 0 0 1 10.425 7.222c8.036 5.019 13.661 6.721 18.243 5.521 6.516-1.702 17.114 14.291 21.892 29.193a2.231 2.231 0 0 1-.239 1.855 2.15 2.15 0 0 1-1.585.982c-6.32.741-12.553.894-18.613.501 5.929 4.255 13.205 6.917 21.393 7.79a2.196 2.196 0 0 1 1.933 1.898c1.759 14.27-.695 33.688-22.348 45.274-1.347.938-12.467 8.509-26.258 11.04l-14.312 62.751a2.165 2.165 0 0 1-1.737 1.659l-82.855 14.771c-.152.022-.26.044-.391.044zm54.948-199.403c-4.518 0-9.296.459-14.16 1.615-18.07 4.276-32.252 16.582-42.155 36.59-15.008 30.285-5.82 66.482 21.848 86.097a2.196 2.196 0 0 1 .847 2.357l-18.33 67.791 78.055-13.921 14.312-62.751a2.16 2.16 0 0 1 1.781-1.658c14.03-2.16 25.867-10.517 25.975-10.604a1.52 1.52 0 0 1 .239-.153c18.743-9.993 21.566-26.531 20.372-39.273-11.011-1.506-20.459-6.088-27.43-13.288a2.159 2.159 0 0 1-.369-2.509 2.17 2.17 0 0 1 2.236-1.178c6.994 1.003 14.313 1.178 21.784.501-5.234-14.553-13.487-23.76-15.768-23.76h-.043c-5.821 1.527-12.531-.349-21.718-6.131-.087-.044-.152-.11-.239-.175a70.287 70.287 0 0 0-10.034-6.96c-.065-.044-.152-.087-.217-.131-2.042-1.506-4.127-3.098-6.298-4.735-3.302-2.487-15.594-7.724-30.688-7.724z"/><path fill="#483D89" d="M28.299 253.884c19.98-15.492 45.586-18.786 68.325-11.193-6.298 2.596-12.336 6.022-17.917 10.342-37.942 29.411-42.003 88.039-9.035 130.956 1.824 2.379 3.757 4.648 5.712 6.83-22.175-.611-44.154-11.106-59.03-30.481-25.845-33.645-20.48-81.297 11.945-106.454z"/><path fill="#483D89" d="M100.62 237.192s-2.693 20.772-17.7 33.012c-7.927 6.48 8.557 2.226 8.904 12.851 2.65 79.683-1.237 95.436-1.237 95.436-.413 6.938-5.256 12.808-11.967 14.488l-34.728 2.64 1.933-11.608-20.089-83.74c-.022.021 32.49-67.661 74.884-63.079zm6.016 47.98a2.185 2.185 0 0 1-1.455-.568c-2.128-1.941-3.431-6.327-3.127-10.669.304-4.538 2.258-8.247 5.451-10.451a2.163 2.163 0 0 1 3.019.589 2.186 2.186 0 0 1-.587 3.033c-2.801 1.92-3.431 5.302-3.561 7.135-.239 3.425.847 6.349 1.694 7.134.89.808.955 2.182.152 3.077-.413.48-.999.72-1.586.72zm17.983-3.906c1.976.764 4.018.24 4.561-1.2.543-1.418-.608-3.207-2.585-3.971-1.976-.763-4.018-.24-4.561 1.2-.542 1.44.609 3.208 2.585 3.971z"/><path fill="#FDFCFC" d="M119.081 334.025c1.737 11.127-5.821 21.557-16.875 23.302-11.077 1.746-21.458-5.847-23.195-16.953-1.738-11.106 5.82-21.557 16.875-23.303 11.076-1.767 21.457 5.826 23.195 16.954z"/><path fill="#483D89" d="M108.786 342.817a2.19 2.19 0 0 1-2.15-1.833c-.868-5.498-10.36-7.985-13.921-8.487a2.17 2.17 0 0 1-1.846-2.466c.152-1.2 1.26-2.007 2.432-1.876.652.087 16.094 2.313 17.635 12.131a2.16 2.16 0 0 1-1.802 2.488 1.97 1.97 0 0 1-.348.043zm466.34 145.36c19.665-10.431 27.19-34.903 16.807-54.659-10.383-19.756-34.742-27.316-54.407-16.885-19.665 10.431-27.189 34.903-16.806 54.659 10.382 19.757 34.741 27.316 54.406 16.885zM80.748 296.452l30.145 17.783-5.039 8.4-24.52-8.684-.586-17.499z"/><path fill="#B984FD" d="M19.191 489.505c-5.522-.012-9.982-4.499-9.982-10.021v-52.548c0-5.523 4.477-10 10-10h74.07c37.421 0 73.299 14.924 99.774 41.521l14.295 14.362c6.293 6.322 1.865 17.123-7.056 17.101-46.968-.114-148.856-.345-181.1-.415z"/><path fill="#483D89" d="M483.773 64.715h-.022l-27.343-.415a2.003 2.003 0 0 1-1.955-2.007c.022-1.091.956-1.92 1.998-1.964l27.343.415a2.003 2.003 0 0 1 1.955 2.007c-.022 1.09-.912 1.964-1.976 1.964zm-14.161 32.51c-.217 0-.412-.044-.63-.11l-14.247-4.8a1.97 1.97 0 0 1-1.238-2.509 1.974 1.974 0 0 1 2.498-1.243l14.247 4.8a1.968 1.968 0 0 1 1.238 2.509c-.261.83-1.042 1.353-1.868 1.353zm-340.324-32.51a1.983 1.983 0 0 1-1.976-1.964 1.96 1.96 0 0 1 1.955-2.007l27.343-.415c1.064 0 1.976.851 1.998 1.964a1.96 1.96 0 0 1-1.955 2.007l-27.343.415h-.022zm14.161 32.51c-.826 0-1.608-.524-1.868-1.353a1.986 1.986 0 0 1 1.238-2.51l14.247-4.8a1.974 1.974 0 0 1 2.498 1.244 1.988 1.988 0 0 1-1.238 2.51l-14.248 4.8a2.261 2.261 0 0 1-.629.109zm311.916-61.093c-.825 0-1.607-.524-1.868-1.353a1.988 1.988 0 0 1 1.238-2.509l14.248-4.8a1.973 1.973 0 0 1 2.497 1.244 1.986 1.986 0 0 1-1.238 2.509l-14.247 4.8a2.262 2.262 0 0 1-.63.109zm-297.669 0c-.217 0-.413-.043-.63-.109l-14.247-4.8a1.969 1.969 0 0 1-1.238-2.51 1.964 1.964 0 0 1 2.497-1.243l14.248 4.8a1.97 1.97 0 0 1 1.238 2.51c-.261.828-1.043 1.352-1.868 1.352z"/></g><path fill="#B984FD" d="m631.645 35.642-21.753 1.443.405 6.257 21.754-1.444-.406-6.256zm-66.891 4.448L543 41.534l.405 6.256 21.754-1.443-.405-6.257zM604.372 0l-9.642 19.794 5.555 2.773 9.642-19.794L604.372 0zm-29.645 60.828-9.642 19.794 5.555 2.773 9.641-19.794-5.554-2.773zm27.95-1.858-5.15 3.483 12.112 18.35 5.149-3.483-12.111-18.35zM565.459 2.603l-5.15 3.483 12.112 18.35 5.149-3.483-12.111-18.35z"/><path fill="#483D89" d="m72.704 162.016-15.878 1.053.296 4.567L73 166.582l-.296-4.566zm-48.826 3.247L8 166.316l.296 4.567 15.878-1.054-.296-4.566zM52.797 136l-7.038 14.448 4.054 2.024 7.038-14.448L52.797 136zm-21.639 44.4-7.038 14.448 4.055 2.024 7.038-14.448-4.055-2.024zm20.402-1.357-3.76 2.542 8.841 13.395 3.759-2.543-8.84-13.394zM24.393 137.9l-3.759 2.542 8.84 13.395 3.76-2.543-8.841-13.394z"/><path fill="#FFA6DE" d="m303.704 422.016-15.878 1.053.296 4.567L304 426.582l-.296-4.566zm-48.826 3.247L239 426.316l.296 4.567 15.878-1.054-.296-4.566zM283.797 396l-7.038 14.448 4.054 2.024 7.038-14.448-4.054-2.024zm-21.639 44.4-7.038 14.448 4.055 2.024 7.038-14.448-4.055-2.024zm20.401-1.357-3.758 2.542 8.84 13.395 3.759-2.543-8.841-13.394zM255.393 397.9l-3.759 2.542 8.841 13.395 3.759-2.543-8.841-13.394z"/><defs><clipPath id="a"><path fill="#fff" d="M0 0h669.072v492.865H0z"/></clipPath></defs></svg>